<svg width="16" height="16" viewBox="0 0 16 16" fill="none" xmlns="http://www.w3.org/2000/svg">
<path d="M4.20637 10.2937H3.69238L5.64605 4.9231H6.17053L8.1242 10.2937H7.61022L5.92665 5.56033H5.88994L4.20637 10.2937ZM4.57612 8.23516H7.24046V8.67572H4.57612V8.23516Z" fill="#DC69AE"/>
<path d="M10.4843 11.8881C10.2099 11.8881 9.96948 11.8523 9.76319 11.7806C9.55689 11.7107 9.38294 11.6145 9.24133 11.4922C9.09973 11.3698 8.98959 11.2325 8.91091 11.0804L9.29378 10.8287C9.35147 10.9301 9.4284 11.0297 9.52455 11.1276C9.62245 11.2255 9.7492 11.3068 9.9048 11.3715C10.0621 11.4362 10.2553 11.4686 10.4843 11.4686C10.841 11.4686 11.1286 11.3794 11.3471 11.2011C11.5674 11.0227 11.6775 10.7456 11.6775 10.3698V9.46243H11.6356C11.5814 9.58481 11.5036 9.70719 11.4022 9.82956C11.3008 9.95019 11.1679 10.0507 11.0036 10.1311C10.841 10.2116 10.6391 10.2518 10.3978 10.2518C10.0761 10.2518 9.79029 10.1722 9.54029 10.0131C9.29203 9.85404 9.09623 9.62677 8.95287 9.33131C8.81126 9.03411 8.74046 8.68009 8.74046 8.26925C8.74046 7.86191 8.80952 7.50352 8.94763 7.19407C9.08749 6.88463 9.28242 6.64338 9.53242 6.4703C9.78242 6.29722 10.0735 6.21068 10.4057 6.21068C10.6522 6.21068 10.8567 6.25439 11.0193 6.3418C11.1819 6.42747 11.3121 6.53411 11.41 6.66173C11.5097 6.78935 11.5875 6.91348 11.6434 7.03411H11.6906V6.26575H12.1469V10.3986C12.1469 10.7395 12.0744 11.0201 11.9293 11.2404C11.7842 11.4607 11.5866 11.6233 11.3366 11.7282C11.0866 11.8348 10.8025 11.8881 10.4843 11.8881ZM10.4529 9.82432C10.7116 9.82432 10.9328 9.76226 11.1163 9.63813C11.2999 9.51226 11.4406 9.33219 11.5385 9.09792C11.6364 8.86366 11.6854 8.58481 11.6854 8.26138C11.6854 7.9467 11.6373 7.66785 11.5412 7.42484C11.445 7.18009 11.3051 6.98778 11.1216 6.84792C10.9398 6.70631 10.7169 6.63551 10.4529 6.63551C10.1836 6.63551 9.95637 6.70806 9.77105 6.85317C9.58574 6.99827 9.44588 7.19407 9.35147 7.44058C9.25707 7.68533 9.20987 7.95893 9.20987 8.26138C9.20987 8.56907 9.25794 8.84093 9.3541 9.07694C9.45025 9.31121 9.59098 9.49477 9.7763 9.62764C9.96161 9.75876 10.1871 9.82432 10.4529 9.82432Z" fill="#DC69AE"/>
<circle cx="8" cy="8" r="7.8" stroke="#DC69AE" stroke-width="0.4"/>
</svg>
