<svg width="32" height="32" viewBox="0 0 32 32" fill="none" xmlns="http://www.w3.org/2000/svg">
<path d="M21.9522 10.4047C21.6775 10.2643 21.8909 9.84661 22.1656 9.98699L30.5103 14.271C31.4077 14.7317 31.3714 15.4163 30.4872 15.8702L29.6649 16.2924L30.5103 16.7264C31.336 17.1503 31.3475 17.884 30.5165 18.3106L29.6647 18.7479L30.599 19.2291C31.4399 19.6622 31.3211 20.3529 30.526 20.7611L18.9542 26.7019C18.4186 28.0868 18.3906 29.5347 19.2823 30.7737L19.3724 30.1548C19.4159 29.8486 19.8814 29.9148 19.8379 30.221L19.6349 31.6164C19.1478 31.5137 18.6607 31.411 18.1736 31.3083C17.8711 31.2453 17.9667 30.7854 18.2693 30.8483L18.8451 30.9697C18.0182 29.7688 17.9348 28.3833 18.3508 27.0116L16.5978 27.9116C16.051 28.1923 15.4475 28.1847 14.8364 27.9699C14.6402 28.922 14.7941 29.9102 15.3233 30.7307L15.4429 30.1756C15.507 29.873 15.967 29.9706 15.9029 30.2731L15.6253 31.5616L14.18 31.2569C13.8775 31.194 13.9731 30.734 14.2757 30.7969L14.8914 30.9268C14.3099 29.9905 14.1514 28.8666 14.3924 27.7952L11.3144 26.2152C10.5861 27.7621 10.5444 29.2845 11.418 30.7852L11.5334 30.3275C11.6084 30.0274 12.0647 30.1415 11.9897 30.4416L11.6864 31.6442L11.4734 31.5993C11.4678 31.5983 11.4623 31.5971 11.4567 31.5958L10.3018 31.3523C9.99931 31.2893 10.095 30.8294 10.3975 30.8923L11.0116 31.0217C10.0599 29.3877 10.0987 27.6851 10.8961 26.0005L0.706161 20.7692C-0.156913 20.3261 -0.273068 19.6845 0.645048 19.2131L1.55151 18.7478L0.706169 18.3138C-0.110612 17.899 -0.299915 17.2429 0.577188 16.7926L1.55153 16.2924L0.706169 15.8584C-0.0838997 15.4528 -0.321833 14.7998 0.571956 14.3394L10.858 9.04059C11.1327 8.899 11.348 9.31668 11.0733 9.45825L0.78723 14.7571C0.267414 15.0248 0.478093 15.2141 0.9196 15.4407L14.5757 22.4515C15.3881 22.8686 15.8203 22.8709 16.6171 22.4619L30.2738 15.4525C30.8054 15.1796 30.8446 14.9699 30.2968 14.6886L21.9522 10.4047L21.9522 10.4047ZM11.1909 2.09602C11.295 1.8056 11.7366 1.96382 11.6325 2.25426C10.9642 4.11137 11.4679 5.60535 12.0163 7.07539C12.4898 8.34449 12.7562 9.46907 12.6028 10.8449C12.485 11.9018 12.1345 12.8716 11.6887 13.8546C11.6353 13.973 11.4961 14.0257 11.3777 13.9724C11.2593 13.919 11.2066 13.7798 11.26 13.6614C11.6882 12.7172 12.0243 11.7902 12.1354 10.7934C12.2811 9.48653 12.0199 8.4278 11.5718 7.22629C10.9952 5.68046 10.4673 4.10692 11.1909 2.09603V2.09602ZM19.392 2.0675C19.5336 1.79281 19.9512 2.00807 19.8096 2.28278C19.0327 3.792 19.2233 5.43184 19.9588 6.90963C20.6087 8.21534 20.7086 9.54126 20.548 10.8038C20.3896 12.0493 19.9781 13.225 19.5952 14.2559C19.55 14.3773 19.4149 14.4391 19.2934 14.3939C19.172 14.3486 19.1102 14.2135 19.1554 14.0921C19.5291 13.0861 19.9304 11.9406 20.0825 10.7449C20.2324 9.5662 20.1404 8.3308 19.5375 7.11939C18.735 5.50715 18.5462 3.71034 19.392 2.06752L19.392 2.0675ZM15.3983 0.8369C15.5266 0.55615 15.9535 0.751189 15.8252 1.03194C15.1082 2.59784 14.9999 4.84214 15.6238 6.46143C16.0494 7.56592 16.3545 8.09871 16.4871 9.32745C16.6953 11.257 16.3259 13.7498 15.3672 15.4762C15.3042 15.5895 15.1613 15.6303 15.048 15.5673C14.9347 15.5043 14.8939 15.3614 14.9569 15.2481C15.8688 13.606 16.2177 11.2113 16.0197 9.37712C15.8945 8.21655 15.6128 7.71473 15.2012 6.67084C14.5121 4.92349 14.6219 2.53261 15.3983 0.8369ZM16.4646 27.4527L30.3125 20.3434C30.7298 20.1104 30.8428 19.8969 30.3838 19.6468L29.1508 19.0117L16.8335 25.3352C15.9944 25.7659 15.227 25.7685 14.3622 25.3246L2.065 19.0114L0.92626 19.596C0.369755 19.8573 0.330146 20.0489 0.919584 20.3515L14.4078 27.2761C15.0936 27.6282 15.7533 27.8178 16.4646 27.4527L16.4646 27.4527ZM26.9477 15.589C27.1316 15.4962 27.2727 15.7759 27.0888 15.8686L21.6544 18.6138C21.4705 18.7065 21.3295 18.4269 21.5134 18.3341L26.9477 15.589ZM20.243 18.9758C20.4269 18.8831 20.568 19.1627 20.3841 19.2555L18.7405 20.0858C18.5565 20.1785 18.4155 19.8989 18.5994 19.8061L20.243 18.9758ZM30.3031 17.8929C30.7846 17.6457 30.7788 17.3915 30.2968 17.144L29.1514 16.556L16.8305 22.8795C15.8971 23.3587 15.3119 23.3567 14.3622 22.8692L2.06499 16.556L0.814021 17.1982C0.271338 17.4768 0.512941 17.6874 0.919568 17.8961L14.5757 24.9069C15.3123 25.2851 15.9158 25.279 16.6211 24.917C21.1818 22.5756 25.7436 20.2337 30.3031 17.8929V17.8929ZM13.6048 8.17628C13.3301 8.31666 13.1167 7.89898 13.3914 7.75862L14.015 7.43847C14.2897 7.2981 14.5031 7.71577 14.2284 7.85613L13.6048 8.17628ZM17.3828 8.05746C17.1082 7.91589 17.3234 7.49822 17.5981 7.6398L18.8869 8.30294C19.1616 8.44451 18.9463 8.86219 18.6716 8.7206L17.3828 8.05746Z" fill="#DC69AE"/>
</svg>
