<svg width="26" height="26" viewBox="0 0 26 26" fill="none" xmlns="http://www.w3.org/2000/svg">
<path d="M4.9499 6.42163L4.35146 7.02007L4.89869 7.5673H2.11133V8.41375H4.89869L4.35146 8.96098L4.9499 9.55943L6.21958 8.28975C6.29892 8.21038 6.34349 8.10275 6.34349 7.99053C6.34349 7.8783 6.29892 7.77067 6.21958 7.69131L4.9499 6.42163Z" fill="#DC69AE"/>
<path d="M21.0321 7.02007L20.4336 6.42163L19.164 7.69131C19.0846 7.77067 19.04 7.8783 19.04 7.99053C19.04 8.10275 19.0846 8.21038 19.164 8.28975L20.4336 9.55943L21.0321 8.96098L20.4848 8.41375H23.2722V7.5673H20.4848L21.0321 7.02007Z" fill="#DC69AE"/>
<path d="M23.2424 0.638833C23.211 0.56031 23.1567 0.49302 23.0866 0.445645C23.0165 0.398269 22.9339 0.372982 22.8493 0.373047H2.53443C2.44984 0.372982 2.36716 0.398269 2.29708 0.445645C2.227 0.49302 2.17272 0.56031 2.14125 0.638833L1.28803 2.77401C-2.29034 13.1121 2.64489 20.635 3.38088 21.6723V25.3434C3.38088 25.4556 3.42547 25.5633 3.50484 25.6426C3.58421 25.722 3.69186 25.7666 3.80411 25.7666H22.0028C22.1151 25.7666 22.2227 25.722 22.3021 25.6426C22.3814 25.5633 22.426 25.4556 22.426 25.3434V21.6892C23.2098 20.7239 27.6364 14.5748 24.0889 2.75496L23.2424 0.638833ZM12.2686 24.9201H5.92023V24.0737H5.07378V24.9201H4.22733V21.5343C4.22729 21.4402 4.19587 21.3487 4.13803 21.2745C2.04551 18.1642 0.903077 14.5123 0.84999 10.7641L11.0281 15.2858C10.5485 15.5744 10.0541 15.8376 9.54685 16.0743C7.57801 17.021 5.58038 16.3828 4.81434 16.065L4.48931 16.8463C5.38335 17.2159 6.34017 17.41 7.30757 17.418C8.10619 17.4215 8.89751 17.2658 9.63531 16.9601L10.2765 17.6013L10.8749 17.0028L10.4462 16.5741C10.9054 16.3533 11.347 16.0976 11.7671 15.8094C12.2686 16.5733 12.2686 17.0185 12.2686 18.1485V24.9201ZM12.6918 15.7057C12.5817 15.5049 12.4593 15.3111 12.3253 15.1254L12.6918 14.2091L13.0584 15.1254C12.9244 15.3111 12.802 15.5049 12.6918 15.7057ZM21.6943 21.2448C21.6206 21.3233 21.5796 21.4268 21.5796 21.5343V24.9201H20.7331V24.0737H19.8867V24.9201H13.1151V18.1485C13.1151 17.0185 13.1151 16.5733 13.6166 15.8094C14.0368 16.0975 14.4784 16.3531 14.9375 16.5741L14.5088 17.0028L15.1072 17.6013L15.7484 16.9601C16.4862 17.2658 17.2775 17.4215 18.0761 17.418C19.0435 17.4099 20.0003 17.2158 20.8944 16.8463L20.5693 16.065C19.8033 16.3832 17.8065 17.0219 15.8368 16.0743C15.3297 15.8376 14.8352 15.5746 14.3555 15.2862L24.5921 10.7501C24.7627 17.7837 21.7328 21.2025 21.6943 21.2448ZM13.7685 14.6209L13.085 12.9124C13.0537 12.8337 12.9995 12.7662 12.9294 12.7187C12.8593 12.6712 12.7765 12.6458 12.6918 12.6458C12.6072 12.6458 12.5244 12.6712 12.4543 12.7187C12.3842 12.7662 12.33 12.8337 12.2987 12.9124L11.6156 14.6205L0.847451 9.83637C0.899812 7.52997 1.31618 5.24632 2.08115 3.06984L2.82095 1.2195H22.5627L23.2903 3.03387C23.9716 5.24709 24.3952 7.53153 24.5527 9.84187L13.7685 14.6209Z" fill="#DC69AE"/>
<path d="M11.4219 23.2273H10.5754V24.0737H11.4219V23.2273Z" fill="#DC69AE"/>
<path d="M11.4219 21.5344H10.5754V22.3809H11.4219V21.5344Z" fill="#DC69AE"/>
<path d="M11.4219 19.8416H10.5754V20.688H11.4219V19.8416Z" fill="#DC69AE"/>
<path d="M11.4219 18.1484H10.5754V18.9949H11.4219V18.1484Z" fill="#DC69AE"/>
<path d="M14.8079 23.2273H13.9614V24.0737H14.8079V23.2273Z" fill="#DC69AE"/>
<path d="M14.8079 21.5344H13.9614V22.3809H14.8079V21.5344Z" fill="#DC69AE"/>
<path d="M14.8079 19.8416H13.9614V20.688H14.8079V19.8416Z" fill="#DC69AE"/>
<path d="M14.8079 18.1484H13.9614V18.9949H14.8079V18.1484Z" fill="#DC69AE"/>
<path d="M2.53395 12.2231H1.6875V13.0696H2.53395V12.2231Z" fill="#DC69AE"/>
<path d="M2.95778 13.9158H2.11133V14.7622H2.95778V13.9158Z" fill="#DC69AE"/>
<path d="M3.38063 15.6091H2.53418V16.4556H3.38063V15.6091Z" fill="#DC69AE"/>
<path d="M4.22633 17.3018H3.37988V18.1482H4.22633V17.3018Z" fill="#DC69AE"/>
<path d="M5.0735 18.9944H4.22705V19.8408H5.0735V18.9944Z" fill="#DC69AE"/>
<path d="M5.91896 20.6873H5.07251V21.5337H5.91896V20.6873Z" fill="#DC69AE"/>
<path d="M5.91896 22.3811H5.07251V23.2276H5.91896V22.3811Z" fill="#DC69AE"/>
<path d="M23.6958 12.2231H22.8494V13.0696H23.6958V12.2231Z" fill="#DC69AE"/>
<path d="M23.6958 13.9158H22.8494V14.7622H23.6958V13.9158Z" fill="#DC69AE"/>
<path d="M23.2715 15.6091H22.425V16.4556H23.2715V15.6091Z" fill="#DC69AE"/>
<path d="M22.4256 17.3018H21.5791V18.1482H22.4256V17.3018Z" fill="#DC69AE"/>
<path d="M21.5791 18.9944H20.7327V19.8408H21.5791V18.9944Z" fill="#DC69AE"/>
<path d="M20.7332 20.6875H19.8867V21.534H20.7332V20.6875Z" fill="#DC69AE"/>
<path d="M20.7332 22.3811H19.8867V23.2276H20.7332V22.3811Z" fill="#DC69AE"/>
</svg>
