<svg width="75" height="75" viewBox="0 0 75 75" fill="none" xmlns="http://www.w3.org/2000/svg">
<path d="M69.8336 21.8716H56.7505V19.1839H59.8398V16.0946H56.7505V13.0053H59.8398V9.91605H56.7505V7.9698C56.7505 6.7408 56.2623 5.56214 55.3933 4.69311C54.5242 3.82408 53.3456 3.33587 52.1166 3.33587H50.1549V0.246582H47.0656V3.33587H43.9763V0.246582H40.887V3.33587H37.7977V0.246582H34.7085V3.33587H31.6192V0.246582H28.5299V3.33587H25.4406V0.246582H22.3513V3.33587H19.262V0.246582H16.1727V3.33587H13.0835V0.246582H9.99417V3.33587H8.04792C6.81893 3.33587 5.64027 3.82408 4.77124 4.69311C3.90221 5.56214 3.41399 6.7408 3.41399 7.9698V9.91605H0.324707V13.0053H3.41399V16.0946H0.324707V19.1839H3.41399V22.2732H0.324707V25.3625H3.41399V28.4518H0.324707V31.541H3.41399V34.6303H0.324707V37.7196H3.41399V40.8089H0.324707V43.8982H3.41399V46.9875H0.324707V50.0768H3.41399V52.0385C3.41399 53.2675 3.90221 54.4461 4.77124 55.3151C5.64027 56.1842 6.81893 56.6724 8.04792 56.6724H9.99417V59.7617H13.0835V56.6724H16.1727V59.7617H19.262V56.6724H21.9497V69.7555C21.9497 70.9845 22.4379 72.1632 23.307 73.0322C24.176 73.9012 25.3546 74.3894 26.5836 74.3894H69.8336C71.0626 74.3894 72.2413 73.9012 73.1103 73.0322C73.9793 72.1632 74.4676 70.9845 74.4676 69.7555V26.5055C74.4676 25.2765 73.9793 24.0979 73.1103 23.2288C72.2413 22.3598 71.0626 21.8716 69.8336 21.8716ZM21.9497 26.5055V53.5831H19.262V50.4938H16.1727V53.5831H13.0835V50.4938H9.99417V53.5831H8.04792C7.63826 53.5831 7.24537 53.4204 6.95569 53.1307C6.66602 52.841 6.50328 52.4481 6.50328 52.0385V50.0768H9.59256V46.9875H6.50328V43.8982H9.59256V40.8089H6.50328V37.7196H9.59256V34.6303H6.50328V31.541H9.59256V28.4518H6.50328V25.3625H9.59256V22.2732H6.50328V19.1839H9.59256V16.0946H6.50328V13.0053H9.59256V9.91605H6.50328V7.9698C6.50328 7.56013 6.66602 7.16725 6.95569 6.87757C7.24537 6.58789 7.63826 6.42515 8.04792 6.42515H9.99417V9.51444H13.0835V6.42515H16.1727V9.51444H19.262V6.42515H22.3513V9.51444H25.4406V6.42515H28.5299V9.51444H31.6192V6.42515H34.7085V9.51444H37.7977V6.42515H40.887V9.51444H43.9763V6.42515H47.0656V9.51444H50.1549V6.42515H52.1166C52.5262 6.42515 52.9191 6.58789 53.2088 6.87757C53.4985 7.16725 53.6612 7.56013 53.6612 7.9698V9.91605H50.5719V13.0053H53.6612V16.0946H50.5719V19.1839H53.6612V21.8716H26.5836C25.3546 21.8716 24.176 22.3598 23.307 23.2288C22.4379 24.0979 21.9497 25.2765 21.9497 26.5055ZM71.3783 69.7555C71.3783 70.1652 71.2155 70.5581 70.9259 70.8477C70.6362 71.1374 70.2433 71.3002 69.8336 71.3002H26.5836C26.174 71.3002 25.7811 71.1374 25.4914 70.8477C25.2017 70.5581 25.039 70.1652 25.039 69.7555V26.5055C25.039 26.0958 25.2017 25.703 25.4914 25.4133C25.7811 25.1236 26.174 24.9609 26.5836 24.9609H69.8336C70.2433 24.9609 70.6362 25.1236 70.9259 25.4133C71.2155 25.703 71.3783 26.0958 71.3783 26.5055V69.7555Z" fill="#DC69AE"/>
<path d="M29.6733 59.6753H26.584V64.3092H29.6733V59.6753Z" fill="#DC69AE"/>
<path d="M29.6733 57.3984H26.584V62.0324H29.6733V57.3984Z" fill="#DC69AE"/>
<path d="M69.8339 59.6753H66.7446V64.3092H69.8339V59.6753Z" fill="#DC69AE"/>
<path d="M69.8339 57.3984H66.7446V62.0324H69.8339V57.3984Z" fill="#DC69AE"/>
<path d="M29.6733 65.1216H26.584V68.2109C26.584 68.6205 26.7467 69.0134 27.0364 69.3031C27.3261 69.5928 27.719 69.7555 28.1286 69.7555H31.2179V66.6662H29.6733V65.1216Z" fill="#DC69AE"/>
<path d="M38.9411 66.6665H34.3071V69.7558H38.9411V66.6665Z" fill="#DC69AE"/>
<path d="M46.6642 66.6665H42.0303V69.7558H46.6642V66.6665Z" fill="#DC69AE"/>
<path d="M54.3873 66.6665H49.7534V69.7558H54.3873V66.6665Z" fill="#DC69AE"/>
<path d="M62.1105 66.6665H57.4766V69.7558H62.1105V66.6665Z" fill="#DC69AE"/>
<path d="M66.7443 66.6662H65.1997V69.7555H68.289C68.6987 69.7555 69.0915 69.5928 69.3812 69.3031C69.6709 69.0134 69.8336 68.6205 69.8336 68.2109V65.1216H66.7443V66.6662Z" fill="#DC69AE"/>
</svg>
