<svg width="75" height="75" viewBox="0 0 75 75" fill="none" xmlns="http://www.w3.org/2000/svg">
<path d="M37.8454 0.246586C17.3993 0.237245 0.773928 16.8733 0.773926 37.318C0.773928 57.7627 17.4006 74.3894 37.8454 74.3894C58.2901 74.3894 74.9197 57.7631 74.9168 37.318C74.916 31.5528 73.5644 25.8689 70.9804 20.7179C70.8407 20.4182 70.6424 20.1495 70.3971 19.9278C70.1518 19.7061 69.8646 19.5359 69.5523 19.4272C69.2401 19.3186 68.9092 19.2736 68.5793 19.2951C68.2494 19.3166 67.9271 19.4041 67.6316 19.5524C67.3361 19.7006 67.0733 19.9065 66.8589 20.1581C66.6444 20.4097 66.4826 20.7019 66.383 21.0172C66.2834 21.3324 66.2481 21.6645 66.2791 21.9936C66.3102 22.3228 66.4069 22.6424 66.5637 22.9335C68.8038 27.3991 69.9732 32.3244 69.9739 37.318C69.9764 55.091 55.6187 69.4465 37.8454 69.4465C20.072 69.4465 5.71678 55.0914 5.71678 37.318C5.71678 19.5446 20.0733 5.18144 37.8454 5.18938C45.1005 5.1926 52.1396 7.66836 57.8171 12.1933C58.0705 12.3999 58.3624 12.5542 58.6758 12.6472C58.9893 12.7402 59.3181 12.7701 59.6431 12.7352C59.9682 12.7002 60.2831 12.6011 60.5696 12.4436C60.8561 12.2861 61.1086 12.0733 61.3123 11.8176C61.516 11.5618 61.6669 11.2682 61.7563 10.9537C61.8458 10.6392 61.8719 10.3102 61.8333 9.98551C61.7946 9.66085 61.6919 9.34704 61.5312 9.06234C61.3704 8.77764 61.1548 8.52766 60.8967 8.32689C54.3488 3.1083 46.2234 0.250322 37.8454 0.246586Z" fill="#DC69AE"/>
<path d="M37.8454 10.1323C22.859 10.1277 10.6597 22.3332 10.6597 37.3182C10.6597 52.3032 22.8604 64.5037 37.8454 64.5037C52.8304 64.5037 65.0406 52.3025 65.0311 37.3156C65.0292 34.3333 64.5184 31.382 63.554 28.5764C63.4556 28.2608 63.2948 27.9682 63.0812 27.7158C62.8676 27.4634 62.6056 27.2565 62.3107 27.1072C62.0157 26.9579 61.6938 26.8693 61.3639 26.8467C61.0341 26.824 60.7031 26.8678 60.3905 26.9754C60.0779 27.0829 59.79 27.252 59.5439 27.4728C59.2979 27.6936 59.0986 27.9614 58.9579 28.2605C58.8172 28.5597 58.7379 28.8842 58.7248 29.2145C58.7117 29.5448 58.7649 29.8743 58.8815 30.1837C59.6735 32.4879 60.0867 34.8996 60.0882 37.3205C60.0962 49.6322 50.159 59.5609 37.8454 59.5609C25.5317 59.5609 15.6025 49.6318 15.6025 37.3182C15.6025 25.0045 25.5331 15.0697 37.8454 15.0753C42.5182 15.0774 47.0712 16.5629 50.859 19.3085C51.1213 19.5061 51.4203 19.6494 51.7387 19.7301C52.057 19.8109 52.3882 19.8273 52.713 19.7786C53.0377 19.7299 53.3495 19.617 53.6301 19.4464C53.9107 19.2758 54.1545 19.0509 54.3473 18.785C54.54 18.5191 54.6779 18.2175 54.7527 17.8978C54.8276 17.578 54.838 17.2465 54.7833 16.9227C54.7287 16.5989 54.61 16.2893 54.4343 16.0118C54.2586 15.7344 54.0294 15.4949 53.76 15.307C49.1338 11.9537 43.5645 10.1349 37.8454 10.1323Z" fill="#DC69AE"/>
</svg>
