<svg width="28" height="53" viewBox="0 0 28 53" fill="none" xmlns="http://www.w3.org/2000/svg">
<path d="M8.96283 5.29727C8.96283 4.24957 9.27369 3.2254 9.8561 2.35427C10.4385 1.48314 11.2663 0.804171 12.2348 0.403233C13.2033 0.00229523 14.2691 -0.102608 15.2972 0.101788C16.3254 0.306184 17.2698 0.8107 18.0111 1.55154C18.7524 2.29237 19.2572 3.23626 19.4617 4.26383C19.6662 5.2914 19.5613 6.3565 19.1601 7.32445C18.7589 8.2924 18.0796 9.11972 17.2079 9.70179C16.3363 10.2839 15.3115 10.5945 14.2632 10.5945C13.5669 10.5953 12.8773 10.4588 12.2339 10.1929C11.5905 9.92697 11.0059 9.53681 10.5135 9.04475C10.0212 8.5527 9.63079 7.96842 9.3647 7.32538C9.09861 6.68233 8.96204 5.99314 8.96283 5.29727ZM27.5975 27.4268L22.8688 14.2788C22.6231 13.5842 22.1684 12.9825 21.567 12.5562C20.9657 12.13 20.2472 11.9001 19.51 11.898H9.01643C8.27921 11.9001 7.56068 12.13 6.95934 12.5562C6.358 12.9825 5.90329 13.5842 5.65755 14.2788L0.928912 27.4268C0.831911 27.7018 0.796446 27.9947 0.82502 28.2849C0.853593 28.5751 0.945508 28.8555 1.09429 29.1064C1.24306 29.3572 1.44508 29.5724 1.6861 29.7367C1.92712 29.9011 2.20128 30.0106 2.48924 30.0575C2.97371 30.1174 3.46382 30.0054 3.87413 29.7411C4.28443 29.4767 4.5889 29.0769 4.73445 28.6112L9.01643 17.5941C9.05962 17.4822 9.1356 17.386 9.23443 17.318C9.33326 17.2501 9.45032 17.2135 9.57029 17.2132H9.62389C9.72095 17.2125 9.81671 17.2355 9.90283 17.2803C9.98894 17.325 10.0628 17.3901 10.118 17.4699C10.1732 17.5497 10.208 17.6418 10.2195 17.7381C10.2309 17.8345 10.2186 17.9321 10.1837 18.0226L2.63217 37.9439C2.59846 38.0341 2.58713 38.1311 2.59917 38.2267C2.61122 38.3222 2.64626 38.4134 2.70131 38.4924C2.75636 38.5714 2.82976 38.6359 2.91522 38.6803C3.00068 38.7247 3.09565 38.7478 3.19199 38.7475H8.5519C8.70985 38.7475 8.86133 38.8102 8.97302 38.9218C9.08471 39.0334 9.14745 39.1848 9.14745 39.3426V50.8895C9.13476 51.369 9.28948 51.838 9.58507 52.216C9.88065 52.5939 10.2987 52.8573 10.7673 52.9608C11.0564 53.019 11.3547 53.0123 11.6409 52.9411C11.927 52.87 12.1937 52.7361 12.4217 52.5493C12.6497 52.3624 12.8332 52.1273 12.9591 51.8608C13.085 51.5943 13.15 51.3032 13.1495 51.0085V39.3307C13.1495 39.1729 13.2123 39.0215 13.324 38.9099C13.4356 38.7983 13.5871 38.7355 13.7451 38.7355H14.817C14.975 38.7355 15.1265 38.7983 15.2382 38.9099C15.3499 39.0215 15.4126 39.1729 15.4126 39.3307V50.8895C15.3999 51.369 15.5546 51.838 15.8502 52.216C16.1458 52.5939 16.5638 52.8573 17.0325 52.9608C17.3215 53.019 17.6199 53.0123 17.906 52.9411C18.1921 52.87 18.4588 52.7361 18.6868 52.5493C18.9148 52.3624 19.0984 52.1273 19.2243 51.8608C19.3501 51.5943 19.4152 51.3032 19.4147 51.0085V39.3367C19.4147 39.1788 19.4774 39.0275 19.5891 38.9158C19.7008 38.8042 19.8523 38.7415 20.0102 38.7415H25.3701C25.4665 38.7418 25.5614 38.7188 25.6469 38.6743C25.7324 38.6299 25.8058 38.5654 25.8608 38.4864C25.9159 38.4074 25.9509 38.3162 25.9629 38.2207C25.975 38.1252 25.9637 38.0282 25.9299 37.938L18.3486 18.0226C18.3137 17.9321 18.3014 17.8345 18.3129 17.7381C18.3243 17.6418 18.3591 17.5497 18.4143 17.4699C18.4695 17.3901 18.5434 17.325 18.6295 17.2803C18.7156 17.2355 18.8114 17.2125 18.9085 17.2132H18.9621C19.082 17.2135 19.1991 17.2501 19.2979 17.318C19.3967 17.386 19.4727 17.4822 19.5159 17.5941L23.7919 28.6112C23.9375 29.0769 24.242 29.4767 24.6523 29.7411C25.0626 30.0054 25.5527 30.1174 26.0371 30.0575C26.3251 30.0106 26.5993 29.9011 26.8403 29.7367C27.0813 29.5724 27.2833 29.3572 27.4321 29.1064C27.5809 28.8555 27.6728 28.5751 27.7014 28.2849C27.7299 27.9947 27.6945 27.7018 27.5975 27.4268Z" fill="#DC69AE"/>
</svg>
