<svg width="28" height="53" viewBox="0 0 28 53" fill="none" xmlns="http://www.w3.org/2000/svg">
<path d="M8.99213 5.29727C8.99213 4.24957 9.30299 3.2254 9.8854 2.35427C10.4678 1.48314 11.2956 0.804171 12.2641 0.403233C13.2326 0.00229523 14.2984 -0.102608 15.3265 0.101788C16.3547 0.306184 17.2991 0.8107 18.0404 1.55154C18.7817 2.29237 19.2865 3.23626 19.491 4.26383C19.6955 5.2914 19.5906 6.3565 19.1894 7.32445C18.7882 8.2924 18.1089 9.11972 17.2372 9.70179C16.3656 10.2839 15.3408 10.5945 14.2925 10.5945C13.5962 10.5953 12.9066 10.4588 12.2632 10.1929C11.6198 9.92697 11.0352 9.53681 10.5428 9.04475C10.0505 8.5527 9.66009 7.96842 9.394 7.32538C9.12791 6.68233 8.99134 5.99314 8.99213 5.29727ZM27.6268 27.4268L22.8981 14.2788C22.6524 13.5842 22.1977 12.9825 21.5963 12.5562C20.995 12.13 20.2765 11.9001 19.5393 11.898H9.04572C8.30851 11.9001 7.58997 12.13 6.98863 12.5562C6.38729 12.9825 5.93258 13.5842 5.68684 14.2788L0.958208 27.4268C0.861208 27.7018 0.825743 27.9947 0.854317 28.2849C0.88289 28.5751 0.974805 28.8555 1.12358 29.1064C1.27236 29.3572 1.47438 29.5724 1.7154 29.7367C1.95642 29.9011 2.23057 30.0106 2.51854 30.0575C3.00301 30.1174 3.49312 30.0054 3.90342 29.7411C4.31373 29.4767 4.6182 29.0769 4.76375 28.6112L9.04572 17.5941C9.08891 17.4822 9.1649 17.386 9.26373 17.318C9.36255 17.2501 9.47962 17.2135 9.59958 17.2132H9.65318C9.75024 17.2125 9.846 17.2355 9.93212 17.2803C10.0182 17.325 10.0921 17.3901 10.1473 17.4699C10.2025 17.5497 10.2373 17.6418 10.2488 17.7381C10.2602 17.8345 10.2479 17.9321 10.213 18.0226L2.66147 37.9439C2.62775 38.0341 2.61643 38.1311 2.62847 38.2267C2.64051 38.3222 2.67556 38.4134 2.73061 38.4924C2.78565 38.5714 2.85906 38.6359 2.94452 38.6803C3.02998 38.7247 3.12495 38.7478 3.22128 38.7475H8.5812C8.73915 38.7475 8.89063 38.8102 9.00232 38.9218C9.114 39.0334 9.17675 39.1848 9.17675 39.3426V50.8895C9.16405 51.369 9.31878 51.838 9.61436 52.216C9.90995 52.5939 10.328 52.8573 10.7966 52.9608C11.0857 53.019 11.384 53.0123 11.6701 52.9411C11.9563 52.87 12.223 52.7361 12.451 52.5493C12.679 52.3624 12.8625 52.1273 12.9884 51.8608C13.1143 51.5943 13.1793 51.3032 13.1788 51.0085V39.3307C13.1788 39.1729 13.2416 39.0215 13.3532 38.9099C13.4649 38.7983 13.6164 38.7355 13.7744 38.7355H14.8463C15.0043 38.7355 15.1558 38.7983 15.2675 38.9099C15.3791 39.0215 15.4419 39.1729 15.4419 39.3307V50.8895C15.4292 51.369 15.5839 51.838 15.8795 52.216C16.1751 52.5939 16.5931 52.8573 17.0618 52.9608C17.3508 53.019 17.6492 53.0123 17.9353 52.9411C18.2214 52.87 18.4881 52.7361 18.7161 52.5493C18.9441 52.3624 19.1277 52.1273 19.2536 51.8608C19.3794 51.5943 19.4445 51.3032 19.444 51.0085V39.3367C19.444 39.1788 19.5067 39.0275 19.6184 38.9158C19.7301 38.8042 19.8816 38.7415 20.0395 38.7415H25.3994C25.4958 38.7418 25.5907 38.7188 25.6762 38.6743C25.7617 38.6299 25.8351 38.5654 25.8901 38.4864C25.9451 38.4074 25.9802 38.3162 25.9922 38.2207C26.0043 38.1252 25.993 38.0282 25.9592 37.938L18.3779 18.0226C18.343 17.9321 18.3307 17.8345 18.3422 17.7381C18.3536 17.6418 18.3884 17.5497 18.4436 17.4699C18.4988 17.3901 18.5727 17.325 18.6588 17.2803C18.7449 17.2355 18.8407 17.2125 18.9377 17.2132H18.9913C19.1113 17.2135 19.2284 17.2501 19.3272 17.318C19.426 17.386 19.502 17.4822 19.5452 17.5941L23.8212 28.6112C23.9668 29.0769 24.2712 29.4767 24.6816 29.7411C25.0919 30.0054 25.582 30.1174 26.0664 30.0575C26.3544 30.0106 26.6286 29.9011 26.8696 29.7367C27.1106 29.5724 27.3126 29.3572 27.4614 29.1064C27.6102 28.8555 27.7021 28.5751 27.7307 28.2849C27.7592 27.9947 27.7238 27.7018 27.6268 27.4268Z" fill="white"/>
</svg>
