<svg width="15" height="53" viewBox="0 0 15 53" fill="none" xmlns="http://www.w3.org/2000/svg">
<path d="M-3.9776 5.29727C-3.9776 4.24957 -3.66674 3.2254 -3.08433 2.35427C-2.50192 1.48314 -1.67411 0.804171 -0.705599 0.403233C0.262916 0.00229523 1.32864 -0.102608 2.35681 0.101788C3.38498 0.306184 4.32942 0.8107 5.07068 1.55154C5.81195 2.29237 6.31676 3.23626 6.52128 4.26383C6.72579 5.2914 6.62083 6.3565 6.21966 7.32445C5.81849 8.2924 5.13913 9.11972 4.26749 9.70179C3.39585 10.2839 2.37107 10.5945 1.32276 10.5945C0.626489 10.5953 -0.0631027 10.4588 -0.706526 10.1929C-1.34995 9.92697 -1.93457 9.53681 -2.42691 9.04475C-2.91925 8.5527 -3.30964 7.96842 -3.57573 7.32538C-3.84182 6.68233 -3.97838 5.99314 -3.9776 5.29727ZM14.657 27.4268L9.9284 14.2788C9.68267 13.5842 9.22796 12.9825 8.62662 12.5562C8.02528 12.13 7.30675 11.9001 6.56952 11.898H-3.924C-4.66122 11.9001 -5.37975 12.13 -5.98109 12.5562C-6.58243 12.9825 -7.03714 13.5842 -7.28288 14.2788L-12.0115 27.4268C-12.1085 27.7018 -12.144 27.9947 -12.1154 28.2849C-12.0868 28.5751 -11.9949 28.8555 -11.8461 29.1064C-11.6974 29.3572 -11.4953 29.5724 -11.2543 29.7367C-11.0133 29.9011 -10.7392 30.0106 -10.4512 30.0575C-9.96672 30.1174 -9.47661 30.0054 -9.0663 29.7411C-8.656 29.4767 -8.35153 29.0769 -8.20598 28.6112L-3.924 17.5941C-3.88081 17.4822 -3.80483 17.386 -3.706 17.318C-3.60717 17.2501 -3.49011 17.2135 -3.37014 17.2132H-3.31654C-3.21948 17.2125 -3.12372 17.2355 -3.0376 17.2803C-2.95149 17.325 -2.87762 17.3901 -2.82243 17.4699C-2.76724 17.5497 -2.7324 17.6418 -2.72095 17.7381C-2.7095 17.8345 -2.72178 17.9321 -2.75673 18.0226L-10.3083 37.9439C-10.342 38.0341 -10.3533 38.1311 -10.3413 38.2267C-10.3292 38.3222 -10.2942 38.4134 -10.2391 38.4924C-10.1841 38.5714 -10.1107 38.6359 -10.0252 38.6803C-9.93975 38.7247 -9.84478 38.7478 -9.74844 38.7475H-4.38853C-4.23058 38.7475 -4.0791 38.8102 -3.96741 38.9218C-3.85572 39.0334 -3.79298 39.1848 -3.79298 39.3426V50.8895C-3.80567 51.369 -3.65095 51.838 -3.35536 52.216C-3.05978 52.5939 -2.64177 52.8573 -2.17309 52.9608C-1.88406 53.019 -1.58569 53.0123 -1.29958 52.9411C-1.01346 52.87 -0.746762 52.7361 -0.518768 52.5493C-0.290774 52.3624 -0.107192 52.1273 0.0186901 51.8608C0.144572 51.5943 0.209608 51.3032 0.209091 51.0085V39.3307C0.209091 39.1729 0.271836 39.0215 0.383523 38.9099C0.49521 38.7983 0.646689 38.7355 0.804638 38.7355H1.87662C2.03457 38.7355 2.18605 38.7983 2.29774 38.9099C2.40942 39.0215 2.47217 39.1729 2.47217 39.3307V50.8895C2.45948 51.369 2.6142 51.838 2.90978 52.216C3.20537 52.5939 3.62338 52.8573 4.09205 52.9608C4.38108 53.019 4.67945 53.0123 4.96557 52.9411C5.25168 52.87 5.51838 52.7361 5.74638 52.5493C5.97437 52.3624 6.15795 52.1273 6.28384 51.8608C6.40972 51.5943 6.47475 51.3032 6.47424 51.0085V39.3367C6.47424 39.1788 6.53698 39.0275 6.64867 38.9158C6.76036 38.8042 6.91183 38.7415 7.06978 38.7415H12.4297C12.526 38.7418 12.621 38.7188 12.7065 38.6743C12.7919 38.6299 12.8653 38.5654 12.9204 38.4864C12.9754 38.4074 13.0105 38.3162 13.0225 38.2207C13.0346 38.1252 13.0232 38.0282 12.9895 37.938L5.40821 18.0226C5.37326 17.9321 5.36098 17.8345 5.37243 17.7381C5.38388 17.6418 5.41872 17.5497 5.47391 17.4699C5.5291 17.3901 5.60297 17.325 5.68909 17.2803C5.7752 17.2355 5.87096 17.2125 5.96802 17.2132H6.02162C6.14159 17.2135 6.25865 17.2501 6.35748 17.318C6.45631 17.386 6.53229 17.4822 6.57548 17.5941L10.8515 28.6112C10.9971 29.0769 11.3015 29.4767 11.7118 29.7411C12.1221 30.0054 12.6122 30.1174 13.0967 30.0575C13.3847 30.0106 13.6588 29.9011 13.8999 29.7367C14.1409 29.5724 14.3429 29.3572 14.4917 29.1064C14.6404 28.8555 14.7324 28.5751 14.7609 28.2849C14.7895 27.9947 14.754 27.7018 14.657 27.4268Z" fill="white"/>
</svg>
