<svg width="81" height="81" viewBox="0 0 81 81" fill="none" xmlns="http://www.w3.org/2000/svg">
<path d="M40.6886 80.8831C37.3944 80.8831 34.6609 78.1496 34.6609 74.8554C34.6609 72.0518 36.6234 69.038 40.0578 66.4447C39.7074 66.0242 39.3569 65.5335 39.0765 65.113C37.6047 65.4635 35.9926 65.4635 34.2404 65.2532C32.7685 65.0429 31.2966 64.9027 29.8949 64.9728C30.1752 67.8465 30.1752 70.7903 28.7734 73.3135C27.1614 76.047 23.3064 77.0983 20.5029 75.4862C17.6292 73.8041 16.648 70.1594 18.3301 67.2157C19.7319 64.8326 22.8859 63.2206 27.2315 62.6599C27.1614 62.0992 27.0913 61.5385 27.0212 60.9777C25.5493 60.5572 24.0774 59.7161 22.7457 58.6648C21.5542 57.7536 20.3627 56.9125 19.1011 56.2117C17.9096 58.875 16.4377 61.4684 13.9145 62.8701C11.1109 64.4822 7.256 63.4309 5.71403 60.6273C4.03189 57.7536 5.01315 54.0389 7.9569 52.3567C10.3399 50.955 13.9846 51.1652 17.9096 52.8474C18.1199 52.3567 18.3301 51.796 18.5404 51.3054C17.489 50.184 16.648 48.7822 16.0172 47.1701C15.4565 45.7683 14.8257 44.4366 14.0547 43.2451C11.7417 44.9273 9.1484 46.3991 6.27474 46.3991C2.98054 46.3991 0.24707 43.7358 0.24707 40.3715C0.24707 37.0773 2.91045 34.3438 6.27474 34.3438C9.07831 34.3438 12.0922 36.3063 14.6855 39.7407C15.106 39.3902 15.5966 39.0398 16.0172 38.7594C15.6667 37.2875 15.6667 35.6054 15.877 33.9232C16.0873 32.4514 16.2275 30.9795 16.1574 29.5777C15.2462 29.6478 14.4051 29.7179 13.4939 29.7179C11.181 29.7179 9.35868 29.2974 7.81671 28.3862C6.41493 27.5451 5.43367 26.2835 5.01314 24.7415C4.5926 23.1996 4.80289 21.5875 5.64396 20.1857C7.18593 17.4522 11.0408 16.4009 13.8444 18.013C16.2975 19.4147 17.9096 22.6389 18.4002 26.9143C18.9609 26.8442 19.5216 26.7741 20.0823 26.7041C20.573 25.2322 21.344 23.8304 22.3953 22.4987C23.3765 21.3072 24.1475 20.1156 24.8484 18.854C22.185 17.6625 19.6618 16.1906 18.1899 13.6674C16.5078 10.7938 17.4891 7.07902 20.3627 5.46696C23.1663 3.85491 27.0212 4.90625 28.6333 7.63974C30.035 10.0929 29.8248 13.6674 28.1426 17.5924C28.7033 17.8027 29.194 18.013 29.6846 18.2933C30.806 17.242 32.2078 16.4009 33.8198 15.7701C35.2216 15.2094 36.4833 14.5786 37.7449 13.8777C36.0627 11.4946 34.5207 8.97144 34.5207 6.02769C34.5207 2.73349 37.2543 0 40.5485 0C43.9127 0 46.5761 2.73349 46.5761 6.02769C46.5761 8.83126 44.6136 11.8451 41.1792 14.4384C41.5297 14.929 41.8801 15.3496 42.1605 15.7701C43.6324 15.4897 45.2444 15.4197 46.9967 15.7C48.4686 15.9103 49.9404 16.0505 51.3422 15.9804C51.0618 13.1067 51.0619 10.0929 52.4636 7.56964C54.0757 4.83616 57.9306 3.78481 60.6641 5.39687C63.5378 7.07901 64.519 10.7237 62.8369 13.5973C61.4351 16.0505 58.281 17.6625 53.9355 18.1531C54.0056 18.7139 54.0757 19.2746 54.1458 19.7652C55.6176 20.2558 57.0895 21.0268 58.4212 22.0781C59.6128 22.9893 60.8043 23.8304 62.0659 24.5313C63.2574 21.8679 64.7293 19.3447 67.2525 17.8728C70.0561 16.2607 73.911 17.3121 75.523 20.0456C76.3641 21.4473 76.5744 23.0594 76.1538 24.6014C75.7333 26.1433 74.7521 27.475 73.3503 28.246C70.9672 29.6478 67.3226 29.4375 63.3976 27.7554C63.1873 28.3161 62.977 28.8067 62.6967 29.2973C63.748 30.4188 64.5891 31.8206 65.2199 33.4326C65.7806 34.8344 66.4114 36.1661 67.1824 37.3576C69.5654 35.6755 72.0886 34.2036 74.9623 34.2036C78.2565 34.2036 80.99 36.867 80.99 40.2313C80.99 43.5255 78.3266 46.259 74.9623 46.259C72.1587 46.259 69.1449 44.2965 66.5516 40.8621C66.061 41.2125 65.6404 41.563 65.2199 41.8433C65.5704 43.3152 65.5703 44.9974 65.29 46.6795C65.0797 48.1514 65.0096 49.6233 65.0096 51.025C65.9208 50.955 66.832 50.8849 67.7431 50.8849C69.986 50.8849 71.8784 51.3054 73.3503 52.2166C76.2239 53.8987 77.2052 57.5434 75.5931 60.4871C73.9811 63.2206 70.1262 64.2719 67.3927 62.73C64.9395 61.3282 63.3275 58.1041 62.8369 53.8286C62.2761 53.8987 61.7154 53.9688 61.1547 54.0389C60.6641 55.5108 59.8931 56.9125 58.8418 58.3143C57.9306 59.5059 57.0895 60.6974 56.3886 61.959C59.052 63.1505 61.5752 64.6224 63.0471 67.1456C64.7293 70.0193 63.748 73.734 60.8744 75.4162C58.0708 77.0282 54.2159 75.9769 52.6739 73.2434C51.2721 70.7903 51.4824 67.2157 53.1645 63.2206C52.6038 63.0103 52.1132 62.8001 51.6226 62.5898C50.5011 63.6411 49.0993 64.4822 47.4873 65.113C46.0855 65.6737 44.7538 66.3045 43.5623 67.0054C45.2444 69.3885 46.7163 71.9117 46.7163 74.8554C46.7163 78.2197 43.9828 80.8831 40.6886 80.8831ZM41.5297 68.4072C38.7261 70.5099 37.1141 72.8929 37.1141 74.9255C37.1141 76.888 38.7261 78.5001 40.6886 78.5001C42.7212 78.5001 44.3333 76.888 44.3333 74.9255C44.3333 72.6126 43.0016 70.4398 41.5297 68.4072ZM55.3373 64.2719C53.9355 67.496 53.7253 70.3697 54.7065 72.1219C55.6878 73.8041 57.9306 74.4349 59.6128 73.4536C61.2949 72.4724 61.9257 70.2295 60.9444 68.5474C59.8931 66.5148 57.6502 65.2532 55.3373 64.2719ZM27.4417 65.113C23.9373 65.5335 21.344 66.7951 20.3627 68.4773C19.3815 70.2295 19.9422 72.4023 21.6944 73.3835C23.3765 74.2947 25.6895 73.734 26.6708 72.0518C27.7922 70.1594 27.7922 67.6362 27.4417 65.113ZM42.0904 65.113C43.4922 64.2719 44.9641 63.571 46.5761 62.9402C47.5574 62.5197 48.4685 62.0291 49.2395 61.4684C48.3283 60.9076 47.4873 60.1367 46.9266 59.2255C45.8752 57.3331 46.506 54.9501 48.3284 53.8987C50.2208 52.8474 52.6739 53.5483 53.6552 55.3005C54.6364 56.9126 54.4261 58.875 53.1645 60.7675C53.4449 60.9076 53.7953 61.0478 54.0757 61.1179C54.8467 59.7161 55.8279 58.3143 56.8793 56.9826C57.5802 56.1416 58.0708 55.2304 58.4913 54.3893C57.1596 54.3193 56.1784 54.109 55.3373 53.6184C53.515 52.567 52.8842 50.1139 53.9355 48.2916C54.9868 46.4692 57.5101 45.8384 59.2623 46.8898C60.8744 47.8009 61.7154 49.6233 61.5753 51.8661C61.9257 51.8661 62.2761 51.796 62.5565 51.7259C62.4864 50.1139 62.6266 48.4317 62.9069 46.7496C63.0471 45.6982 63.1172 44.6469 62.977 43.6657C61.9958 44.1563 60.9444 44.5768 59.8931 44.5768C57.7203 44.5768 55.9681 42.8246 55.9681 40.6518C55.9681 38.4791 57.7203 36.7268 59.8931 36.7268C61.7855 36.7268 63.3976 37.8482 64.3788 39.8808C64.6592 39.6706 64.8694 39.4603 65.1498 39.25C64.3087 37.8483 63.5377 36.3764 62.9069 34.7643C62.4864 33.7831 61.9958 32.8719 61.4351 32.1009C60.8744 33.0121 60.1034 33.8532 59.1922 34.4139C57.3699 35.4652 54.9168 34.7643 53.8654 32.942C53.3748 32.0308 53.2346 30.9795 53.4449 29.9982C53.7252 29.017 54.3561 28.1759 55.2672 27.6152C56.8092 26.704 58.8418 26.9143 60.7342 28.1058C60.8744 27.8255 61.0145 27.475 61.0846 27.1947C59.6828 26.4237 58.281 25.4424 56.9493 24.3911C56.1083 23.7603 55.1971 23.1996 54.3561 22.779C54.3561 23.8304 54.1458 24.9518 53.5851 25.9331C52.5337 27.7554 50.0806 28.3862 48.2583 27.4049C46.3659 26.2835 45.7351 23.9005 46.8565 22.0781C47.7677 20.4661 49.59 19.625 51.8328 19.7652C51.7627 19.4848 51.7627 19.1344 51.6926 18.7839C50.1507 18.854 48.3984 18.7139 46.7163 18.4335C45.665 18.2933 44.6136 18.2232 43.6324 18.3634C44.123 19.2746 44.5436 20.3259 44.5436 21.4473C44.5436 23.6201 42.7913 25.3723 40.6185 25.3723C38.4458 25.3723 36.6935 23.6201 36.6935 21.4473C36.6935 19.5549 37.815 17.9429 39.8476 16.9616C39.6373 16.6813 39.427 16.4009 39.2868 16.1906C37.8851 17.0317 36.4132 17.8027 34.8011 18.4335C33.8199 18.854 32.9087 19.3447 32.1377 19.9054C33.0489 20.4661 33.89 21.167 34.4507 22.1482C35.502 24.0407 34.8712 26.4237 32.9788 27.475C32.348 27.8255 31.7172 28.0357 31.0163 28.0357C29.6145 28.0357 28.2828 27.2647 27.652 26.0732C26.7408 24.4612 26.881 22.4987 28.1426 20.6063C27.8623 20.4661 27.5118 20.3259 27.2315 20.2558C26.4605 21.6576 25.4792 23.0594 24.4279 24.3911C23.7971 25.2322 23.2364 26.1433 22.8159 26.9844C24.0775 27.0545 25.1288 27.2648 25.9699 27.7554C26.881 28.246 27.5118 29.0871 27.7922 30.1384C28.0725 31.1197 27.9324 32.2411 27.4417 33.0822C26.3904 34.9045 23.9373 35.6054 22.115 34.554C20.5029 33.6429 19.6618 31.8206 19.802 29.5777C19.4515 29.5777 19.1011 29.6478 18.8207 29.7179C18.8207 31.3299 18.7507 33.0121 18.4703 34.6942C18.3301 35.7456 18.3301 36.7969 18.4002 37.7782C19.3113 37.2875 20.4328 36.867 21.4841 36.867C23.6569 36.867 25.4091 38.6192 25.4091 40.792C25.4091 42.9648 23.6569 44.717 21.4841 44.717C19.5917 44.717 17.9797 43.5956 16.9984 41.563C16.718 41.7733 16.4377 41.9835 16.2274 42.1938C17.0685 43.5956 17.8395 45.0675 18.4703 46.6795C18.8908 47.6608 19.3814 48.5719 19.9422 49.3429C20.5029 48.4317 21.2739 47.5907 22.185 47.03C23.9373 45.9786 26.4605 46.6795 27.5118 48.4318C28.5631 50.3242 27.9324 52.7072 26.0399 53.8286C24.4279 54.7398 22.4654 54.5295 20.573 53.338C20.4328 53.6184 20.2926 53.9688 20.1524 54.2492C21.5542 55.0201 22.956 56.0014 24.2877 57.0527C25.1288 57.7536 26.0399 58.2442 26.9511 58.6648C27.0212 57.6134 27.1614 56.492 27.7221 55.5108C28.7734 53.7585 31.2266 53.0576 33.0489 54.109C34.8712 55.1603 35.5721 57.6134 34.5207 59.4358C33.6096 61.0478 31.7172 61.8188 29.5444 61.7487C29.5444 62.0992 29.6145 62.3795 29.6846 62.73C31.2967 62.73 32.9788 62.8001 34.6609 63.0804C35.7824 63.2206 36.7636 63.2206 37.7449 63.1505C37.2542 62.1693 36.8337 61.1179 36.8337 60.0666C36.8337 57.8938 38.5859 56.1416 40.7587 56.1416C42.9315 56.1416 44.6837 57.8938 44.6837 60.0666C44.6837 61.959 43.5623 63.5711 41.5297 64.5523C41.6699 64.5523 41.8802 64.8326 42.0904 65.113ZM40.6886 58.3143C39.8476 58.3143 39.2167 59.0152 39.2167 59.7862C39.2167 60.4871 39.4971 61.2581 40.1279 62.3094C41.4596 61.7487 42.2306 60.8376 42.2306 59.7862C42.2306 59.0152 41.5297 58.3143 40.6886 58.3143ZM65.2199 53.7585C65.6404 57.263 66.832 59.8563 68.5842 60.8376C70.2663 61.8188 72.5793 61.1179 73.4904 59.5059C74.4717 57.7536 73.8409 55.5809 72.1587 54.5996C71.0373 53.8987 69.5654 53.6184 67.7431 53.6184C66.9721 53.6184 66.061 53.6884 65.2199 53.7585ZM11.8118 53.9688C10.7605 53.9688 9.84932 54.1791 9.14843 54.5996C7.39619 55.5809 6.83546 57.8237 7.81671 59.5059C8.79796 61.188 11.0408 61.8188 12.723 60.8376C14.6855 59.7161 15.877 57.4733 16.9283 55.1603C15.106 54.3893 13.3538 53.9688 11.8118 53.9688ZM50.2908 55.721C50.0806 55.721 49.8002 55.7911 49.5199 55.9313C48.819 56.3518 48.5386 57.263 48.9592 57.9639C49.3096 58.5246 49.9404 59.0853 50.9917 59.646C51.8328 58.4545 52.1132 57.263 51.5525 56.4219C51.3422 56.0014 50.8516 55.721 50.2908 55.721ZM29.264 59.0853C30.3154 59.1554 31.6471 59.1554 32.348 57.9639C32.7685 57.263 32.4882 56.3518 31.7873 55.9313C31.0864 55.5108 30.1752 55.7911 29.7547 56.492C29.4042 57.0527 29.264 57.8938 29.264 59.0853ZM57.3699 48.642C56.8092 48.642 56.3185 48.9224 56.0382 49.413C55.6176 50.1139 55.898 51.025 56.5989 51.4456C57.1596 51.796 58.0708 51.9362 59.1922 51.9362C59.4025 50.4643 58.982 49.3429 58.0708 48.8523C57.8605 48.7121 57.6503 48.642 57.3699 48.642ZM21.5542 50.8849C22.7457 51.726 23.8672 52.0063 24.7783 51.4456C25.4792 51.025 25.7596 50.1139 25.3391 49.3429C24.9185 48.642 23.9372 48.4318 23.3064 48.7822C22.6756 49.2027 22.1149 49.8335 21.5542 50.8849ZM68.5842 39.7407C70.6869 42.5442 73.0699 44.1563 75.0324 44.1563C76.9949 44.1563 78.607 42.5442 78.607 40.5116C78.607 38.5491 76.9949 36.9371 75.0324 36.9371C72.7896 36.9371 70.6168 38.1987 68.5842 39.7407ZM6.34485 36.9371C4.38235 36.9371 2.7002 38.5491 2.7002 40.5116C2.7002 42.4741 4.31226 44.1563 6.34485 44.1563C8.58771 44.1563 10.7604 42.8947 12.793 41.3527C10.7604 38.5491 8.37744 36.9371 6.34485 36.9371ZM59.9632 39.0398C59.1221 39.0398 58.4212 39.7407 58.4212 40.5817C58.4212 41.4228 59.1221 42.0536 59.9632 42.0536C60.594 42.0536 61.4351 41.7732 62.4163 41.1424C61.8556 39.8107 60.9445 39.0398 59.9632 39.0398ZM18.9609 39.9509C19.5217 41.2826 20.4328 42.0536 21.4141 42.0536C22.2551 42.0536 22.956 41.4228 22.956 40.5817C22.956 39.7407 22.2551 39.0398 21.4141 39.0398C20.7833 39.0398 19.9422 39.3201 18.9609 39.9509ZM57.6502 29.3674C57.2998 29.3674 56.9494 29.4375 56.669 29.6478C56.3186 29.8581 56.1083 30.1384 55.9681 30.559C55.898 30.9795 55.898 31.4 56.1083 31.7505C56.5288 32.4514 57.44 32.7317 58.1409 32.3112C58.7016 31.9608 59.2623 31.3299 59.823 30.2786C59.052 29.6478 58.281 29.3674 57.6502 29.3674ZM22.185 29.1572C22.0449 30.6291 22.3953 31.7505 23.3064 32.2411C24.0073 32.6616 24.9886 32.3813 25.4091 31.6804C25.6194 31.3299 25.6194 30.9094 25.5493 30.559C25.4792 30.2085 25.1989 29.8581 24.8484 29.6478C24.1475 29.2273 23.3065 29.0871 22.185 29.1572ZM10.9707 19.7652C9.70913 19.7652 8.51761 20.4661 7.81671 21.5875C7.32609 22.4286 7.18591 23.4098 7.46627 24.321C7.67653 25.2322 8.30735 26.0031 9.14843 26.4938C10.3399 27.1947 11.7417 27.475 13.564 27.475C14.4051 27.475 15.2462 27.4049 16.0872 27.3349C15.6667 23.8304 14.4051 21.2371 12.723 20.2558C12.2323 19.9054 11.6015 19.7652 10.9707 19.7652ZM64.3788 25.863C67.6029 27.1947 70.4766 27.475 72.1587 26.4938C72.9998 26.0031 73.6306 25.2322 73.8409 24.321C74.1213 23.4098 73.9811 22.4286 73.4904 21.5875C72.5092 19.9755 70.1962 19.2746 68.5141 20.2558C66.6918 21.3773 65.4302 23.55 64.3788 25.863ZM51.4824 21.938C50.6413 21.938 49.59 22.1482 49.0292 23.0594C48.819 23.4098 48.7489 23.8304 48.8891 24.1808C48.9591 24.6014 49.2395 24.8817 49.59 25.092C50.2908 25.4424 51.2721 25.2322 51.6226 24.5313C51.973 23.9706 52.1132 23.1295 52.1132 21.938C51.9029 21.938 51.6926 21.938 51.4824 21.938ZM30.3855 21.3773C29.5444 22.5688 29.2641 23.6902 29.8248 24.5313C30.1051 25.0219 30.5957 25.3023 31.1565 25.3023C31.4368 25.3023 31.6471 25.2322 31.9275 25.092C32.6284 24.6714 32.9087 23.7603 32.4882 22.9893C31.9975 22.4987 31.3667 21.938 30.3855 21.3773ZM41.3194 18.7839C39.9877 19.3447 39.2167 20.2558 39.2167 21.2371C39.2167 22.0781 39.9177 22.779 40.6886 22.779C41.5297 22.779 42.2306 22.0781 42.2306 21.2371C42.2306 20.6063 41.8801 19.8353 41.3194 18.7839ZM23.5167 7.2192C22.8859 7.2192 22.2551 7.35938 21.6944 7.70983C19.9422 8.69108 19.3815 10.9339 20.3627 12.6161C21.4842 14.5786 23.6569 15.7701 25.9699 16.8214C27.3717 13.5973 27.5819 10.7237 26.6007 8.97143C26.0399 7.85 24.8484 7.2192 23.5167 7.2192ZM57.8605 7.2192C56.5989 7.2192 55.4074 7.92009 54.7766 9.04152C53.6552 11.004 53.6551 13.5272 53.9355 16.0505C57.44 15.6299 60.0333 14.3683 61.0146 12.6161C61.9958 10.8639 61.4351 8.69108 59.6828 7.70983C59.1221 7.35938 58.4913 7.2192 57.8605 7.2192ZM40.6886 2.59329C38.7261 2.59329 37.1141 4.20536 37.1141 6.23795C37.1141 8.48081 38.3757 10.6536 39.9176 12.7563C42.7212 10.6536 44.3333 8.27054 44.3333 6.23795C44.3333 4.20536 42.7212 2.59329 40.6886 2.59329Z" fill="#DC69AE"/>
</svg>
