<svg width="250" height="45" viewBox="0 0 250 45" fill="none" xmlns="http://www.w3.org/2000/svg">
<g clip-path="url(#clip0_52_2717)">
<path d="M7.76675 11.5918C8.63066 11.5977 9.49355 11.6546 10.3512 11.7623C11.2595 11.8649 12.1466 12.1152 12.9797 12.5038C13.7733 12.8748 14.4697 13.4369 15.0109 14.1433C15.5584 14.8557 15.8328 15.81 15.8341 17.0062C15.8254 17.951 15.4976 18.8628 14.9075 19.5835C14.2898 20.3765 13.3039 21.0103 11.9497 21.4848C12.7789 21.6086 13.5887 21.8452 14.3581 22.1886C14.9244 22.4438 15.4369 22.8115 15.8666 23.271C16.2358 23.6787 16.5061 24.1713 16.6553 24.7084C16.8082 25.2722 16.8836 25.8555 16.8793 26.4411C16.8793 27.5963 16.6241 28.54 16.1136 29.2722C15.6115 29.9983 14.9422 30.583 14.1666 30.9733C13.333 31.3905 12.4406 31.6675 11.5228 31.7941C10.5718 31.9367 9.61216 32.009 8.65121 32.0102H2.68017V15.3031C2.68017 14.378 2.55573 13.6305 2.30686 13.0609C2.05799 12.4912 1.48367 12.2077 0.583894 12.2104H0V11.5918H7.76675ZM8.21472 21.0268C8.80394 21.0269 9.39008 20.9388 9.95492 20.7651C10.5075 20.5986 11.0263 20.33 11.4864 19.9721C11.934 19.6223 12.3057 19.1793 12.5777 18.6715C12.8655 18.1121 13.0092 17.4852 12.995 16.8515C13.0146 16.1787 12.8378 15.5154 12.4877 14.9483C12.1527 14.4264 11.7149 13.9839 11.2031 13.6497C10.6703 13.3024 10.0845 13.051 9.47057 12.9062C8.47838 12.6541 7.44795 12.607 6.43815 12.7675C6.08103 12.8191 5.72696 12.8912 5.37757 12.9836V21.0268H8.21472ZM5.37757 22.2659V30.4935C5.84152 30.64 6.31582 30.7487 6.79615 30.8186C7.26586 30.8903 7.73995 30.9267 8.21472 30.9277C10.0283 30.9277 11.4277 30.5563 12.413 29.8135C13.3983 29.0707 13.8909 27.9981 13.8909 26.5958C13.8909 25.1935 13.413 24.1209 12.457 23.3781C11.5011 22.6353 10.087 22.2646 8.21472 22.2659H5.37757Z" fill="white"/>
<path d="M33.1901 11.5919C33.6228 11.5764 34.0542 11.6499 34.4593 11.808C34.7561 11.9297 35.022 12.1203 35.2366 12.3651C35.4231 12.5942 35.5543 12.8661 35.6194 13.1581C35.6883 13.4568 35.723 13.7629 35.7228 14.07V16.3877H35.1255C35.1255 15.1492 34.802 14.2465 34.1549 13.6795C33.5079 13.1125 32.5883 12.829 31.3963 12.829H25.8445V20.8722H33.9099V22.1113H25.8445V30.7731H31.0727C32.4269 30.7731 33.497 30.5153 34.2832 29.9999C35.0694 29.4844 35.6922 28.6074 36.1516 27.369L36.7489 27.5236L35.7037 30.4638C35.5585 30.9156 35.2816 31.3098 34.9111 31.5918C34.4839 31.8887 33.9758 32.0354 33.4619 32.0102H23.1528V15.3032C23.1528 14.378 23.0252 13.6306 22.77 13.0609C22.5147 12.4913 21.9404 12.2078 21.047 12.2104H20.4497V11.5919H33.1901Z" fill="white"/>
<path d="M45.3494 30.7733H55.9552V32.0104H42.6597V15.3034C42.6597 14.3782 42.5321 13.6308 42.2768 13.0611C42.0215 12.4914 41.4472 12.2079 40.5538 12.2106H39.9565V11.592H42.6367C43.0739 11.5825 43.5105 11.6292 43.9366 11.7308C44.278 11.8085 44.5825 12.0069 44.7981 12.2919C45.031 12.6305 45.1796 13.0234 45.2307 13.4358C45.3203 14.0552 45.3606 14.6811 45.3513 15.3073L45.3494 30.7733Z" fill="white"/>
<path d="M63.3331 30.7732H73.9389V32.0103H60.6453V15.3033C60.6708 14.5364 60.5404 13.7724 60.2624 13.0611C60.0135 12.4941 59.4392 12.2106 58.5394 12.2106H57.9421V11.592H60.6223C61.0588 11.5826 61.4948 11.6292 61.9203 11.7308C62.2609 11.8089 62.5648 12.0073 62.7798 12.2918C63.0134 12.6303 63.1627 13.0232 63.2144 13.4358C63.3023 14.0553 63.342 14.6812 63.3331 15.3073V30.7732Z" fill="white"/>
<path d="M95.8035 32.0102C95.4144 32.12 95.0122 32.1721 94.609 32.1648C94.2132 32.1587 93.8187 32.1176 93.4297 32.0419C92.9449 31.9446 92.4799 31.7615 92.0551 31.5007C91.534 31.1756 91.0693 30.7621 90.6806 30.2774C90.1787 29.6417 89.7898 28.9187 89.532 28.1422L88.7854 26.1319H80.4194L78.0303 32.0102H76.6902L85.0561 11.5898H85.9559L92.5184 28.1521C92.7584 28.731 92.9824 29.2214 93.1904 29.6232C93.3704 29.9861 93.6079 30.3151 93.893 30.5966C94.1361 30.8344 94.4198 31.0233 94.7296 31.1537C95.0743 31.2889 95.436 31.3723 95.8035 31.4015V32.0102ZM80.8712 24.8948H88.19L84.6024 15.9237L80.8712 24.8948Z" fill="white"/>
<path d="M168.776 27.6785C169.273 26.4889 169.686 25.5095 170.014 24.7403C170.342 23.9711 170.612 23.3314 170.822 22.8212C171.03 22.3057 171.204 21.8729 171.345 21.5226C171.485 21.1717 171.622 20.8268 171.762 20.4858C171.902 20.1448 172.051 19.7701 172.21 19.3577C172.369 18.9453 172.593 18.408 172.853 17.7478C173.114 17.0877 173.454 16.2689 173.855 15.2895C174.255 14.3101 174.751 13.077 175.348 11.592H176.782L168.207 32.3157H167.669L160.739 15.2082C160.5 14.6313 160.276 14.1396 160.067 13.7371C159.886 13.375 159.649 13.0461 159.364 12.7637C159.121 12.5259 158.838 12.337 158.528 12.2066C158.183 12.0724 157.821 11.989 157.454 11.9588V11.3442C157.532 11.3442 157.687 11.3442 157.917 11.3125C158.147 11.2808 158.329 11.2827 158.468 11.2827C158.879 11.2882 159.289 11.3293 159.694 11.4057C160.182 11.4999 160.652 11.6781 161.084 11.933C161.6 12.2434 162.064 12.6399 162.456 13.1067C162.97 13.7337 163.379 14.4454 163.666 15.2122L168.776 27.6785Z" fill="white"/>
<path d="M185.174 30.7733H195.78V32.0104H182.485V15.3034C182.485 14.3782 182.357 13.6308 182.102 13.0611C181.846 12.4914 181.272 12.2079 180.379 12.2106H179.781V11.592H182.462C182.899 11.5825 183.335 11.6292 183.762 11.7308C184.102 11.809 184.406 12.0073 184.621 12.2919C184.854 12.6305 185.003 13.0234 185.054 13.4358C185.143 14.0552 185.184 14.6811 185.174 15.3073V30.7733Z" fill="white"/>
<path d="M217.647 32.0102C217.258 32.12 216.856 32.1721 216.452 32.1648C216.057 32.1587 215.662 32.1176 215.273 32.0419C214.788 31.9446 214.323 31.7615 213.899 31.5007C213.377 31.1756 212.913 30.7621 212.524 30.2774C212.021 29.6422 211.632 28.9191 211.375 28.1422L210.629 26.1319H202.265L199.864 32.0102H198.524L206.888 11.5898H207.786L214.362 28.1521C214.602 28.731 214.826 29.2214 215.034 29.6232C215.214 29.9855 215.451 30.3145 215.734 30.5966C215.978 30.834 216.261 31.0228 216.571 31.1537C216.916 31.2888 217.279 31.3723 217.647 31.4015V32.0102ZM202.715 24.8948H210.033L206.448 15.9237L202.715 24.8948Z" fill="white"/>
<path d="M227.027 11.5918C228.999 11.5918 230.722 11.829 232.196 12.3035C233.536 12.7038 234.782 13.3884 235.854 14.3138C236.816 15.1744 237.564 16.2625 238.035 17.4859C238.539 18.8206 238.788 20.244 238.768 21.6771C238.782 23.0977 238.544 24.509 238.065 25.8404C237.618 27.0759 236.908 28.1913 235.988 29.1037C235.005 30.0545 233.84 30.7818 232.569 31.2389C231.205 31.7544 229.616 32.0121 227.804 32.0121H221.888V15.3031C221.888 14.378 221.761 13.6305 221.506 13.0609C221.25 12.4912 220.676 12.2077 219.783 12.2104H219.199V11.5918H227.027ZM224.729 30.5252C225.723 30.7687 226.739 30.9016 227.76 30.9217C228.812 30.9297 229.855 30.7138 230.823 30.2873C231.764 29.8721 232.605 29.2489 233.289 28.4614C234.008 27.6213 234.563 26.6442 234.922 25.5847C235.333 24.3677 235.535 23.0853 235.517 21.796C235.534 20.528 235.339 19.2665 234.943 18.0668C234.59 17.0028 234.04 16.0202 233.323 15.1743C232.635 14.3739 231.786 13.7403 230.834 13.3186C229.845 12.8784 228.778 12.6569 227.701 12.6683C227.228 12.6719 226.756 12.713 226.29 12.7912C225.762 12.8802 225.241 13.0047 224.729 13.164V30.5252Z" fill="white"/>
<path d="M244.621 11.5918H247.302V28.2968C247.302 29.2267 247.424 29.9741 247.684 30.5411C247.945 31.1081 248.506 31.3916 249.407 31.3916H250.005V32.0102H247.324C246.887 32.0196 246.451 31.973 246.025 31.8714C245.693 31.7893 245.398 31.5928 245.188 31.3143C244.956 30.9801 244.808 30.592 244.755 30.1842C244.665 29.5597 244.624 28.9283 244.635 28.2968L244.621 11.5918Z" fill="white"/>
<path d="M126.692 0C122.469 0.000392104 118.34 1.29777 114.829 3.72808C111.317 6.15839 108.58 9.61247 106.964 13.6536C105.348 17.6947 104.925 22.1413 105.75 26.4311C106.574 30.7209 108.608 34.6613 111.595 37.754C114.581 40.8467 118.386 42.9528 122.529 43.806C126.671 44.6591 130.965 44.2211 134.867 42.5471C138.769 40.8732 142.104 38.0386 144.451 34.4018C146.797 30.765 148.049 26.4893 148.049 22.1154C148.043 16.2516 145.791 10.6298 141.787 6.4837C137.783 2.33757 132.355 0.0057727 126.692 0ZM126.692 41.4036C123.009 41.4036 119.408 40.2724 116.345 38.153C113.282 36.0336 110.895 33.0211 109.485 29.4967C108.075 25.9722 107.706 22.094 108.425 18.3524C109.144 14.6109 110.918 11.174 113.522 8.47652C116.127 5.77901 119.446 3.94198 123.059 3.19774C126.672 2.4535 130.417 2.83547 133.82 4.29535C137.223 5.75524 140.132 8.22746 142.179 11.3994C144.225 14.5713 145.318 18.3005 145.318 22.1154C145.312 27.2292 143.348 32.1319 139.856 35.7479C136.365 39.3639 131.63 41.3979 126.692 41.4036Z" fill="white"/>
<path d="M118.679 33.2385H118.795L118.679 33.1226V33.2385Z" fill="white"/>
<path d="M130.021 10.5073C129.615 10.4201 129.205 10.3625 128.792 10.3349L123.148 10.3091L128.286 10.3329C128.868 10.3313 129.45 10.3897 130.021 10.5073Z" fill="white"/>
<path d="M130.621 10.6523C130.774 10.6979 130.931 10.7475 131.088 10.807C130.931 10.7475 130.774 10.7059 130.621 10.6523Z" fill="white"/>
<path d="M127.547 22.9699C127.568 22.9441 127.59 22.9203 127.611 22.8945C127.59 22.9203 127.568 22.9461 127.547 22.9699Z" fill="white"/>
<path d="M130.087 10.5073C130.229 10.539 130.375 10.5747 130.522 10.6164C130.371 10.5807 130.229 10.545 130.087 10.5073Z" fill="white"/>
<path d="M127.274 23.3682L120.985 30.4617L127.272 23.3682H127.274Z" fill="white"/>
<path opacity="0.32" d="M127.548 23.0454C127.456 23.1545 127.357 23.2635 127.273 23.3686C127.37 23.2595 127.458 23.1505 127.548 23.0454Z" fill="white"/>
<path opacity="0.32" d="M128.054 22.4027C128.131 22.2957 128.206 22.1866 128.281 22.0796C128.206 22.1847 128.131 22.2937 128.054 22.4027Z" fill="white"/>
<path opacity="0.32" d="M130.047 10.5073H130.022L130.059 10.5152L130.047 10.5073Z" fill="white"/>
<path d="M133.776 15.1743C133.681 14.3013 133.382 13.4655 132.905 12.7397C132.327 11.8515 131.492 11.175 130.521 10.8067C130.362 10.7472 130.207 10.6977 130.054 10.6521L129.956 10.6223C129.809 10.5807 129.664 10.545 129.522 10.5133H129.508L129.455 10.5014C129.378 10.4855 129.3 10.4736 129.221 10.4598C129.143 10.4459 129.116 10.4379 129.062 10.43C128.965 10.4142 128.871 10.4023 128.77 10.3923L128.618 10.3725C128.549 10.3725 128.482 10.3606 128.415 10.3567L128.166 10.3388C128.119 10.3388 128.069 10.3388 128.021 10.3388C127.933 10.3388 127.843 10.3388 127.755 10.3388H127.72L122.582 10.3091H122.117L122.096 11.9903L125.659 12.0061C126.752 12.0993 128.777 12.5692 129.562 14.7123C129.596 14.8036 129.625 14.8969 129.648 14.9919C129.805 15.5866 130.031 17.0736 129.227 19.1295C129.191 19.2326 129.15 19.3277 129.11 19.4368C129.07 19.5458 129.051 19.6013 129.018 19.6826C128.969 19.8075 128.913 19.9284 128.858 20.0514C128.858 20.0514 128.699 20.3368 128.442 20.7671C127.627 22.1265 126.69 23.4036 125.643 24.5815L120.415 30.4618L120.015 30.9098V15.9098C120.022 15.4627 119.994 15.0157 119.929 14.5736C119.896 14.3442 119.824 14.1227 119.716 13.9193C119.688 13.8682 119.657 13.8192 119.622 13.7726C119.474 13.5751 119.266 13.4353 119.031 13.3761C118.731 13.3068 118.425 13.2755 118.118 13.2829H116.203V13.7191H116.626C117.265 13.7191 117.67 13.9173 117.842 14.3138C117.917 14.4922 117.972 14.6783 118.009 14.869C118.077 15.2087 118.11 15.5549 118.106 15.9019V33.3484H119.841L131.251 21.3321L131.633 20.9177C131.693 20.8543 131.915 20.5827 131.984 20.4974V20.4855L132.16 20.2694C132.166 20.26 132.173 20.2513 132.181 20.2437L132.346 20.0454C132.66 19.6549 132.934 19.2317 133.163 18.7825C133.721 17.6736 133.935 16.4136 133.776 15.1743Z" fill="white"/>
<path d="M138.505 25.6564C138.505 25.5533 138.494 25.4581 138.484 25.3511C138.457 25.0017 138.404 24.6551 138.325 24.3142C138.214 23.8097 138.037 23.323 137.801 22.8669L137.745 22.7638L137.694 22.6766C136.652 20.9181 134.87 20.357 134.024 20.1865L132.094 22.2504C133 22.8497 133.694 23.7367 134.073 24.7786C134.451 25.8204 134.494 26.9613 134.194 28.0304C133.895 29.0996 133.269 30.0396 132.411 30.7098C131.553 31.3801 130.508 31.7446 129.433 31.7488H125.604H123.18L121.615 33.4181H129.892C132.343 33.4181 134.223 32.7757 135.695 31.61C137.1 30.4958 137.992 29.1199 138.346 27.518C138.461 27.0039 138.517 26.4775 138.513 25.9498L138.505 25.6564Z" fill="white"/>
</g>
<defs>
<clipPath id="clip0_52_2717">
<rect width="250" height="44.2308" fill="white"/>
</clipPath>
</defs>
</svg>
