<svg width="73" height="106" viewBox="0 0 73 106" fill="none" xmlns="http://www.w3.org/2000/svg">
<path d="M17.5076 36.8184L18.2113 34.0033L18.9151 36.8184V76.9335H17.5076V36.8184Z" fill="#DC69AE"/>
<path d="M10.4696 53.7089L9.76586 54.4126V43.1523L9.06208 40.3372L8.35831 43.1523V55.1164H7.65453V43.1523L6.95076 40.3372L6.24699 43.1523V54.4126L5.54321 53.7089V72.007H10.4696V53.7089Z" fill="#DC69AE"/>
<path d="M16.0997 48.0786L15.396 50.8937L14.6922 48.7824L13.9884 51.5975L13.2846 49.4862L12.5809 52.3013L11.8771 50.1899L11.1733 53.005V72.7107H4.83936V73.4145H5.54313V76.9333H10.4695V73.4145H11.1733V76.9333H12.5809V69.8956H15.396V76.9333H16.8035V50.8937L16.0997 48.0786ZM15.396 66.3767H12.5809V62.8579C12.5809 62.0837 13.9884 60.7465 13.9884 60.7465C13.9884 60.7465 15.396 62.0837 15.396 62.8579V66.3767Z" fill="#DC69AE"/>
<path d="M55.5113 36.8184L54.8075 34.0033L54.1038 36.8184V76.9335H55.5113V36.8184Z" fill="#DC69AE"/>
<path d="M61.8455 72.7107V53.005L61.1417 50.1899L60.438 52.3013L59.7342 49.4862L59.0304 51.5975L58.3267 48.7824L57.6229 50.8937L56.9191 48.0786L56.2153 50.8937V76.9333H57.6229V69.8956H60.438V76.9333H61.8455V73.4145H62.5493V76.9333H67.4757V73.4145H68.1795V72.7107H61.8455ZM60.438 66.3767H57.6229V62.8579C57.6229 62.0837 59.0304 60.7465 59.0304 60.7465C59.0304 60.7465 60.438 62.0837 60.438 62.8579V66.3767Z" fill="#DC69AE"/>
<path d="M67.4755 53.7089L66.7717 54.4126V43.1523L66.0679 40.3372L65.3642 43.1523V55.1164H64.6604V43.1523L63.9566 40.3372L63.2528 43.1523V54.4126L62.5491 53.7089V72.007H67.4755V53.7089Z" fill="#DC69AE"/>
<path d="M30.8789 53.7089L29.4714 55.1164H27.3601L25.9525 53.7089V72.007H30.8789V53.7089Z" fill="#DC69AE"/>
<path d="M30.8789 41.041L30.1752 41.7448V27.6693L29.4714 24.8542L28.7676 27.6693V42.4486H28.0638V27.6693L27.3601 24.8542L26.6563 27.6693V41.7448L25.9525 41.041V53.0052H30.8789V41.041Z" fill="#DC69AE"/>
<path d="M47.0658 53.7089L45.6583 55.1164H43.547L42.1394 53.7089V72.007H47.0658V53.7089Z" fill="#DC69AE"/>
<path d="M47.0658 41.041L46.362 41.7448V27.6693L45.6583 24.8542L44.9545 27.6693V42.4486H44.2507V27.6693L43.547 24.8542L42.8432 27.6693V41.7448L42.1394 41.041V53.0052H47.0658V41.041Z" fill="#DC69AE"/>
<path d="M52.6955 43.8561L51.9918 45.9674L51.288 43.1523L50.5842 45.2636L49.8804 42.4485L49.1767 44.5599L48.4729 41.7448L47.7691 44.5599V72.7108H41.4352V35.4108L40.7314 32.5957L40.0276 34.707L39.3238 31.8919L38.6201 34.0032L37.9163 31.1881L37.2829 33.6514L36.5087 30.4844L35.7346 33.6514L35.1012 31.1881L34.3974 34.0032L33.6936 31.8919L32.9899 34.707L32.2861 32.5957L31.5823 35.4108V72.7108H25.2484V44.5599L24.5446 41.7448L23.8408 44.5599L23.137 42.4485L22.4333 45.2636L21.7295 43.1523L21.0257 45.9674L20.3219 43.8561L19.6182 46.6712V76.9334H21.0257V69.8957H23.8408V76.9334H25.2484V73.4146H25.9521V76.9334H30.8785V73.4146H31.5823V76.9334H33.6936V65.6731H39.3238V76.9334H41.4352V73.4146H42.1389V76.9334H47.0653V73.4146H47.7691V76.9334H49.1767V69.8957H51.9918V76.9334H53.3993V46.6712L52.6955 43.8561ZM23.8408 66.3768H21.0257V62.858C21.0257 62.0838 22.4333 60.7466 22.4333 60.7466C22.4333 60.7466 23.8408 62.0838 23.8408 62.858V66.3768ZM23.8408 58.6353H21.0257V53.0051C21.0257 52.231 22.4333 50.8938 22.4333 50.8938C22.4333 50.8938 23.8408 52.231 23.8408 53.0051V58.6353ZM37.9163 58.6353H35.1012V53.0051C35.1012 52.231 36.5087 50.8938 36.5087 50.8938C36.5087 50.8938 37.9163 52.231 37.9163 53.0051V58.6353ZM38.6201 49.4863H34.3974V42.8708C34.3974 41.9559 36.5087 40.3372 36.5087 40.3372C36.5087 40.3372 38.6201 41.9559 38.6201 42.8708V49.4863ZM51.9918 66.3768H49.1767V62.858C49.1767 62.0838 50.5842 60.7466 50.5842 60.7466C50.5842 60.7466 51.9918 62.0838 51.9918 62.858V66.3768ZM51.9918 58.6353H49.1767V53.0051C49.1767 52.231 50.5842 50.8938 50.5842 50.8938C50.5842 50.8938 51.9918 52.231 51.9918 53.0051V58.6353Z" fill="#DC69AE"/>
<path d="M1.58344 14.6785L1.31031 14.2435L4.13758 12.4682L10.8462 17.5601L8.99086 9.42059L11.8754 7.60931L12.1485 8.04427L11.2786 8.59053C10.9657 8.78699 10.9099 9.04548 11.1111 9.36598L15.3159 16.0621C15.4884 16.3369 15.7693 16.352 16.1584 16.1076L16.9139 15.6333L17.187 16.0682L13.3181 18.4976L13.045 18.0627L13.8692 17.5452C14.0141 17.4541 14.1109 17.3455 14.1593 17.2193C14.2106 17.0807 14.1955 16.9466 14.114 16.8168L9.6002 9.62848L11.8415 19.4248L11.4524 19.6692L3.4178 13.5585L7.27756 19.7053C7.61298 20.2394 7.95222 20.5424 8.29526 20.6143C8.63831 20.6862 9.05783 20.5664 9.55385 20.2549L9.82698 20.6899L6.62197 22.7024L6.34884 22.2674C6.83723 21.9608 7.12214 21.6435 7.20359 21.3158C7.28504 20.988 7.16764 20.5723 6.85138 20.0686L3.18569 14.2309C3.01797 13.9639 2.76624 13.9357 2.43048 14.1466L1.58344 14.6785Z" fill="#DC69AE"/>
<path d="M18.5134 13.9247L19.1754 4.81514L19.6003 4.67924L25.8086 12.2864C26.0499 12.5971 26.3851 12.6838 26.8142 12.5465L27.1103 12.4518L27.2668 12.941L23.4691 14.1559L23.3126 13.6667L23.6215 13.5679C24.291 13.3537 24.5831 13.1136 24.498 12.8476C24.4733 12.7703 24.4314 12.6986 24.3724 12.6323L22.9364 10.8495L19.1644 12.0561L19.1015 13.3676C19.0901 13.5983 19.0884 13.7408 19.0963 13.795C19.1031 13.9347 19.1272 14.069 19.1683 14.1977C19.2287 14.3865 19.3853 14.5209 19.6379 14.601C19.8992 14.6782 20.2057 14.6606 20.5576 14.548L20.8794 14.445L21.0359 14.9342L17.5858 16.0379L17.4293 15.5487L17.5323 15.5158C18.1245 15.3263 18.4515 14.796 18.5134 13.9247ZM22.5868 10.422L19.5712 6.71785L19.2268 11.4969L22.5868 10.422Z" fill="#DC69AE"/>
<path d="M26.7932 3.46215L26.748 2.95056L31.8908 2.49571C32.5012 2.44173 33.0236 2.46789 33.4581 2.57418C33.8919 2.6715 34.342 2.90306 34.8086 3.26885C35.8979 4.13132 36.5164 5.39726 36.6641 7.06667C36.7895 8.48477 36.5538 9.65441 35.9568 10.5756C35.3688 11.4959 34.4803 12.0856 33.2911 12.3446C33.158 12.3744 32.9797 12.4038 32.7561 12.4326C32.5415 12.4606 32.3669 12.4806 32.2323 12.4925L27.6279 12.8997L27.5827 12.3881L28.5251 12.3048C28.9559 12.2666 29.1574 12.0905 29.1296 11.7764L28.4212 3.76592C28.395 3.46974 28.1934 3.33832 27.8164 3.37166L26.7932 3.46215ZM31.5457 3.04183L30.4148 3.14185C30.0109 3.17757 29.8232 3.35699 29.8518 3.6801L30.5555 11.6367C30.5841 11.9598 30.8452 12.0996 31.3388 12.0559L32.187 11.9809C33.3269 11.8801 34.122 11.4615 34.5725 10.7251C35.0222 9.97982 35.1811 8.86221 35.0494 7.3723C34.9097 5.79265 34.5555 4.65257 33.987 3.95207C33.4185 3.25158 32.6047 2.94816 31.5457 3.04183Z" fill="#DC69AE"/>
<path d="M38.7612 2.71287L38.8207 2.20277L46.6736 3.11994L46.4846 6.48598L46.0282 6.43267C45.9652 5.41841 45.7764 4.66612 45.4618 4.17581C45.1471 3.68549 44.6587 3.40166 43.9964 3.32432L42.05 3.09698C41.7278 3.05936 41.5474 3.2061 41.5087 3.53722L41.0964 7.06768L41.9555 7.16802C42.4477 7.2255 42.8519 7.10489 43.168 6.80617C43.4841 6.50745 43.6808 6.02697 43.7581 5.36473L44.2279 5.41961L43.6902 10.024L43.2204 9.96909C43.3855 8.55512 42.9222 7.78437 41.8304 7.65686L41.0384 7.56436L40.579 11.4975C40.5445 11.7928 40.7376 11.9651 41.1582 12.0142L42.7019 12.1945C44.3754 12.3899 45.4568 11.4413 45.9462 9.34857L46.4294 9.40501L45.8372 13.0777L37.6621 12.1229L37.7217 11.6128L38.3929 11.6912C38.8761 11.7477 39.1387 11.5969 39.1805 11.2389L40.0992 3.3726C40.1379 3.04148 39.9603 2.85293 39.5666 2.80694L38.7612 2.71287Z" fill="#DC69AE"/>
<path d="M55.3237 6.03889L55.5159 5.56258L59.7901 7.28721L59.598 7.76352L58.871 7.47018C58.5367 7.33531 58.3109 7.2928 58.1937 7.34264C58.0881 7.38751 57.9831 7.53946 57.8785 7.7985L55.0463 14.8178C54.9654 15.0183 54.9248 15.1671 54.9245 15.2642C54.9273 15.4499 55.0958 15.6102 55.43 15.7451L56.2448 16.0739L56.0526 16.5502L51.7784 14.8255L51.9705 14.3492L52.7853 14.678C53.0694 14.7926 53.2701 14.825 53.3874 14.7752C53.5047 14.7253 53.6189 14.5625 53.7302 14.2867L56.5624 7.26746C56.667 7.00841 56.6951 6.83029 56.6469 6.7331C56.5837 6.60072 56.385 6.46709 56.0507 6.33223L55.3237 6.03889Z" fill="#DC69AE"/>
<path d="M61.5338 8.46747L61.8052 8.03143L63.8477 9.30265L64.8118 19.1361L67.8113 14.3167C68.397 13.3757 68.2728 12.6458 67.439 12.1268L67.7033 11.7023L70.6867 13.5591L70.4153 13.9951L70.3006 13.9237C69.9487 13.7047 69.6019 13.6481 69.2601 13.7538C68.9184 13.8595 68.6214 14.115 68.369 14.5205L64.1697 21.2677L63.6304 20.932L62.6426 10.7018L59.4646 15.8081C58.8885 16.7337 59.0785 17.4941 60.0348 18.0892L59.7634 18.5253L56.5275 16.5113L56.7989 16.0753C57.189 16.3181 57.5827 16.3933 57.9798 16.3008C58.377 16.2084 58.697 15.9671 58.9398 15.577L62.5178 9.82808C62.433 9.43569 62.3891 9.23329 62.3862 9.22088C62.3152 9.02808 62.1611 8.85788 61.924 8.71029L61.5338 8.46747Z" fill="#DC69AE"/>
<path d="M14.2226 83.8701L14.4856 83.4289L17.3529 85.1389L15.8709 93.4297L22.275 88.0741L25.2004 89.8186L24.9373 90.2598L24.0551 89.7336C23.7378 89.5444 23.4822 89.6123 23.2883 89.9374L19.2385 96.7284C19.0724 97.007 19.1867 97.264 19.5814 97.4994L20.3475 97.9563L20.0845 98.3974L16.1608 96.0575L16.4238 95.6164L17.2596 96.1148C17.4067 96.2025 17.5474 96.2392 17.6818 96.225C17.8286 96.2076 17.9412 96.1331 18.0196 96.0015L22.3671 88.7113L14.6633 95.1645L14.2686 94.9291L16.0545 84.994L12.337 91.2278C12.0139 91.7696 11.8984 92.2095 11.9905 92.5477C12.0826 92.8859 12.3802 93.205 12.8832 93.505L12.6201 93.9461L9.36972 92.0077L9.63278 91.5666C10.1281 91.862 10.5402 91.9713 10.8692 91.8947C11.1981 91.8181 11.5149 91.5244 11.8195 91.0137L15.3501 85.0933C15.5116 84.8224 15.4221 84.5854 15.0816 84.3824L14.2226 83.8701Z" fill="#DC69AE"/>
<path d="M26.9296 90.3891L27.0433 89.8882L31.5379 90.9091L31.4241 91.4099L30.6596 91.2363C30.3082 91.1565 30.0785 91.1505 29.9707 91.2184C29.8736 91.2795 29.7942 91.4463 29.7323 91.7187L28.0558 99.0998C28.0079 99.3107 27.9916 99.464 28.0067 99.5599C28.0391 99.7428 28.231 99.8742 28.5825 99.954L29.4393 100.149L29.3255 100.649L24.831 99.6286L24.9447 99.1277L25.8014 99.3223C26.1002 99.3902 26.3035 99.3902 26.4113 99.3223C26.5192 99.2543 26.606 99.0754 26.6719 98.7854L28.3483 91.4044C28.4102 91.132 28.4096 90.9516 28.3465 90.8634C28.263 90.7428 28.0455 90.6425 27.694 90.5627L26.9296 90.3891Z" fill="#DC69AE"/>
<path d="M33.4671 91.8539L33.4476 91.3406L38.0802 91.1644L38.0997 91.6777L36.9922 91.7198C36.6411 91.7331 36.4715 91.8974 36.4835 92.2125L36.7901 100.276C36.8008 100.555 37.0762 100.684 37.6164 100.664L39.0076 100.611C39.818 100.58 40.4381 100.29 40.8681 99.7419C41.2981 99.1936 41.5946 98.3347 41.7575 97.1653L42.2302 97.1473L42.1605 101.005L33.8272 101.322L33.8077 100.808L34.6316 100.777C34.9017 100.767 35.0936 100.714 35.2072 100.62C35.3205 100.517 35.3723 100.339 35.3627 100.087L35.0658 92.28C35.0535 91.9558 34.8988 91.7994 34.6016 91.8107L33.4671 91.8539Z" fill="#DC69AE"/>
<path d="M48.0715 97.9653L48.1554 88.832L48.5708 88.6695L55.2484 95.8683C55.5089 96.1631 55.8489 96.2284 56.2685 96.0643L56.558 95.951L56.7451 96.4293L53.0319 97.8822L52.8448 97.4039L53.1469 97.2857C53.8014 97.0296 54.0778 96.7715 53.976 96.5113C53.9464 96.4358 53.9001 96.3668 53.837 96.3045L52.291 94.6161L48.6029 96.0592L48.6232 97.3721C48.6264 97.603 48.6337 97.7453 48.6451 97.7989C48.6607 97.9379 48.6932 98.0704 48.7425 98.1962C48.8147 98.3809 48.9794 98.5051 49.2366 98.5689C49.5022 98.6295 49.8071 98.5925 50.1511 98.4579L50.4658 98.3347L50.6529 98.813L47.2796 100.133L47.0924 99.6547L47.1931 99.6153C47.7721 99.3887 48.0649 98.8387 48.0715 97.9653ZM51.915 94.2117L48.6709 90.7058L48.6298 95.4971L51.915 94.2117Z" fill="#DC69AE"/>
<path d="M54.6853 86.7745L54.3429 86.3918L56.1359 84.7876L65.8456 86.6196L62.0605 82.3888C61.3215 81.5628 60.586 81.4773 59.854 82.1322L59.5205 81.7595L62.1396 79.4163L62.482 79.7991L62.3813 79.8892C62.0724 80.1656 61.9207 80.4826 61.9264 80.8403C61.932 81.1979 62.0941 81.5547 62.4125 81.9107L67.7117 87.8337L67.2383 88.2573L57.141 86.3367L61.1515 90.8193C61.8785 91.6319 62.6617 91.6627 63.5011 90.9116L63.8436 91.2944L61.0029 93.8359L60.6605 93.4531C61.003 93.1467 61.1855 92.7899 61.2082 92.3827C61.2308 91.9756 61.0889 91.6008 60.7825 91.2583L56.2673 86.2116C55.8669 86.1829 55.6603 86.1683 55.6476 86.1676C55.4426 86.1817 55.236 86.2819 55.0278 86.4681L54.6853 86.7745Z" fill="#DC69AE"/>
</svg>
