<svg width="16" height="16" viewBox="0 0 16 16" fill="none" xmlns="http://www.w3.org/2000/svg">
<g clip-path="url(#clip0_52_5365)">
<path d="M12.7205 5.42011C12.6319 5.33106 12.5265 5.26046 12.4105 5.2124C12.2944 5.16435 12.17 5.13978 12.0444 5.14014C11.9188 5.13978 11.7943 5.16434 11.6783 5.2124C11.5622 5.26046 11.4569 5.33106 11.3683 5.42011L7.23687 9.55155L5.63253 7.94716C5.45307 7.76857 5.21011 7.66845 4.95693 7.66876C4.70375 7.66907 4.46103 7.76978 4.28201 7.94881C4.10298 8.12783 4.00227 8.37055 4.00195 8.62373C4.00164 8.8769 4.10175 9.11987 4.28034 9.29934L6.56076 11.5798C6.74022 11.7588 6.98337 11.8594 7.23686 11.8594C7.49036 11.8594 7.73351 11.7588 7.91296 11.5798L12.7205 6.77234C12.8995 6.59289 13.0001 6.34973 13.0001 6.09622C13.0001 5.84272 12.8995 5.59956 12.7205 5.42011ZM12.4719 6.52368L7.66437 11.3312C7.5509 11.4444 7.39716 11.508 7.23687 11.508C7.07658 11.508 6.92284 11.4444 6.80937 11.3312L4.52894 9.05075C4.41556 8.93737 4.35185 8.78359 4.35185 8.62324C4.35184 8.4629 4.41553 8.30912 4.52891 8.19573C4.64229 8.08234 4.79606 8.01864 4.95641 8.01863C5.11676 8.01862 5.27054 8.08232 5.38393 8.19569L7.11258 9.9244C7.1289 9.94072 7.14828 9.95367 7.16961 9.96251C7.19094 9.97134 7.2138 9.97589 7.23688 9.97589C7.25997 9.97589 7.28283 9.97134 7.30415 9.96251C7.32548 9.95367 7.34486 9.94072 7.36118 9.9244L11.6168 5.66873C11.7304 5.55617 11.8839 5.49317 12.0438 5.49351C12.2037 5.49386 12.3569 5.55753 12.47 5.67059C12.583 5.78365 12.6467 5.93689 12.6471 6.09678C12.6474 6.25667 12.5844 6.41018 12.4718 6.52373L12.4719 6.52368Z" fill="#DC69AE"/>
</g>
<circle cx="8" cy="8" r="7.8" stroke="#DC69AE" stroke-width="0.4"/>
<defs>
<clipPath id="clip0_52_5365">
<rect width="9" height="9" fill="white" transform="translate(4 4)"/>
</clipPath>
</defs>
</svg>
