<svg width="31" height="31" viewBox="0 0 31 31" fill="none" xmlns="http://www.w3.org/2000/svg">
<path d="M9.78648 30.9057H21.1185C21.665 30.9057 22.189 30.6886 22.5754 30.3022C22.9618 29.9158 23.1789 29.3917 23.1789 28.8453V22.1146L27.7158 20.8732C28.0401 20.7825 28.3259 20.5884 28.5297 20.3203C28.7335 20.0522 28.8442 19.7249 28.8449 19.3882V10.526L29.123 10.4483C29.4843 10.347 29.8173 10.1638 30.0963 9.91283C30.3752 9.66189 30.5924 9.34999 30.7312 9.0014C30.8699 8.65281 30.9264 8.27691 30.8962 7.90294C30.866 7.52897 30.7499 7.167 30.5571 6.84519L28.7717 3.85766L28.7671 3.86075C28.7018 3.7476 28.5956 3.66374 28.4704 3.62638L16.0093 0.076883C15.6447 -0.0256277 15.2588 -0.0256277 14.8941 0.076883L2.43406 3.62638C2.30908 3.66391 2.20313 3.74774 2.13788 3.86075L2.13325 3.85766L0.348454 6.84519C0.155056 7.16705 0.0385678 7.52921 0.00806344 7.90347C-0.0224409 8.27772 0.0338619 8.65396 0.172586 9.00289C0.311311 9.35182 0.528712 9.66402 0.807858 9.91517C1.087 10.1663 1.42036 10.3496 1.78196 10.4508L2.0601 10.5286V19.3882C2.06093 19.7256 2.17215 20.0534 2.37676 20.3216C2.58138 20.5899 2.86816 20.7838 3.19331 20.8737L7.72612 22.1146V28.8453C7.72612 29.3917 7.94319 29.9158 8.32958 30.3022C8.71598 30.6886 9.24004 30.9057 9.78648 30.9057ZM22.1487 28.8453C22.1487 29.1185 22.0402 29.3805 21.847 29.5737C21.6538 29.7669 21.3917 29.8755 21.1185 29.8755H9.78648C9.51326 29.8755 9.25123 29.7669 9.05803 29.5737C8.86484 29.3805 8.7563 29.1185 8.7563 28.8453V15.968C8.7563 15.6948 8.86484 15.4327 9.05803 15.2395C9.25123 15.0463 9.51326 14.9378 9.78648 14.9378H21.1185C21.3917 14.9378 21.6538 15.0463 21.847 15.2395C22.0402 15.4327 22.1487 15.6948 22.1487 15.968V28.8453ZM27.8147 19.3882C27.814 19.4995 27.7773 19.6075 27.7101 19.6962C27.6429 19.7849 27.5487 19.8494 27.4418 19.8801L23.1789 21.0463V15.968C23.1789 15.4215 22.9618 14.8975 22.5754 14.5111C22.189 14.1247 21.665 13.9076 21.1185 13.9076H15.9676V9.58754L17.3449 11.8838C17.5621 12.2451 17.8691 12.5441 18.236 12.7517C18.6029 12.9593 19.0172 13.0684 19.4388 13.0685C19.6601 13.0688 19.8804 13.0384 20.0935 12.9784L27.8147 10.8171V19.3882ZM29.7721 8.62278C29.6926 8.82398 29.5674 9.00398 29.4066 9.14861C29.2457 9.29323 29.0534 9.39852 28.8449 9.45619L19.8153 11.9858C19.518 12.0687 19.2017 12.0518 18.915 11.9376C18.6282 11.8234 18.3868 11.6183 18.2278 11.3538L16.2411 8.04124L28.0882 4.72404L29.6716 7.37419C29.7839 7.55986 29.8514 7.76909 29.8688 7.98535C29.8862 8.2016 29.8531 8.41895 29.7721 8.6202V8.62278ZM15.1749 1.06895C15.3559 1.01797 15.5475 1.01797 15.7286 1.06895L26.4343 4.11778L15.4525 7.19236L4.47074 4.11778L15.1749 1.06895ZM1.13294 8.6202C1.05217 8.4186 1.01944 8.20097 1.03732 7.98453C1.0552 7.76809 1.1232 7.55878 1.23596 7.37316L2.81523 4.72404L14.6623 8.04124L12.6756 11.3538C12.5168 11.6185 12.2755 11.8238 11.9886 11.938C11.7018 12.0521 11.3854 12.069 11.0881 11.9858L2.0601 9.45619C1.85137 9.39819 1.65896 9.29247 1.49806 9.1474C1.33716 9.00232 1.21217 8.82184 1.13294 8.6202ZM3.46528 19.8827C3.35752 19.8522 3.26262 19.7875 3.19495 19.6983C3.12729 19.609 3.09055 19.5002 3.09029 19.3882V10.8171L10.8115 12.9805C11.3262 13.124 11.8737 13.0947 12.3702 12.8972C12.8667 12.6997 13.2846 12.3448 13.56 11.8869L14.9374 9.58754V13.9076H9.78648C9.24004 13.9076 8.71598 14.1247 8.32958 14.5111C7.94319 14.8975 7.72612 15.4215 7.72612 15.968V21.0463L3.46528 19.8827Z" fill="#DC69AE"/>
<path d="M12.5133 16.6343L11.3322 17.8154L11.1813 17.6645C11.0841 17.5707 10.954 17.5188 10.819 17.5199C10.6839 17.5211 10.5547 17.5753 10.4592 17.6708C10.3637 17.7663 10.3095 17.8955 10.3084 18.0305C10.3072 18.1656 10.3591 18.2957 10.4529 18.3929L10.968 18.908C11.0646 19.0045 11.1956 19.0588 11.3322 19.0588C11.4688 19.0588 11.5998 19.0045 11.6964 18.908L13.2417 17.3627C13.3355 17.2655 13.3874 17.1354 13.3862 17.0004C13.385 16.8653 13.3309 16.7361 13.2354 16.6406C13.1399 16.5451 13.0107 16.4909 12.8756 16.4898C12.7406 16.4886 12.6105 16.5405 12.5133 16.6343Z" fill="#DC69AE"/>
<path d="M20.0881 17.5139H14.9372C14.8006 17.5139 14.6696 17.5682 14.573 17.6648C14.4764 17.7614 14.4221 17.8924 14.4221 18.029C14.4221 18.1656 14.4764 18.2966 14.573 18.3932C14.6696 18.4898 14.8006 18.5441 14.9372 18.5441H20.0881C20.2247 18.5441 20.3558 18.4898 20.4524 18.3932C20.549 18.2966 20.6032 18.1656 20.6032 18.029C20.6032 17.8924 20.549 17.7614 20.4524 17.6648C20.3558 17.5682 20.2247 17.5139 20.0881 17.5139Z" fill="#DC69AE"/>
<path d="M12.5133 19.7249L11.3322 20.906L11.1813 20.7551C11.0841 20.6613 10.954 20.6094 10.819 20.6105C10.6839 20.6117 10.5547 20.6659 10.4592 20.7614C10.3637 20.8569 10.3095 20.9861 10.3084 21.1211C10.3072 21.2562 10.3591 21.3863 10.4529 21.4834L10.968 21.9985C11.0646 22.0951 11.1956 22.1493 11.3322 22.1493C11.4688 22.1493 11.5998 22.0951 11.6964 21.9985L13.2417 20.4533C13.3355 20.3561 13.3874 20.226 13.3862 20.0909C13.385 19.9559 13.3309 19.8267 13.2354 19.7312C13.1399 19.6357 13.0107 19.5815 12.8756 19.5803C12.7406 19.5792 12.6105 19.6311 12.5133 19.7249Z" fill="#DC69AE"/>
<path d="M20.0881 20.6035H14.9372C14.8006 20.6035 14.6696 20.6578 14.573 20.7544C14.4764 20.851 14.4221 20.982 14.4221 21.1186C14.4221 21.2552 14.4764 21.3862 14.573 21.4828C14.6696 21.5794 14.8006 21.6337 14.9372 21.6337H20.0881C20.2247 21.6337 20.3558 21.5794 20.4524 21.4828C20.549 21.3862 20.6032 21.2552 20.6032 21.1186C20.6032 20.982 20.549 20.851 20.4524 20.7544C20.3558 20.6578 20.2247 20.6035 20.0881 20.6035Z" fill="#DC69AE"/>
<path d="M12.5133 22.8155L11.3322 23.9966L11.1813 23.8457C11.0841 23.7518 10.954 23.6999 10.819 23.7011C10.6839 23.7023 10.5547 23.7564 10.4592 23.8519C10.3637 23.9475 10.3095 24.0766 10.3084 24.2117C10.3072 24.3468 10.3591 24.4769 10.4529 24.574L10.968 25.0891C11.0646 25.1857 11.1956 25.2399 11.3322 25.2399C11.4688 25.2399 11.5998 25.1857 11.6964 25.0891L13.2417 23.5438C13.3355 23.4467 13.3874 23.3166 13.3862 23.1815C13.385 23.0465 13.3309 22.9173 13.2354 22.8218C13.1399 22.7263 13.0107 22.6721 12.8756 22.6709C12.7406 22.6697 12.6105 22.7217 12.5133 22.8155Z" fill="#DC69AE"/>
<path d="M20.0881 23.6941H14.9372C14.8006 23.6941 14.6696 23.7484 14.573 23.845C14.4764 23.9416 14.4221 24.0726 14.4221 24.2092C14.4221 24.3458 14.4764 24.4768 14.573 24.5734C14.6696 24.67 14.8006 24.7243 14.9372 24.7243H20.0881C20.2247 24.7243 20.3558 24.67 20.4524 24.5734C20.549 24.4768 20.6032 24.3458 20.6032 24.2092C20.6032 24.0726 20.549 23.9416 20.4524 23.845C20.3558 23.7484 20.2247 23.6941 20.0881 23.6941Z" fill="#DC69AE"/>
<path d="M12.5133 25.9061L11.3322 27.0872L11.1813 26.9363C11.0841 26.8424 10.954 26.7905 10.819 26.7917C10.6839 26.7929 10.5547 26.847 10.4592 26.9425C10.3637 27.038 10.3095 27.1672 10.3084 27.3023C10.3072 27.4373 10.3591 27.5674 10.4529 27.6646L10.968 28.1797C11.0646 28.2762 11.1956 28.3305 11.3322 28.3305C11.4688 28.3305 11.5998 28.2762 11.6964 28.1797L13.2417 26.6344C13.3355 26.5373 13.3874 26.4071 13.3862 26.2721C13.385 26.137 13.3309 26.0078 13.2354 25.9123C13.1399 25.8168 13.0107 25.7627 12.8756 25.7615C12.7406 25.7603 12.6105 25.8122 12.5133 25.9061Z" fill="#DC69AE"/>
<path d="M20.0881 26.7847H14.9372C14.8006 26.7847 14.6696 26.8389 14.573 26.9355C14.4764 27.0321 14.4221 27.1631 14.4221 27.2998C14.4221 27.4364 14.4764 27.5674 14.573 27.664C14.6696 27.7606 14.8006 27.8149 14.9372 27.8149H20.0881C20.2247 27.8149 20.3558 27.7606 20.4524 27.664C20.549 27.5674 20.6032 27.4364 20.6032 27.2998C20.6032 27.1631 20.549 27.0321 20.4524 26.9355C20.3558 26.8389 20.2247 26.7847 20.0881 26.7847Z" fill="#DC69AE"/>
</svg>
