<svg width="77" height="90" viewBox="0 0 77 90" fill="none" xmlns="http://www.w3.org/2000/svg">
<g filter="url(#filter0_d_52_2822)">
<path d="M51.9753 60.4534C58.1801 55.8424 62.2091 48.4613 62.2091 40.1545C62.2091 31.4416 57.7778 23.7443 51.051 19.1975C50.8054 18.2315 50.5493 17.283 50.272 16.3779C58.9728 14.1203 65.7775 14.67 67.9874 18.0594L69.2441 17.2834C66.6584 13.3179 59.412 12.5607 49.9695 15.0249C46.8659 5.73546 41.7808 0 37.5156 0C32.104 0 27.5692 5.74082 24.7372 14.7824C24.5253 14.7237 24.3102 14.6595 24.1 14.6046C23.7202 14.5044 23.3316 14.733 23.2324 15.112C23.1329 15.4918 23.36 15.8805 23.7402 15.9796C23.9346 16.0308 24.1348 16.0908 24.3312 16.1449C24.1012 16.9542 23.884 17.7865 23.6804 18.6418C17.7992 22.2783 13.5143 28.2563 12.135 35.2662C6.58605 28.2135 4.34489 21.4741 6.57091 18.0598C6.82774 17.666 7.13646 17.3018 7.48875 16.9776L6.52401 15.9329C6.08623 16.3369 5.70144 16.7911 5.38016 17.2832C2.62386 21.5105 5.11299 29.0558 11.84 37.1597C11.7571 37.8554 11.7033 38.5592 11.6788 39.2705C5.07754 47.238 2.65488 54.6929 5.38016 58.8733L5.94959 58.5018L5.38053 58.8737C5.70144 59.3652 6.08623 59.8196 6.52512 60.2239L7.48875 59.1783C7.13646 58.8539 6.82774 58.4898 6.57128 58.0974C4.3772 54.7316 6.39605 48.383 11.695 41.5268C12.1834 50.6086 17.4877 58.4274 25.093 62.478C26.7736 67.4361 28.991 71.2955 31.5903 73.6352C31.3728 74.2479 31.2484 74.9043 31.2484 75.5909C31.2484 78.8282 33.8828 81.4634 37.1205 81.4634C40.3581 81.4634 42.9926 78.8284 42.9926 75.5909C42.9926 74.9587 42.8897 74.35 42.704 73.7787C45.514 71.3439 48.2374 67.1498 50.0467 61.7566C50.18 61.6758 50.3085 61.5871 50.4398 61.5042C53.8364 62.4073 56.852 62.8634 59.5138 62.8634C64.1362 62.8634 67.488 61.5164 69.2112 58.8742L67.9869 58.0974C65.7817 61.4782 59.8755 62.3083 51.9753 60.4534ZM60.7881 40.1545C60.7881 53.3079 50.0866 64.0087 36.9329 64.0087C33.1961 64.0087 29.6581 63.1433 26.5061 61.6052C26.3877 61.2546 26.2723 60.8986 26.1595 60.5376C26.1739 60.4385 26.1721 60.3355 26.1422 60.2333C26.11 60.1251 26.0498 60.0354 25.9769 59.9571C24.1211 53.8027 23.0025 46.1985 23.0025 38.0784C23.0025 31.3361 23.7751 24.9517 25.0986 19.4547C28.5894 17.4514 32.6276 16.2993 36.9329 16.2993C50.0866 16.2993 60.7881 27.0004 60.7881 40.1545ZM49.3059 18.1257C48.716 17.7928 48.1108 17.4833 47.492 17.1979C47.9695 17.0465 48.4501 16.8866 48.9223 16.7514C49.0585 17.196 49.1804 17.6652 49.3059 18.1257ZM25.9786 16.1957C26.0497 16.1178 26.1106 16.0299 26.1423 15.9224C26.1723 15.8199 26.1741 15.718 26.1597 15.6187C28.8521 7.04197 32.9938 1.42173 37.5156 1.42173C41.0699 1.42173 45.7363 6.84884 48.6008 15.3941C47.6008 15.6816 46.5391 16.0086 45.4798 16.3681C42.8083 15.4056 39.932 14.8777 36.9331 14.8777C32.8518 14.8777 28.9969 15.8561 25.5807 17.5814C25.7092 17.112 25.8416 16.6493 25.9786 16.1957ZM13.078 40.1545C13.078 32.0935 17.1007 24.9589 23.24 20.6387C22.1726 25.8381 21.5812 31.7519 21.5812 38.0784C21.5812 46.3104 22.5794 53.8481 24.3314 60.0112C24.1922 60.0494 24.0515 60.091 23.9134 60.1274C17.3961 55.8651 13.078 48.5065 13.078 40.1545ZM41.5712 75.5906C41.5712 78.0443 39.5745 80.0411 37.1205 80.0411C34.6668 80.0411 32.6699 78.0444 32.6699 75.5906C32.6699 75.2447 32.7135 74.91 32.7883 74.5869C34.2654 75.6046 35.8481 76.1567 37.5158 76.1567V74.7348C36.0963 74.7348 34.7148 74.1759 33.4029 73.1509C34.1993 71.9414 35.5671 71.14 37.1207 71.14C38.7745 71.14 40.2172 72.0481 40.9846 73.3904C41.0958 73.5852 41.1916 73.7907 41.2736 74.0016C41.2819 74.0246 41.2894 74.0457 41.2974 74.0684C41.3753 74.2793 41.4399 74.496 41.4852 74.7211C41.5409 75.0023 41.5712 75.2927 41.5712 75.5906ZM42.0928 72.4798C41.0527 70.8245 39.2161 69.7177 37.1205 69.7177C35.1474 69.7177 33.402 70.6993 32.3372 72.1967C30.3916 70.2406 28.6335 67.2367 27.1806 63.4717C30.1832 64.7317 33.4777 65.4313 36.9329 65.4313C40.9756 65.4313 44.7974 64.4714 48.1894 62.7768C46.5652 67.0381 44.343 70.4162 42.0928 72.4798Z" fill="#DC69AE"/>
<path d="M66.8776 23.3549C63.6392 23.3549 61.0051 25.9889 61.0051 29.227C61.0051 31.1823 61.9695 32.9125 63.4437 33.9807C63.2828 34.1899 63.1281 34.398 62.9616 34.6081C62.7182 34.9153 62.7686 35.3629 63.0766 35.6066C63.2071 35.7106 63.363 35.7606 63.5181 35.7606C63.728 35.7606 63.935 35.669 64.0751 35.492C64.2923 35.2189 64.4954 34.9482 64.7012 34.6766C65.3752 34.9471 66.1084 35.0996 66.878 35.0996C70.116 35.0996 72.7504 32.4652 72.7504 29.2268C72.7501 25.9887 70.1156 23.3549 66.8776 23.3549ZM66.8776 33.6777C66.175 33.6777 65.5137 33.51 64.923 33.2194C64.9191 33.2172 64.918 33.2133 64.9154 33.2111C64.861 33.1718 64.8011 33.1528 64.7424 33.1302C63.3641 32.3728 62.4268 30.9081 62.4268 29.2268C62.4268 26.7731 64.4232 24.7762 66.8774 24.7762C69.3316 24.7762 71.328 26.7729 71.328 29.2268C71.3281 31.6812 69.332 33.6777 66.8776 33.6777Z" fill="#DC69AE"/>
<path d="M9.74006 15.5487C9.82149 15.5487 9.90457 15.5343 9.98526 15.5048C10.0541 15.4791 10.1291 15.4586 10.1994 15.4344C11.053 17.6244 13.1801 19.1835 15.6687 19.1835C18.2673 19.1835 20.4735 17.4854 21.245 15.1416C21.3733 15.0391 21.4678 14.8931 21.5007 14.7186C21.5267 14.579 21.4981 14.4459 21.4477 14.3233C21.5051 13.994 21.5411 13.6569 21.5411 13.3111C21.5411 10.073 18.9067 7.43823 15.6687 7.43823C12.4306 7.43823 9.79582 10.073 9.79582 13.3111C9.79582 13.5631 9.81742 13.8101 9.84807 14.0546C9.73046 14.0932 9.6086 14.1281 9.4943 14.1704C9.12613 14.3055 8.93706 14.7141 9.07277 15.0827C9.1782 15.3702 9.45036 15.5487 9.74006 15.5487ZM15.6687 8.85996C18.1227 8.85996 20.1194 10.8567 20.1194 13.3111C20.1194 13.4593 20.1111 13.6058 20.0971 13.7503C19.8402 13.708 19.5784 13.6584 19.3264 13.6224C18.9423 13.569 18.5777 13.8362 18.5215 14.2247C18.4656 14.6133 18.7353 14.9741 19.1238 15.0295C19.3206 15.0579 19.5267 15.0973 19.7265 15.1298C19.0298 16.6787 17.4748 17.7616 15.6687 17.7616C13.8223 17.7616 12.2358 16.6314 11.5626 15.0266C11.8608 14.8903 12.0423 14.5722 11.9683 14.2385C11.8922 13.8953 11.5767 13.6785 11.2373 13.6959C11.2264 13.5686 11.2179 13.4409 11.2179 13.3111C11.2179 10.8567 13.2142 8.85996 15.6687 8.85996Z" fill="#DC69AE"/>
<path d="M33.7351 29.797C34.078 29.598 34.4931 29.4296 34.8635 29.295C35.2353 29.1595 35.7283 29.0566 36.117 28.9889C36.5032 28.9211 36.8051 28.8868 37.5158 28.8868V27.4648C36.8049 27.4648 36.3384 27.5068 35.8721 27.5882C35.4019 27.6703 34.7192 27.7952 34.2695 27.9593C33.8219 28.1216 33.3841 28.3256 32.9687 28.5662C32.5536 28.8068 32.1583 29.0841 31.7942 29.3906L32.7106 30.478C33.0113 30.2245 33.3915 29.9955 33.7351 29.797Z" fill="#DC69AE"/>
<path d="M30.3798 34.5113C30.449 34.1193 30.5519 33.7334 30.6867 33.3641C30.8202 32.9952 30.9886 32.6342 31.1872 32.2911L29.9572 31.5779C29.7158 31.9937 29.5118 32.4318 29.3499 32.879C29.1879 33.3244 29.0631 33.791 28.9795 34.2642L30.3798 34.5113Z" fill="#DC69AE"/>
<path d="M34.6726 45.7935L37.8717 48.7875L41.0704 45.7935V37.4037L37.8464 40.9617L34.6726 37.4622V45.7935ZM36.0945 41.1465L37.8471 43.078L39.6488 41.0895V45.1772L37.8717 46.8408L36.0945 45.1772V41.1465Z" fill="#DC69AE"/>
<path d="M25.9917 35.7611C25.9917 35.9184 26.1544 39.6443 28.75 42.9923C31.1847 46.1305 31.8295 49.2629 31.8295 49.7505V50.461H32.5407V56.8592H42.4922V50.461H43.2036V49.7505C43.2036 49.3124 43.9357 46.1569 46.3905 42.9923C48.9871 39.6443 48.9502 35.9212 48.9502 35.7644C48.9502 29.002 44.177 24.2789 37.4379 24.2789C30.6985 24.2789 25.9917 29.0002 25.9917 35.7611ZM41.0707 55.4365H33.962V54.0153H41.0707V55.4365ZM41.0707 52.5932H33.962V50.4608H41.0707V52.5932ZM37.4379 25.7005C44.3624 25.7005 47.4623 30.755 47.4623 35.763C47.4623 35.7969 47.4219 39.1705 45.1348 42.1212C43.0245 44.8406 41.9444 47.6362 41.622 49.0393H32.9166C32.674 47.5529 31.7698 44.7357 29.741 42.1212C27.4535 39.1709 27.4138 35.7936 27.4138 35.7615C27.4136 30.7539 30.5128 25.7005 37.4379 25.7005Z" fill="#DC69AE"/>
<path d="M64.4914 43.0843C64.6386 43.0843 64.7868 43.0389 64.9137 42.9454C65.2292 42.7113 65.2962 42.2663 65.0627 41.9508C64.746 41.5239 64.4157 41.0948 64.0741 40.6644C63.8293 40.3561 63.3832 40.3053 63.0752 40.5497C62.7676 40.7938 62.7168 41.2414 62.9613 41.5486C63.2935 41.9668 63.6133 42.3827 63.9194 42.7966C64.0594 42.9851 64.2735 43.0843 64.4914 43.0843Z" fill="#DC69AE"/>
<path d="M66.8995 44.6359C66.6918 44.3026 66.2526 44.2016 65.9191 44.4097C65.5858 44.6178 65.4848 45.056 65.6929 45.3892C65.9756 45.8418 66.2422 46.2905 66.4906 46.7347C66.6207 46.9684 66.8624 47.099 67.1113 47.099C67.2291 47.099 67.3475 47.0696 67.4579 47.0091C67.8008 46.8172 67.9234 46.3839 67.7312 46.0408C67.4727 45.5766 67.195 45.1082 66.8995 44.6359Z" fill="#DC69AE"/>
<path d="M68.3684 50.9779C68.4633 51.2818 68.7428 51.4777 69.046 51.4777C69.1163 51.4777 69.1874 51.4668 69.2578 51.4448C69.6328 51.3287 69.8416 50.9299 69.7251 50.5549C69.5674 50.0478 69.3778 49.5231 69.1647 48.9948C69.0168 48.6313 68.6029 48.4568 68.2378 48.604C67.8743 48.7515 67.6991 49.1655 67.8469 49.5301C68.0464 50.0213 68.2212 50.5083 68.3684 50.9779Z" fill="#DC69AE"/>
<path d="M69.6102 53.1879C69.2182 53.2125 68.9206 53.55 68.9455 53.942C68.9784 54.4512 68.9682 54.947 68.9167 55.4145C68.8724 55.8042 69.154 56.1562 69.5437 56.1992C69.5701 56.2027 69.5967 56.2038 69.6235 56.2038C69.9806 56.2038 70.2886 55.9355 70.3288 55.572C70.3909 55.0223 70.4019 54.4436 70.3639 53.8515C70.3397 53.4599 69.9906 53.1595 69.6102 53.1879Z" fill="#DC69AE"/>
<path d="M11.4281 61.0692C10.9161 60.9549 10.4304 60.815 9.985 60.6506C9.61646 60.5146 9.20785 60.7044 9.0727 61.0722C8.93717 61.4407 9.12606 61.8497 9.49423 61.9843C9.9994 62.1702 10.5458 62.329 11.12 62.457C11.1719 62.4684 11.2239 62.474 11.2747 62.474C11.6004 62.474 11.8942 62.2485 11.9678 61.9167C12.0531 61.5345 11.8113 61.1547 11.4281 61.0692Z" fill="#DC69AE"/>
<path d="M16.0166 61.4168C15.4793 61.4377 14.9582 61.4395 14.4665 61.4247C14.0674 61.4024 13.7465 61.7215 13.7344 62.1142C13.7228 62.5065 14.0315 62.8334 14.4235 62.8463C14.6468 62.8524 14.8753 62.8557 15.1087 62.8557C15.4221 62.8557 15.7435 62.85 16.0694 62.8372C16.4621 62.8228 16.7679 62.4929 16.7535 62.1009C16.7382 61.7082 16.418 61.3895 16.0166 61.4168Z" fill="#DC69AE"/>
<path d="M20.6705 60.8694C20.1454 60.9686 19.6297 61.053 19.1238 61.1263C18.7353 61.1818 18.4657 61.5428 18.5215 61.9315C18.5722 62.2856 18.8767 62.541 19.224 62.541C19.2584 62.541 19.2921 62.5388 19.3265 62.5338C19.852 62.4581 20.3874 62.3689 20.9327 62.2673C21.3186 62.1948 21.5725 61.8231 21.5006 61.4376C21.4282 61.0513 21.056 60.7982 20.6705 60.8694Z" fill="#DC69AE"/>
<path d="M68.9167 20.7417C68.9682 21.209 68.9784 21.7045 68.9455 22.2142C68.9202 22.6061 69.2182 22.9437 69.6102 22.9686C69.6253 22.9697 69.6405 22.9704 69.656 22.9704C70.028 22.9704 70.3405 22.6806 70.3643 22.3048C70.4021 21.7127 70.3912 21.1335 70.3292 20.5843C70.2856 20.1942 69.9304 19.9089 69.5441 19.9569C69.154 20 68.8724 20.3511 68.9167 20.7417Z" fill="#DC69AE"/>
</g>
<defs>
<filter id="filter0_d_52_2822" x="0.274902" y="0" width="76.4756" height="89.4634" filterUnits="userSpaceOnUse" color-interpolation-filters="sRGB">
<feFlood flood-opacity="0" result="BackgroundImageFix"/>
<feColorMatrix in="SourceAlpha" type="matrix" values="0 0 0 0 0 0 0 0 0 0 0 0 0 0 0 0 0 0 127 0" result="hardAlpha"/>
<feOffset dy="4"/>
<feGaussianBlur stdDeviation="2"/>
<feComposite in2="hardAlpha" operator="out"/>
<feColorMatrix type="matrix" values="0 0 0 0 0 0 0 0 0 0 0 0 0 0 0 0 0 0 0.25 0"/>
<feBlend mode="normal" in2="BackgroundImageFix" result="effect1_dropShadow_52_2822"/>
<feBlend mode="normal" in="SourceGraphic" in2="effect1_dropShadow_52_2822" result="shape"/>
</filter>
</defs>
</svg>
