<svg width="28" height="23" viewBox="0 0 28 23" fill="none" xmlns="http://www.w3.org/2000/svg">
<path d="M27.8971 22.1248C27.8971 22.3252 27.7305 22.4876 27.5248 22.4876H0.720428C0.514853 22.4876 0.348145 22.3252 0.348145 22.1248C0.348145 21.9245 0.514853 21.7621 0.720428 21.7621H27.5248C27.7305 21.7621 27.8971 21.9245 27.8971 22.1248ZM0.720428 18.4249H27.5248C27.7305 18.4249 27.8971 18.2626 27.8971 18.0622C27.8971 17.8618 27.7305 17.6994 27.5248 17.6994H0.720428C0.514853 17.6994 0.348145 17.8618 0.348145 18.0622C0.348145 18.2626 0.514853 18.4249 0.720428 18.4249ZM10.1764 6.45451C10.1764 4.45764 13.4621 0.565399 13.8368 0.128083C13.9832 -0.0426942 14.2619 -0.0426942 14.4084 0.128083C14.783 0.565326 18.0688 4.45757 18.0688 6.45451C18.0688 8.57464 16.2986 10.2995 14.1226 10.2995C11.9467 10.2995 10.1764 8.57464 10.1764 6.45451ZM10.921 6.45451C10.921 8.17461 12.3572 9.57405 14.1226 9.57405C15.888 9.57405 17.3242 8.17461 17.3242 6.45451C17.3242 5.11362 15.226 2.27933 14.1226 0.934448C13.0192 2.27933 10.921 5.11362 10.921 6.45451ZM5.78348 11.4503C5.96962 11.4511 6.15576 11.3342 6.15576 11.0975V9.11591C6.15576 9.11591 13.8473 17.1456 13.8505 17.1489C13.9957 17.3004 14.2498 17.3004 14.3948 17.1489L22.0895 9.11591V11.0975C22.0895 11.5645 22.834 11.5711 22.834 11.0975V8.19652C22.834 8.19507 22.8713 7.83328 22.4784 7.83328C22.4727 7.83328 19.4941 7.83291 19.4835 7.83291C19.0079 7.83291 18.9975 8.55839 19.4835 8.55839H21.6051L14.1226 16.3697L6.64017 8.55839H8.76174C9.24124 8.55839 9.24735 7.83291 8.76174 7.83291C8.76174 7.83291 5.77342 7.83299 5.7662 7.83328C5.57172 7.84089 5.4135 8.00405 5.41119 8.19224V11.0975C5.41119 11.3311 5.59733 11.4495 5.78348 11.4503Z" fill="#DC69AE"/>
</svg>
