<svg width="32" height="32" viewBox="0 0 32 32" fill="none" xmlns="http://www.w3.org/2000/svg">
<path d="M1.5407 16.0786H7.70515C7.76535 16.0792 7.82507 16.0678 7.88084 16.0451C7.93662 16.0224 7.98735 15.9889 8.03011 15.9465C8.07287 15.9041 8.10681 15.8537 8.12997 15.7981C8.15313 15.7425 8.16506 15.6829 8.16506 15.6227C8.16506 15.5625 8.15313 15.5029 8.12997 15.4473C8.10681 15.3917 8.07287 15.3413 8.03011 15.2989C7.98735 15.2565 7.93662 15.223 7.88084 15.2004C7.82507 15.1777 7.76535 15.1663 7.70515 15.1668H1.56965L2.13718 14.5957C2.22244 14.5099 2.27011 14.3937 2.26972 14.2727C2.26933 14.1518 2.2209 14.0359 2.13509 13.9507C2.04928 13.8654 1.93312 13.8177 1.81215 13.8181C1.69119 13.8185 1.57534 13.8669 1.49008 13.9527L0.132395 15.3195C0.0473306 15.4053 -0.000276885 15.5213 1.21155e-06 15.6421C0.000279309 15.7629 0.0484202 15.8786 0.133879 15.964L1.45447 17.281C1.49678 17.3238 1.54713 17.3578 1.60263 17.3811C1.65813 17.4043 1.71768 17.4163 1.77785 17.4165C1.83802 17.4166 1.89762 17.4048 1.95322 17.3818C2.00882 17.3588 2.05931 17.325 2.1018 17.2824C2.14429 17.2398 2.17793 17.1892 2.20078 17.1336C2.22363 17.0779 2.23524 17.0183 2.23494 16.9581C2.23464 16.8979 2.22244 16.8384 2.19904 16.783C2.17565 16.7275 2.14151 16.6773 2.0986 16.6351L1.5407 16.0786Z" fill="#DC69AE"/>
<path d="M31.0443 15.2691L29.7234 13.952C29.681 13.9096 29.6307 13.8759 29.5753 13.8529C29.5199 13.8299 29.4605 13.8181 29.4005 13.8181C29.3405 13.8181 29.2811 13.83 29.2257 13.853C29.1703 13.876 29.12 13.9097 29.0776 13.9521C29.0352 13.9946 29.0017 14.045 28.9788 14.1005C28.956 14.156 28.9443 14.2154 28.9445 14.2754C28.9446 14.3354 28.9566 14.3947 28.9798 14.4501C29.0029 14.5054 29.0367 14.5557 29.0793 14.5979L29.6377 15.1545H23.473C23.3521 15.1545 23.2361 15.2025 23.1506 15.288C23.0651 15.3735 23.0171 15.4895 23.0171 15.6104C23.0171 15.7314 23.0651 15.8473 23.1506 15.9328C23.2361 16.0183 23.3521 16.0664 23.473 16.0664H29.6083L29.041 16.6372C28.9575 16.7233 28.9112 16.8389 28.9124 16.9589C28.9135 17.0789 28.9619 17.1936 29.047 17.2782C29.1321 17.3628 29.2472 17.4104 29.3672 17.4108C29.4872 17.4111 29.6025 17.3641 29.6881 17.28L31.0458 15.9137C31.1309 15.8279 31.1785 15.7119 31.1783 15.5911C31.178 15.4702 31.1298 15.3545 31.0443 15.2691Z" fill="#DC69AE"/>
<path d="M14.5707 2.12552L15.127 1.56744V7.73178C15.128 7.85202 15.1765 7.96697 15.2619 8.05162C15.3473 8.13627 15.4627 8.18376 15.5829 8.18376C15.7032 8.18376 15.8185 8.13627 15.9039 8.05162C15.9893 7.96697 16.0378 7.85202 16.0389 7.73178V1.59629L16.61 2.16382C16.6958 2.24908 16.8119 2.29675 16.9329 2.29636C17.0539 2.29597 17.1697 2.24754 17.255 2.16173C17.3402 2.07592 17.3879 1.95976 17.3875 1.83879C17.3871 1.71783 17.3387 1.60198 17.2529 1.51672L15.8863 0.159035C15.8005 0.0740984 15.6846 0.0265787 15.5638 0.0268567C15.4431 0.0271347 15.3274 0.0751878 15.2419 0.160518L13.9249 1.48139C13.8826 1.5238 13.8491 1.57412 13.8262 1.62949C13.8034 1.68486 13.7917 1.74418 13.7917 1.80407C13.7918 1.86397 13.8037 1.92326 13.8267 1.97857C13.8497 2.03387 13.8834 2.0841 13.9258 2.1264C13.9682 2.16869 14.0185 2.20222 14.0739 2.22506C14.1292 2.24791 14.1886 2.25963 14.2485 2.25954C14.3084 2.25946 14.3676 2.24758 14.423 2.22459C14.4783 2.20159 14.5284 2.16793 14.5707 2.12552Z" fill="#DC69AE"/>
<path d="M16.6088 29.105L16.0522 29.6632V23.4984C16.0522 23.3775 16.0042 23.2615 15.9187 23.176C15.8332 23.0905 15.7172 23.0425 15.5963 23.0425C15.4754 23.0425 15.3594 23.0905 15.2739 23.176C15.1884 23.2615 15.1404 23.3775 15.1404 23.4984V29.6337L14.5695 29.0665C14.5274 29.0229 14.4769 28.9881 14.4212 28.9642C14.3654 28.9403 14.3054 28.9277 14.2447 28.9273C14.184 28.9269 14.1239 28.9385 14.0678 28.9617C14.0117 28.9848 13.9607 29.0189 13.9179 29.0619C13.8752 29.1049 13.8414 29.1561 13.8187 29.2124C13.7959 29.2686 13.7846 29.3289 13.7854 29.3895C13.7863 29.4502 13.7992 29.5101 13.8235 29.5657C13.8477 29.6214 13.8828 29.6716 13.9268 29.7135L15.2931 31.0712C15.3789 31.1562 15.4949 31.2038 15.6157 31.2036C15.7364 31.2033 15.8522 31.1551 15.9376 31.0697L17.2546 29.7491C17.34 29.6634 17.3879 29.5474 17.3877 29.4264C17.3876 29.3054 17.3394 29.1895 17.2537 29.1041C17.2113 29.0618 17.161 29.0283 17.1056 29.0054C17.0502 28.9826 16.9909 28.9709 16.931 28.9709C16.8101 28.9711 16.6942 29.0193 16.6088 29.105Z" fill="#DC69AE"/>
<path d="M21.8933 15.6158C21.8933 12.2215 22.6505 9.28258 23.8221 8.12826C23.8647 8.08624 23.8987 8.03623 23.922 7.98109C23.9453 7.92595 23.9575 7.86676 23.958 7.8069C23.9584 7.74703 23.9471 7.68766 23.9245 7.63219C23.902 7.57671 23.8688 7.52621 23.8268 7.48356C23.7848 7.44092 23.7348 7.40697 23.6796 7.38365C23.6245 7.36034 23.5653 7.34811 23.5054 7.34767C23.4456 7.34723 23.3862 7.35858 23.3307 7.38109C23.2753 7.40359 23.2248 7.4368 23.1821 7.47882C20.6219 10.0013 10.5205 10.0016 7.9597 7.47882C7.91706 7.4368 7.86656 7.40359 7.81108 7.38109C7.7556 7.35858 7.69623 7.34723 7.63637 7.34767C7.5765 7.34811 7.51731 7.36034 7.46217 7.38365C7.40703 7.40697 7.35702 7.44092 7.315 7.48356C7.27298 7.52621 7.23977 7.57671 7.21727 7.63219C7.19477 7.68766 7.18341 7.74703 7.18385 7.8069C7.18429 7.86676 7.19652 7.92595 7.21984 7.98109C7.24315 8.03623 7.2771 8.08624 7.31974 8.12826C8.49135 9.28265 9.24827 12.2216 9.24827 15.6158C9.24827 19.0099 8.49131 21.9493 7.31971 23.1035C7.23461 23.1886 7.1866 23.3039 7.18614 23.4242C7.18569 23.5446 7.23284 23.6602 7.3173 23.7459C7.40176 23.8316 7.51669 23.8805 7.63702 23.8818C7.75736 23.8831 7.87333 23.8368 7.95967 23.753C10.5205 21.2305 20.6219 21.2307 23.1821 23.753C23.2682 23.8379 23.3845 23.885 23.5054 23.8842C23.6263 23.8833 23.7419 23.8344 23.8268 23.7483C23.9117 23.6621 23.9589 23.5458 23.958 23.4249C23.9571 23.304 23.9082 23.1884 23.8221 23.1035C22.6504 21.9493 21.8933 19.0103 21.8933 15.6158ZM15.5707 20.9385C13.1824 20.9385 10.7935 21.2962 9.07754 22.0116C9.85821 20.1894 10.1601 17.7022 10.1601 15.6158C10.1601 13.5293 9.85807 11.0425 9.07754 9.22026C12.5095 10.651 18.6322 10.651 22.0642 9.22026C21.2835 11.0425 20.9814 13.5296 20.9814 15.6158C20.9814 17.7019 21.2835 20.1893 22.0642 22.0116C20.3482 21.2962 17.9593 20.9385 15.5707 20.9385Z" fill="#DC69AE"/>
</svg>
