<svg width="29" height="28" viewBox="0 0 29 28" fill="none" xmlns="http://www.w3.org/2000/svg">
<path d="M0.241373 25.3951L28.3878 25.3951C28.5243 25.3951 28.635 25.2861 28.635 25.1518C28.635 25.0174 28.5243 24.9085 28.3878 24.9085L0.241373 24.9084C0.104833 24.9084 -0.00585938 25.0174 -0.00585938 25.1518C-0.00585938 25.2861 0.104833 25.3951 0.241373 25.3951Z" fill="#DC69AE"/>
<path d="M28.3878 26.8604H0.241373C0.104833 26.8604 -0.00585938 26.9693 -0.00585938 27.1037C-0.00585938 27.238 0.104833 27.347 0.241373 27.347H28.3878C28.5243 27.347 28.635 27.238 28.635 27.1037C28.635 26.9693 28.5243 26.8604 28.3878 26.8604Z" fill="#DC69AE"/>
<path d="M11.4122 11.2796C11.789 11.6504 12.2279 11.9416 12.7166 12.1451C13.2227 12.3557 13.7602 12.4626 14.3141 12.4626C14.8681 12.4626 15.4055 12.3557 15.9117 12.1451C16.4004 11.9416 16.8392 11.6504 17.2161 11.2796C17.5929 10.9088 17.8887 10.4769 18.0955 9.9959C18.3095 9.49782 18.4181 8.96887 18.4181 8.42374C18.4181 7.90562 18.2407 7.15068 17.8907 6.17988C17.5926 5.35279 17.182 4.40559 16.7033 3.44071C16.2595 2.54615 15.7943 1.71337 15.3936 1.09578C15.1869 0.777304 15.004 0.526451 14.85 0.350189C14.6355 0.10473 14.4753 0 14.3141 0C14.153 0 13.9928 0.10473 13.7783 0.3502C13.6242 0.526451 13.4414 0.777304 13.2347 1.09578C12.8339 1.71337 12.3688 2.54615 11.925 3.44071C11.4463 4.40559 11.0357 5.35279 10.7375 6.17988C10.3876 7.15068 10.2102 7.90563 10.2102 8.42374C10.2102 8.96887 10.3187 9.49782 10.5328 9.9959C10.7395 10.4769 11.0354 10.9088 11.4122 11.2796ZM11.1774 6.41547C11.4548 5.63488 11.841 4.73272 12.2942 3.80652C12.7124 2.95208 13.1588 2.13819 13.5511 1.51478C14.0034 0.795941 14.2301 0.572957 14.3141 0.506798C14.3982 0.572957 14.6248 0.795952 15.0772 1.51478C15.4695 2.13819 15.9158 2.95209 16.334 3.80654C16.7873 4.73273 17.1735 5.63488 17.4508 6.41548C17.7601 7.28613 17.9236 7.98059 17.9236 8.42375C17.9236 10.3824 16.3044 11.9759 14.3141 11.9759C12.3239 11.9759 10.7046 10.3824 10.7046 8.42375C10.7046 7.98056 10.8681 7.28612 11.1774 6.41547Z" fill="#DC69AE"/>
<path d="M14.3149 10.8977C14.9863 10.8977 15.6175 10.6404 16.0923 10.1732C16.5671 9.70595 16.8285 9.08474 16.8285 8.42397C16.8285 8.2896 16.7179 8.18066 16.5813 8.18066C16.4448 8.18066 16.3341 8.2896 16.3341 8.42397C16.3341 9.51969 15.4283 10.4111 14.3149 10.4111C14.1783 10.4111 14.0676 10.5201 14.0676 10.6544C14.0676 10.7888 14.1783 10.8977 14.3149 10.8977Z" fill="#DC69AE"/>
<path d="M6.04451 16.1479C6.83909 16.1479 7.5861 15.8434 8.14795 15.2905C8.70979 14.7376 9.01922 14.0024 9.01922 13.2204C9.01922 12.2033 8.08539 10.242 7.79918 9.66516C7.48414 9.03016 7.15377 8.4387 6.86891 7.99973C6.43239 7.32703 6.22985 7.19189 6.04453 7.19189C5.8592 7.19189 5.65665 7.32702 5.22014 7.99973C4.93527 8.4387 4.6049 9.03016 4.28987 9.66516C4.00365 10.2421 3.06982 12.2033 3.06982 13.2204C3.06982 14.0024 3.37924 14.7375 3.94109 15.2905C4.50293 15.8434 5.24994 16.1479 6.04451 16.1479ZM4.66206 10.0254C4.9522 9.42959 5.26405 8.85725 5.54019 8.41382C5.81 7.98053 5.96715 7.79504 6.04451 7.71806C6.12188 7.79504 6.27904 7.98053 6.54884 8.41382C6.82497 8.85725 7.13683 9.42958 7.42697 10.0254C8.10411 11.4159 8.52475 12.6402 8.52475 13.2204C8.52475 14.5663 7.41212 15.6613 6.04451 15.6613C4.6769 15.6613 3.56427 14.5663 3.56427 13.2204C3.56427 12.6402 3.98492 11.4159 4.66206 10.0254Z" fill="#DC69AE"/>
<path d="M6.04411 15.0416C7.06424 15.0416 7.89418 14.2248 7.89418 13.2208C7.89418 13.0865 7.78348 12.9775 7.64694 12.9775C7.5104 12.9775 7.39971 13.0865 7.39971 13.2208C7.39971 13.9565 6.79159 14.5549 6.04411 14.5549C5.90757 14.5549 5.79688 14.6639 5.79688 14.7983C5.79688 14.9326 5.90757 15.0416 6.04411 15.0416Z" fill="#DC69AE"/>
<path d="M22.1187 16.1479C22.9133 16.1479 23.6603 15.8434 24.2222 15.2905C24.784 14.7376 25.0934 14.0024 25.0934 13.2204C25.0934 12.2033 24.1596 10.242 23.8734 9.66516C23.5584 9.03016 23.228 8.4387 22.9431 7.99973C22.5066 7.32703 22.3041 7.19189 22.1187 7.19189C21.9334 7.19189 21.7309 7.32702 21.2943 7.99973C21.0095 8.4387 20.6791 9.03016 20.3641 9.66516C20.0779 10.2421 19.144 12.2033 19.144 13.2204C19.144 14.0024 19.4535 14.7375 20.0153 15.2905C20.5772 15.8434 21.3242 16.1479 22.1187 16.1479ZM20.7363 10.0254C21.0264 9.42959 21.3383 8.85725 21.6144 8.41382C21.8842 7.98053 22.0414 7.79504 22.1187 7.71806C22.1961 7.79504 22.3533 7.98053 22.6231 8.41382C22.8992 8.85725 23.211 9.42958 23.5012 10.0254C24.1783 11.4159 24.599 12.6402 24.599 13.2204C24.599 14.5663 23.4863 15.6613 22.1187 15.6613C20.7511 15.6613 19.6385 14.5663 19.6385 13.2204C19.6385 12.6402 20.0591 11.4159 20.7363 10.0254Z" fill="#DC69AE"/>
<path d="M22.1183 15.0416C23.1385 15.0416 23.9684 14.2248 23.9684 13.2208C23.9684 13.0865 23.8577 12.9775 23.7212 12.9775C23.5846 12.9775 23.4739 13.0865 23.4739 13.2208C23.4739 13.9565 22.8658 14.5549 22.1183 14.5549C21.9818 14.5549 21.8711 14.6639 21.8711 14.7983C21.8711 14.9326 21.9818 15.0416 22.1183 15.0416Z" fill="#DC69AE"/>
<path d="M2.65016 22.1967L4.88542 23.6719C4.95483 23.7178 5.03491 23.7409 5.11528 23.7409C5.18183 23.7409 5.24857 23.725 5.30962 23.693C5.4444 23.6222 5.52814 23.4849 5.52814 23.3345V22.1026H9.81047C10.3508 22.1026 10.8752 21.9984 11.3689 21.7928C11.8457 21.5944 12.2738 21.3103 12.6414 20.9486C13.009 20.5868 13.2976 20.1655 13.4993 19.6963C13.7081 19.2104 13.814 18.6944 13.814 18.1626V13.7895C13.814 13.6551 13.7033 13.5461 13.5668 13.5461C13.4302 13.5461 13.3195 13.6551 13.3195 13.7895V18.1626C13.3195 20.0668 11.7454 21.6159 9.81046 21.6159H5.52814V20.384C5.52814 20.2336 5.4444 20.0963 5.30961 20.0255C5.17482 19.9547 5.01228 19.9628 4.8854 20.0466L2.65014 21.5219C2.53563 21.5975 2.46727 21.7236 2.46729 21.8593C2.46729 21.995 2.53565 22.1211 2.65016 22.1967ZM5.03368 20.5346V23.1839L3.02669 21.8593L5.03368 20.5346Z" fill="#DC69AE"/>
<path d="M15.3114 18.1626V13.7895C15.3114 13.6551 15.2007 13.5461 15.0641 13.5461C14.9276 13.5461 14.8169 13.6551 14.8169 13.7895V18.1626C14.8169 18.6944 14.9228 19.2104 15.1316 19.6963C15.3333 20.1655 15.6219 20.5868 15.9895 20.9486C16.3571 21.3103 16.7852 21.5944 17.262 21.7928C17.7557 21.9984 18.2801 22.1026 18.8204 22.1026H23.1028V23.3345C23.1028 23.4849 23.1865 23.6222 23.3213 23.693C23.3823 23.725 23.4491 23.7409 23.5156 23.7409C23.596 23.7409 23.6761 23.7178 23.7455 23.6719L25.9807 22.1967C26.0952 22.1211 26.1636 21.995 26.1636 21.8593C26.1636 21.7236 26.0953 21.5975 25.9807 21.5219L23.7455 20.0466C23.6186 19.9628 23.4561 19.9548 23.3213 20.0255C23.1865 20.0963 23.1028 20.2336 23.1028 20.384V21.6159H18.8204C16.8855 21.6159 15.3114 20.0668 15.3114 18.1626ZM23.5972 21.8593V20.5346L25.6042 21.8593L23.5972 23.1839V21.8593Z" fill="#DC69AE"/>
</svg>
