<svg width="43" height="23" viewBox="0 0 43 23" fill="none" xmlns="http://www.w3.org/2000/svg">
<path d="M39.2583 6.8325C38.9924 6.75572 39.1095 6.35288 39.3754 6.42966L40.875 6.8652C41.3335 6.99839 41.7845 7.18261 42.106 7.54892C42.3493 7.82606 42.4833 8.15501 42.5318 8.49901C42.6409 9.2731 42.3091 10.2036 41.719 10.7178L29.3043 21.5355C27.6994 22.934 27.2189 22.861 25.2525 22.2898L2.25842 15.611C1.45535 15.3778 0.901405 14.6849 0.802759 13.9038C0.695455 13.0541 1.06793 12.4895 1.68975 11.9503L7.47123 6.93618C7.55918 6.85991 7.69255 6.86911 7.76911 6.95674C7.84567 7.04436 7.83643 7.17724 7.74848 7.25352L1.967 12.2676C1.45353 12.7129 1.22266 13.3903 2.06893 13.636L25.063 20.3148C26.8863 20.8444 27.2356 20.9414 28.7204 19.6477L41.1351 8.82992C41.8509 8.20617 41.6497 7.52708 40.7578 7.26804L39.2583 6.8325ZM9.34185 4.31024C9.61308 3.51617 10.1668 2.95827 10.8134 2.43385C11.0144 2.27081 11.4898 2.03405 11.5264 2.48353C11.5264 2.60536 11.4752 2.73365 11.6669 2.63915C11.9964 2.50006 12.3422 2.37078 12.6875 2.27679C13.3637 2.09271 13.6682 2.29497 13.227 2.89706C12.8917 3.28141 12.8815 3.29364 13.4524 3.05164C13.7013 2.95301 14.4392 2.72351 14.8925 2.66409C15.0643 2.64158 15.3895 2.61947 15.4718 2.81565C15.5684 3.04562 15.2962 3.1739 15.7841 3.04435C21.2861 1.8007 25.7236 4.40911 33.0598 2.2391C33.7749 2.02759 36.1227 1.15719 36.7649 1.84127C37.3243 2.43713 37.9981 1.59633 38.5729 2.16288C38.8404 2.42653 39.397 2.25936 39.7778 2.2778C40.7685 2.32576 40.9997 2.60915 40.5468 3.52928C40.2993 4.03194 39.8837 4.61527 39.3047 5.14538C38.831 5.57913 38.2466 5.97926 37.5537 6.2734C36.3118 6.8005 37.4853 6.95099 35.6932 7.68541C30.4021 9.8537 19.7851 11.5053 14.4473 8.9862C13.8823 8.7196 13.6131 8.80886 13.392 8.88218C13.0536 8.9944 12.7925 9.08098 12.2404 8.55002C12.1213 8.43547 11.8744 8.4833 11.6313 8.53039C11.135 8.62652 10.6493 8.72062 10.4811 8.0011C10.332 7.36295 10.0142 7.16534 9.74372 6.99718C9.44305 6.81023 9.18617 6.65051 9.1355 6.16698C9.10806 5.90507 9.13419 5.89004 8.63955 5.78163C6.92666 5.40616 4.62627 4.77759 3.12652 4.03822C2.22487 3.59371 2.71888 2.36067 3.67649 2.745C5.29498 3.39459 7.12187 3.95761 9.13462 4.43222C9.28897 4.46861 9.29151 4.45764 9.34185 4.31024ZM9.86286 4.5989C18.1335 6.43441 30.117 6.86873 37.9072 3.50799C38.1612 3.39877 38.3278 3.78352 38.0739 3.89274C28.8627 7.86651 12.7013 6.81977 3.51971 3.13468C3.05678 2.94888 2.89578 3.456 3.313 3.66169C4.7819 4.38585 7.05908 5.00534 8.73823 5.37302C9.35874 5.5089 9.49921 5.59448 9.55468 6.12423C9.58383 6.40244 9.76015 6.51207 9.96652 6.64038C10.3053 6.85103 10.7034 7.09857 10.892 7.90573C10.968 8.23083 11.2569 8.17486 11.5521 8.11768C11.9012 8.05006 12.2558 7.98136 12.5325 8.24748C12.9021 8.60294 13.058 8.55126 13.26 8.48427C13.5536 8.38693 13.911 8.26842 14.6271 8.60638C19.847 11.0698 30.3596 9.41745 35.5331 7.29738C37.2103 6.61007 35.8535 6.53861 37.3886 5.887C38.0335 5.6133 38.5777 5.24053 39.0192 4.83626C39.5581 4.34284 39.9423 3.80543 40.1688 3.34513C40.4735 2.72627 40.4426 2.73022 39.758 2.69708C39.2005 2.6701 38.7338 2.91185 38.2758 2.46049C37.958 2.14721 37.1903 2.9075 36.4579 2.12737C36.0404 1.68258 33.6467 2.50349 33.1787 2.64194C25.79 4.82747 21.3326 2.22052 15.8765 3.45377C15.5892 3.51871 14.6205 3.79143 14.7923 3.25742C14.8478 3.08477 14.8841 3.07326 14.6839 3.12672C14.2876 3.23251 13.7959 3.36669 13.6076 3.44132C13.2313 3.59045 12.9281 3.67997 12.7553 3.62389C12.4979 3.54036 12.382 3.27474 12.7066 2.91298C12.9736 2.61538 12.9793 2.61306 12.6017 2.73983C12.3389 2.82802 12.0868 2.91726 11.8303 3.02555C11.6416 3.10522 11.3401 3.28435 11.1447 3.19616C11.0686 3.16183 11.0162 3.10949 10.9946 3.03299C10.9455 2.85912 11.0887 2.74226 10.832 2.96739C10.3597 3.38157 9.96383 3.82121 9.75167 4.41476C9.70145 4.55527 9.7238 4.56804 9.86286 4.5989ZM41.8825 8.53189C41.7656 8.73596 41.6292 8.95661 41.4123 9.14561L28.9977 19.9633C27.3928 21.3618 26.9123 21.2888 24.9458 20.7177L1.95176 14.0389C1.74916 13.98 1.58479 13.8983 1.45581 13.7994C1.24863 13.6405 1.18229 13.5559 1.22218 13.861C1.3038 14.4854 1.74808 15.0259 2.37559 15.2082L25.3697 21.887C27.193 22.4165 27.5423 22.5136 29.0271 21.2198L41.4417 10.4021C41.9241 9.98175 42.2035 9.18976 42.1142 8.55656C42.0426 8.11804 42.0155 8.29973 41.8825 8.53189ZM14.1203 1.67687C13.9121 1.85831 13.6349 1.54262 13.843 1.36117C15.4237 -0.0162378 16.2005 -0.301662 18.255 0.295097L23.9557 1.95091C24.2216 2.02768 24.1045 2.43052 23.8385 2.35374L18.1378 0.697937C16.2253 0.142431 15.5892 0.396784 14.1203 1.67687Z" fill="#DC69AE"/>
</svg>
