<svg width="9" height="22" viewBox="0 0 9 22" fill="none" xmlns="http://www.w3.org/2000/svg">
<path d="M4.05745 5.55265C4.58886 5.55265 5.10833 5.39507 5.55018 5.09983C5.99203 4.8046 6.33641 4.38497 6.53977 3.89401C6.74313 3.40306 6.79634 2.86282 6.69267 2.34162C6.589 1.82043 6.3331 1.34168 5.95734 0.965916C5.58157 0.590153 5.10283 0.334256 4.58163 0.230583C4.06043 0.126911 3.5202 0.180119 3.02924 0.38348C2.53828 0.586841 2.11865 0.931221 1.82342 1.37307C1.52819 1.81492 1.37061 2.33439 1.37061 2.8658C1.37144 3.57814 1.65478 4.26107 2.15848 4.76477C2.66218 5.26847 3.34511 5.55182 4.05745 5.55265ZM4.05745 1.4391C4.34025 1.4391 4.61669 1.52296 4.85183 1.68007C5.08696 1.83719 5.27023 2.0605 5.37845 2.32177C5.48667 2.58304 5.51499 2.87053 5.45982 3.14789C5.40465 3.42525 5.26847 3.68003 5.0685 3.88C4.86853 4.07996 4.61376 4.21614 4.3364 4.27131C4.05904 4.32648 3.77154 4.29817 3.51027 4.18995C3.249 4.08172 3.02569 3.89846 2.86858 3.66332C2.71147 3.42819 2.62761 3.15174 2.62761 2.86894C2.62761 2.48973 2.77825 2.12604 3.0464 1.85789C3.31455 1.58975 3.67823 1.4391 4.05745 1.4391Z" fill="white"/>
<path d="M1.77197 7.3596C1.85732 7.32713 1.94777 7.3101 2.03909 7.30932H6.07093C6.27929 7.30932 6.47912 7.39209 6.62645 7.53942C6.77378 7.68676 6.85655 7.88658 6.85655 8.09495V12.1048C6.85159 12.4276 6.74123 12.7399 6.5423 12.9941L7.36564 13.962C7.83658 13.4578 8.10025 12.7947 8.10413 12.1048V8.09495C8.1033 7.55346 7.88783 7.03439 7.50494 6.65151C7.12205 6.26862 6.60298 6.05315 6.0615 6.05231H2.03909C1.64987 6.04912 1.26799 6.15823 0.939209 6.36657L1.77197 7.3596Z" fill="white"/>
<path d="M5.57167 13.7731C5.51518 13.8683 5.48483 13.9767 5.48368 14.0874V19.7062C5.48368 19.9032 5.40564 20.0921 5.26665 20.2317C5.12766 20.3713 4.93903 20.4501 4.74205 20.451H3.36877C3.17179 20.4501 2.98316 20.3713 2.84417 20.2317C2.70517 20.0921 2.62714 19.9032 2.62714 19.7062V14.0874C2.62716 13.9599 2.58839 13.8354 2.51598 13.7304C2.44358 13.6254 2.34096 13.545 2.22175 13.4997C1.93909 13.3924 1.69559 13.2019 1.52336 12.9534C1.35114 12.7048 1.25827 12.41 1.257 12.1076V8.69482L0.135128 7.37183C0.0464648 7.60252 0.000670999 7.84746 0 8.0946V12.1044C0.00175567 12.5855 0.12909 13.0577 0.369402 13.4744C0.609713 13.8911 0.954671 14.2378 1.37013 14.4802V19.7062C1.37013 20.2365 1.5806 20.7452 1.95533 21.1205C2.33006 21.4959 2.83841 21.7071 3.36877 21.708H4.74205C5.27241 21.7071 5.78076 21.4959 6.15549 21.1205C6.53021 20.7452 6.74068 20.2365 6.74068 19.7062V15.1558L5.57167 13.7731Z" fill="white"/>
</svg>
