<svg width="17" height="17" viewBox="0 0 17 17" fill="none" xmlns="http://www.w3.org/2000/svg">
<path d="M14.1813 13.5508H15.0662C15.0677 13.551 15.0694 13.551 15.0705 13.5508C15.3063 13.5508 15.4974 13.3594 15.4974 13.1235C15.4974 13.0244 15.4638 12.9331 15.4073 12.8609L11.4921 6.17807L16.6427 1.02789C16.8096 0.861035 16.8096 0.590557 16.6431 0.423699C16.4766 0.256627 16.206 0.256624 16.0395 0.423268L11.0458 5.41663L8.91394 1.77759C8.83731 1.64683 8.69708 1.5665 8.54553 1.5665C8.39399 1.5665 8.25398 1.64683 8.17714 1.77759L6.04591 5.41599L1.05286 0.423268C0.886587 0.256837 0.615941 0.256413 0.449243 0.423699C0.282758 0.590557 0.282761 0.861035 0.449673 1.02789L5.59982 6.17764L1.65754 12.9075C1.58028 13.0395 1.57942 13.2032 1.65541 13.3361C1.73139 13.469 1.87291 13.551 2.02573 13.551H2.91087L0.449458 16.0124C0.282546 16.1793 0.282543 16.4498 0.449028 16.6166C0.532484 16.7004 0.641555 16.742 0.75105 16.742C0.860333 16.742 0.969401 16.7004 1.05264 16.6171L4.11875 13.551H12.9728L16.0389 16.6171C16.1221 16.7004 16.2312 16.742 16.3405 16.742C16.4497 16.742 16.559 16.7004 16.6425 16.6166C16.809 16.4498 16.809 16.1793 16.642 16.0124L14.1813 13.5508ZM14.3213 12.6962H13.3269L9.15044 8.51985L10.8682 6.80212L14.3213 12.6962ZM8.54575 2.83834L10.4219 6.04048L8.54639 7.91587L6.67045 6.04005L8.54575 2.83834ZM2.77128 12.6962L6.22414 6.80148L7.94257 8.51985L3.76614 12.6962H2.77128ZM4.97401 12.6962L8.54639 9.12405L12.1188 12.6964H4.97401V12.6962Z" fill="#DC69AE"/>
</svg>
