<svg width="16" height="16" viewBox="0 0 16 16" fill="none" xmlns="http://www.w3.org/2000/svg">
<path d="M13.8799 13.4944H15.2418L14.3692 6.81887L13.8649 2.83033L15.4083 1.16829C15.4707 1.10054 15.5047 1.00984 15.503 0.916031C15.5013 0.822223 15.4639 0.732939 15.3992 0.667704C15.3345 0.602468 15.2476 0.566591 15.1575 0.567917C15.0674 0.569244 14.9815 0.607665 14.9186 0.674781L13.5392 2.16011C13.2471 1.85943 12.8552 1.68733 12.4446 1.67947H5.00739C4.96264 1.67947 4.91834 1.68865 4.87701 1.70649C4.83567 1.72432 4.79811 1.75046 4.76648 1.78342C4.73484 1.81637 4.70974 1.85549 4.69262 1.89855C4.6755 1.9416 4.66669 1.98775 4.66669 2.03435C4.66669 2.08096 4.6755 2.1271 4.69262 2.17016C4.70974 2.21322 4.73484 2.25234 4.76648 2.28529C4.79811 2.31824 4.83567 2.34438 4.87701 2.36222C4.91834 2.38005 4.96264 2.38923 5.00739 2.38923H12.4445C12.6786 2.39506 12.901 2.49674 13.0636 2.67224L10.4038 5.53639H6.74684C6.66269 5.53639 6.57925 5.53966 6.49589 5.54302L1.97499 0.674744C1.94405 0.640537 1.90689 0.613074 1.86567 0.593948C1.82446 0.574821 1.78 0.564413 1.73489 0.563327C1.68978 0.562241 1.64491 0.570499 1.60289 0.587622C1.56087 0.604745 1.52253 0.630391 1.49011 0.663072C1.45768 0.695753 1.4318 0.734818 1.41399 0.777999C1.39617 0.821181 1.38677 0.867618 1.38632 0.914616C1.38587 0.961613 1.39439 1.00824 1.41139 1.05178C1.42838 1.09532 1.4535 1.13491 1.4853 1.16825L5.6366 5.6385C4.14951 5.91227 2.80232 6.72235 1.83104 7.92683C0.859761 9.1313 0.326338 10.6534 0.324219 12.2264V13.4944H3.01363L1.4853 15.1404C1.42247 15.208 1.38802 15.2989 1.38951 15.393C1.39101 15.4871 1.42833 15.5768 1.49328 15.6422C1.55823 15.7077 1.64547 15.7436 1.73582 15.742C1.82618 15.7404 1.91223 15.7016 1.97506 15.6339L3.96165 13.4944H12.9319L14.9186 15.6337C14.9818 15.6995 15.0673 15.7367 15.1566 15.7374C15.2459 15.7381 15.3319 15.7023 15.3961 15.6376C15.4603 15.573 15.4976 15.4846 15.4999 15.3916C15.5022 15.2986 15.4693 15.2084 15.4083 15.1404L13.8799 13.4944ZM13.2208 12.7847L8.92082 8.15421L10.6928 6.24609H13.6067L13.6989 6.95121L13.7429 7.29998C13.7437 7.30586 13.7456 7.31112 13.7466 7.31699L14.4613 12.7847H13.2208ZM13.26 3.48163L13.5199 5.53639H11.352L13.26 3.48163ZM9.74472 6.24615L8.44682 7.64382L7.14892 6.24615H9.74472ZM1.00562 12.7848V12.2264C1.0075 10.7351 1.54354 9.29828 2.50884 8.19701C3.47414 7.09573 4.79922 6.40929 6.22479 6.272L7.97276 8.15421L3.67283 12.7847L1.00562 12.7848ZM4.62082 12.7848L8.44676 8.6648L12.2727 12.7848H4.62082Z" fill="#DC69AE"/>
</svg>
