<svg width="38" height="32" viewBox="0 0 38 32" fill="none" xmlns="http://www.w3.org/2000/svg">
<path d="M6.76183 0.893919C8.698 2.19736 10.6754 3.28334 12.7685 3.85937C14.8463 4.4312 17.048 4.50206 19.4527 3.78467L27.6688 1.3335C28.3731 1.12341 28.5955 1.08599 29.2842 1.49705L37.1958 6.21889C37.9476 6.67942 38 6.67942 38 7.51596C38 8.24389 37.9986 10.2098 37.999 10.3842C38.0008 11.1404 37.9364 11.2349 37.211 11.4915L28.5963 14.5394C25.1109 15.7726 21.9023 17.4528 19.5988 20.3046C18.0359 22.2394 17.0426 24.5096 16.3906 26.8568C16.0729 28.0008 15.8354 29.1663 15.6521 30.3277C15.3823 32.0375 14.6675 32.0306 13.4135 31.0659L5.37832 24.8838C4.81679 24.4518 4.71739 24.1748 4.90342 23.5283C5.05464 23.0028 5.2735 22.4681 5.54169 21.9866C5.55326 21.9657 5.56729 21.9468 5.58326 21.9301L0.718047 18.0377C0.0249792 17.4832 -0.199028 17.1754 0.19011 16.3266C0.651686 15.3198 1.64323 14.1139 2.60787 13.492L1.39549 12.6371C1.10848 12.4347 0.470191 12.106 0.612713 11.6796C0.699549 11.4198 1.02324 11.297 1.51043 11.1328L1.51051 11.133L5.70064 9.67526L3.53676 8.11399C2.90637 7.65916 2.54535 7.32875 2.40798 7.11446C2.19031 6.77492 2.37625 6.46524 2.79345 6.47325C3.05048 6.47818 3.4945 6.60216 4.0714 6.83189C7.81494 8.32272 10.3562 8.1737 14.072 6.57653L6.47401 1.36637C6.08627 1.10595 6.47458 0.701615 6.7618 0.893928L6.76183 0.893919ZM9.38801 21.8156C9.24601 22.0288 8.90518 21.823 9.04718 21.6098C9.36933 21.1266 9.71018 20.6564 10.0776 20.2034C10.2393 20.0041 10.558 20.2384 10.3964 20.4377C10.0372 20.8806 9.70289 21.3433 9.388 21.8156L9.38801 21.8156ZM16.811 20.7232C16.953 20.51 17.2938 20.7158 17.1518 20.929C16.326 22.1659 15.6998 23.5655 15.2862 24.9757C15.2156 25.2188 14.8275 25.1166 14.898 24.8736C15.3218 23.4287 15.9648 21.9905 16.811 20.7232V20.7232ZM23.7125 4.18151C23.5014 4.24325 23.4028 3.93781 23.6138 3.87608L27.7232 2.66963C27.9342 2.60789 28.0328 2.91332 27.8218 2.97505L23.7125 4.18151ZM6.24175 10.0656L1.77724 11.6189C1.12568 11.8311 1.1245 11.79 1.73709 12.2018L8.13762 16.7153C9.14066 17.4254 9.24441 17.6569 10.4798 17.2376L16.1698 15.3065C14.5343 15.3476 12.7837 14.8884 10.6023 13.2116L10.6021 13.2117L6.24175 10.0656V10.0656ZM19.9168 14.0349L37.4275 8.09206V7.51597C37.4294 7.25604 37.4355 7.2178 37.0271 7.38082C29.8035 9.94075 24.3551 11.8716 17.8796 8.92804C17.3161 8.6719 16.7144 8.3326 16.126 7.96566C15.5954 7.63478 15.0742 7.28031 14.6016 6.94426C10.6476 8.70452 7.86642 8.93292 3.85226 7.33433C2.70047 6.87565 3.24297 7.21919 3.8812 7.67967L10.9466 12.7774L10.9533 12.7828C13.9051 15.0544 16.5149 15.1894 19.9168 14.0349V14.0349ZM16.4391 7.51006C17.0072 7.86435 17.5863 8.19112 18.1256 8.43624C24.3851 11.2816 29.735 9.38566 36.8281 6.87199C37.0663 6.79453 37.0554 6.77556 36.8286 6.63977L28.9823 1.95691C28.4683 1.65016 28.3996 1.68566 27.8787 1.84107L19.6226 4.30413C17.1016 5.05623 14.7914 4.98136 12.6097 4.38095C12.3886 4.32011 12.1689 4.25387 11.9506 4.18258C11.0207 3.87891 10.9424 3.76195 11.8369 4.37185L16.4391 7.51004V7.51006ZM7.79768 17.1517L3.09905 13.8384C2.15724 14.368 1.14648 15.5992 0.713442 16.5437C0.44703 17.1248 0.574244 17.2141 1.05259 17.5967L8.51731 23.5689C9.11651 24.0483 9.2502 24.0517 9.61762 23.4064C9.90962 22.8936 10.2046 22.418 10.5096 21.9747C11.6551 20.3097 12.9994 19.0437 14.7875 17.984C16.1143 17.1978 17.7206 16.4942 19.7521 15.7699L37.4275 9.46748V8.66963L20.0399 14.5706C16.9199 15.6295 13.8 16.6884 10.68 17.7472C9.15742 18.264 9.0433 18.0335 7.79768 17.1517V17.1517ZM6.02369 22.2825C5.78754 22.7152 5.58886 23.2008 5.45358 23.671C5.3302 24.0997 5.35927 24.1702 5.73615 24.4601L13.7714 30.6422C14.7041 31.3598 14.9031 31.4439 15.0863 30.2468C15.2776 29.0348 15.5291 27.8137 15.8673 26.6163C16.541 24.2303 17.5569 21.9411 19.1471 19.9725C21.5195 17.0354 24.8133 15.2987 28.4038 14.0283L37.0534 10.968C37.424 10.837 37.4296 10.7682 37.4287 10.3842C37.4284 10.272 37.4275 10.2898 37.4275 10.0473L19.9511 16.2787C17.959 16.989 16.3858 17.6778 15.0895 18.446C13.3666 19.467 12.0908 20.6701 10.9881 22.2728C10.6894 22.707 10.4027 23.169 10.1208 23.6641C9.57096 24.6297 9.03644 24.6928 8.15052 23.9841L6.02368 22.2825H6.02369Z" fill="#DC69AE"/>
</svg>
