<svg width="21" height="11" viewBox="0 0 21 11" fill="none" xmlns="http://www.w3.org/2000/svg">
<path d="M19.89 0.120067C19.6203 0.0328806 19.326 0.167163 19.233 0.419062L18.4647 2.50067C18.1038 2.64003 17.7034 2.71731 17.2903 2.71731C16.5003 2.71731 15.7467 2.44199 15.2747 1.98118C15.0797 1.79038 14.7226 1.79086 14.5281 1.98118C14.0566 2.44199 13.3036 2.71707 12.5133 2.71707C11.723 2.71707 10.97 2.44199 10.4985 1.98118C10.3035 1.79038 9.94644 1.79062 9.75139 1.98118C9.28069 2.44199 8.52762 2.71707 7.73736 2.71707C6.94709 2.71707 6.19404 2.44199 5.72256 1.98118C5.52777 1.79062 5.17049 1.79062 4.9757 1.98118C4.50423 2.44199 3.75116 2.71707 2.9609 2.71707C2.54161 2.71707 2.13576 2.63761 1.77098 2.49415L1.00526 0.418821C0.912253 0.16668 0.618519 0.0321562 0.348295 0.119826C0.0785868 0.206771 -0.0647862 0.481856 0.0284749 0.733996L3.40628 9.88666C3.4781 10.0816 3.67418 10.2122 3.89481 10.2122H16.344C16.5646 10.2122 16.7604 10.0816 16.8325 9.88666L20.2101 0.734238C20.3031 0.482097 20.1597 0.207012 19.89 0.120067ZM15.9756 9.24592H4.26294L2.1833 3.61043C2.43776 3.65511 2.69765 3.68337 2.96167 3.68337C3.85889 3.68337 4.70393 3.42447 5.34978 2.96148C5.99563 3.42447 6.84066 3.68337 7.73788 3.68337C8.63536 3.68337 9.48013 3.42447 10.1255 2.96148C10.7713 3.42447 11.6164 3.68337 12.5136 3.68337C13.4111 3.68337 14.2558 3.42447 14.9017 2.96148C15.548 3.42447 16.3931 3.68337 17.2903 3.68337C17.5492 3.68337 17.8041 3.65584 18.0542 3.61285L15.9756 9.24592ZM10.12 5.36068C9.61447 5.36068 9.20473 5.74397 9.20473 6.21661C9.20473 6.68901 9.61447 7.0723 10.12 7.0723C10.6256 7.0723 11.0356 6.68901 11.0356 6.21661C11.0356 5.74397 10.6256 5.36068 10.12 5.36068Z" fill="#DC69AE"/>
</svg>
