<svg width="16" height="16" viewBox="0 0 16 16" fill="none" xmlns="http://www.w3.org/2000/svg">
<path d="M0.0823469 15.3948C0.135047 15.4475 0.206514 15.4771 0.281032 15.4771C0.355549 15.4771 0.427016 15.4475 0.479716 15.3948L2.43306 13.4415C3.83076 14.7494 5.67343 15.4771 7.58768 15.4771C9.50193 15.4771 11.3446 14.7494 12.7423 13.4415L14.6956 15.3948C14.7486 15.446 14.8196 15.4743 14.8933 15.4737C14.967 15.473 15.0375 15.4435 15.0896 15.3914C15.1417 15.3393 15.1713 15.2688 15.1719 15.1951C15.1725 15.1214 15.1442 15.0504 15.093 14.9974L13.1397 13.0441C14.4476 11.6464 15.1754 9.80372 15.1754 7.88947C15.1754 5.97522 14.4476 4.13255 13.1397 2.73485L15.093 0.781503C15.1199 0.755579 15.1413 0.724569 15.156 0.690283C15.1707 0.655997 15.1785 0.619121 15.1788 0.581807C15.1791 0.544492 15.172 0.507487 15.1579 0.47295C15.1438 0.438413 15.1229 0.407036 15.0965 0.38065C15.0701 0.354264 15.0387 0.333397 15.0042 0.319267C14.9697 0.305137 14.9327 0.298026 14.8953 0.29835C14.858 0.298675 14.8212 0.306427 14.7869 0.321155C14.7526 0.335884 14.7216 0.357293 14.6956 0.384134L12.7423 2.33748C11.3446 1.0295 9.50193 0.301787 7.58768 0.301787C5.67343 0.301787 3.83076 1.0295 2.43306 2.33748L0.479716 0.384134C0.426714 0.332943 0.355727 0.304617 0.282043 0.305257C0.208359 0.305897 0.137874 0.335452 0.0857702 0.387557C0.0336659 0.439661 0.00411071 0.510146 0.00347041 0.583829C0.00283012 0.657513 0.031156 0.728501 0.0823469 0.781503L2.0357 2.73485C0.727718 4.13255 0 5.97522 0 7.88947C0 9.80372 0.727718 11.6464 2.0357 13.0441L0.0823469 14.9974C0.0296629 15.0501 6.65996e-05 15.1216 6.65996e-05 15.1961C6.65996e-05 15.2706 0.0296629 15.3421 0.0823469 15.3948ZM7.58768 14.9151C5.82256 14.9144 4.12303 14.2461 2.83027 13.0443L7.58768 8.28684L12.3451 13.0443C11.0523 14.2461 9.3528 14.9144 7.58768 14.9151ZM14.6133 7.88947C14.6126 9.65459 13.9443 11.3541 12.7425 12.6469L7.98505 7.88947L12.7425 3.13205C13.9443 4.42481 14.6126 6.12435 14.6133 7.88947ZM7.58768 0.863843C9.3528 0.864507 11.0523 1.53284 12.3451 2.73468L7.58768 7.4921L2.83027 2.73468C4.12303 1.53284 5.82256 0.864507 7.58768 0.863843ZM0.562056 7.88947C0.562721 6.12435 1.23106 4.42481 2.4329 3.13205L7.19031 7.88947L2.4329 12.6469C1.23106 11.3541 0.562721 9.65459 0.562056 7.88947Z" fill="#DC69AE"/>
</svg>
