<svg width="3" height="3" viewBox="0 0 3 3" fill="none" xmlns="http://www.w3.org/2000/svg">
<path d="M1.58978 2.87706C1.78556 2.87706 1.97695 2.819 2.13975 2.71023C2.30254 2.60146 2.42942 2.44685 2.50434 2.26597C2.57927 2.08508 2.59887 1.88604 2.56068 1.69402C2.52248 1.50199 2.4282 1.3256 2.28976 1.18716C2.15131 1.04872 1.97493 0.954435 1.7829 0.916238C1.59087 0.878042 1.39183 0.897646 1.21095 0.972571C1.03006 1.0475 0.875459 1.17438 0.766685 1.33717C0.657911 1.49996 0.599854 1.69135 0.599854 1.88714C0.599854 2.14968 0.704148 2.40147 0.889795 2.58712C1.07544 2.77277 1.32723 2.87706 1.58978 2.87706ZM1.58978 1.55717C1.65504 1.55717 1.71884 1.57652 1.7731 1.61278C1.82736 1.64903 1.86966 1.70057 1.89463 1.76086C1.91961 1.82116 1.92614 1.88751 1.91341 1.95151C1.90068 2.01552 1.86925 2.07432 1.8231 2.12047C1.77696 2.16661 1.71816 2.19804 1.65415 2.21077C1.59014 2.22351 1.5238 2.21697 1.4635 2.192C1.40321 2.16702 1.35167 2.12473 1.31541 2.07046C1.27915 2.0162 1.2598 1.9524 1.2598 1.88714C1.2598 1.79963 1.29457 1.71569 1.35645 1.65381C1.41833 1.59193 1.50226 1.55717 1.58978 1.55717Z" fill="#DC69AE"/>
</svg>
