<svg width="16" height="16" viewBox="0 0 16 16" fill="none" xmlns="http://www.w3.org/2000/svg">
<path d="M0.324219 0.0334473V15.2123H15.503V0.0334473H0.324219ZM14.8959 14.6051H0.931371V0.6406H14.8959V14.6051Z" fill="#DC69AE"/>
<path d="M7.91307 11.5692C7.99359 11.5692 8.0708 11.5373 8.12773 11.4803C8.18467 11.4234 8.21665 11.3462 8.21665 11.2657V3.97985C8.21665 3.89933 8.18467 3.82212 8.12773 3.76518C8.0708 3.70825 7.99359 3.67627 7.91307 3.67627C7.83256 3.67627 7.75534 3.70825 7.69841 3.76518C7.64148 3.82212 7.6095 3.89933 7.6095 3.97985V11.2657C7.6095 11.3462 7.64148 11.4234 7.69841 11.4803C7.75534 11.5373 7.83256 11.5692 7.91307 11.5692Z" fill="#DC69AE"/>
<path d="M10.9493 11.5692C11.0298 11.5692 11.1071 11.5373 11.164 11.4803C11.2209 11.4234 11.2529 11.3462 11.2529 11.2657V3.97985C11.2529 3.89933 11.2209 3.82212 11.164 3.76518C11.1071 3.70825 11.0298 3.67627 10.9493 3.67627C10.8688 3.67627 10.7916 3.70825 10.7347 3.76518C10.6777 3.82212 10.6458 3.89933 10.6458 3.97985V11.2657C10.6458 11.3462 10.6777 11.4234 10.7347 11.4803C10.7916 11.5373 10.8688 11.5692 10.9493 11.5692Z" fill="#DC69AE"/>
<path d="M4.87743 11.5692C4.95794 11.5692 5.03516 11.5373 5.09209 11.4803C5.14902 11.4234 5.181 11.3462 5.181 11.2657V3.97985C5.181 3.89933 5.14902 3.82212 5.09209 3.76518C5.03516 3.70825 4.95794 3.67627 4.87743 3.67627C4.79692 3.67627 4.7197 3.70825 4.66277 3.76518C4.60584 3.82212 4.57385 3.89933 4.57385 3.97985V11.2657C4.57385 11.3462 4.60584 11.4234 4.66277 11.4803C4.7197 11.5373 4.79692 11.5692 4.87743 11.5692Z" fill="#DC69AE"/>
</svg>
