<svg width="30" height="34" viewBox="0 0 30 34" fill="none" xmlns="http://www.w3.org/2000/svg">
<path d="M23.1411 3.38966H16.6319V2.38104C16.6319 2.12496 16.4304 1.91774 16.1814 1.91774H14.2952C14.0569 0.839925 13.0088 0 11.7955 0C10.5975 0 9.52817 0.853478 9.28122 1.91774H7.40999C7.16096 1.91774 6.95944 2.12496 6.95944 2.38104V3.38966H0.450552C0.201517 3.38966 0 3.59688 0 3.85295V33.2867C0 33.5428 0.201517 33.75 0.450552 33.75H23.1411C23.3902 33.75 23.5917 33.5428 23.5917 33.2867V3.85295C23.5917 3.59688 23.3902 3.38966 23.1411 3.38966ZM7.86089 2.84433H9.67836C9.92739 2.84433 10.1289 2.63711 10.1289 2.38104C10.1289 1.61957 10.9235 0.926592 11.7958 0.926592C12.6591 0.926592 13.4454 1.61957 13.4454 2.38104C13.4454 2.63711 13.647 2.84433 13.896 2.84433H15.7311V5.34199H7.86124L7.86089 2.84433ZM22.6906 32.8238H0.901103V4.31625H6.96014V5.80529C6.96014 6.06137 7.16165 6.26859 7.41069 6.26859H16.1817C16.4307 6.26859 16.6323 6.06137 16.6323 5.80529V4.31625H22.6909L22.6906 32.8238ZM13.3653 8.37036H6.88973C6.64069 8.37036 6.43917 8.57758 6.43917 8.83366V18.9231C6.43917 19.1792 6.64069 19.3864 6.88973 19.3864H16.702C16.951 19.3864 17.1525 19.1792 17.1525 18.9231V8.83366C17.1525 8.57758 16.951 8.37036 16.702 8.37036H13.3653ZM12.9148 9.29695V11.805L12.0563 11.2479C11.9093 11.1523 11.7223 11.1519 11.5759 11.2471L10.6766 11.8289V9.29695H12.9148ZM16.2514 18.4598H7.34028V9.29695H9.77582V12.667C9.77582 12.8357 9.86496 12.9908 10.0086 13.0725C10.0762 13.111 10.1515 13.1303 10.2264 13.1303C10.3096 13.1303 10.3929 13.1067 10.466 13.0593L11.8153 12.1869L13.1246 13.0376C13.2633 13.1281 13.4389 13.1331 13.5824 13.0518C13.726 12.9702 13.8155 12.815 13.8155 12.646V9.29695H16.2511L16.2514 18.4598ZM14.6948 16.7735C14.9438 16.7735 15.1453 16.9807 15.1453 17.2368C15.1453 17.4929 14.9438 17.7001 14.6948 17.7001H13.0903C12.8412 17.7001 12.6397 17.4929 12.6397 17.2368C12.6397 16.9807 12.8412 16.7735 13.0903 16.7735H14.6948ZM16.7575 26.247L19.4157 22.7318C19.5679 22.53 19.852 22.4932 20.0476 22.6505C20.2439 22.8074 20.2797 23.0988 20.1271 23.3003L17.1258 27.2692C17.0422 27.3798 16.9146 27.4454 16.7779 27.4479H16.7703C16.6368 27.4479 16.5105 27.3873 16.4248 27.2817L15.4058 26.0284C15.2459 25.8322 15.2712 25.5401 15.4623 25.3761C15.6535 25.212 15.9372 25.2377 16.0967 25.4342L16.7575 26.247ZM14.5234 23.5775H17.1858C17.4349 23.5775 17.6364 23.7847 17.6364 24.0408C17.6364 24.2968 17.4349 24.504 17.1858 24.504H14.974V27.8431H18.2211V26.6422C18.2211 26.3861 18.4227 26.1789 18.6717 26.1789C18.9207 26.1789 19.1222 26.3861 19.1222 26.6422V28.3064C19.1222 28.5624 18.9207 28.7697 18.6717 28.7697H14.5234C14.2744 28.7697 14.0729 28.5624 14.0729 28.3064V24.0408C14.0729 23.7847 14.2744 23.5775 14.5234 23.5775ZM9.344 22.6505C9.54031 22.8074 9.57604 23.0988 9.42343 23.3003L6.42218 27.2692C6.33859 27.3798 6.21095 27.4454 6.07429 27.4479H6.06666C5.93313 27.4479 5.80688 27.3873 5.72121 27.2817L4.70218 26.0284C4.54228 25.8322 4.5676 25.5401 4.75871 25.3761C4.94982 25.212 5.23354 25.2377 5.39309 25.4342L6.05383 26.2467L8.71205 22.7315C8.86466 22.5296 9.14838 22.4932 9.344 22.6505ZM8.41827 26.6418V28.306C8.41827 28.5621 8.21675 28.7693 7.96772 28.7693H3.82015C3.57111 28.7693 3.3696 28.5621 3.3696 28.306V24.0404C3.3696 23.7843 3.57111 23.5771 3.82015 23.5771H6.48184C6.73087 23.5771 6.93239 23.7843 6.93239 24.0404C6.93239 24.2965 6.73087 24.5037 6.48184 24.5037H4.2707V27.8427H7.51717V26.6418C7.51717 26.3858 7.71869 26.1786 7.96772 26.1786C8.21675 26.1786 8.41827 26.3858 8.41827 26.6418ZM29.5501 13.6196H25.6131C25.3641 13.6196 25.1626 13.8268 25.1626 14.0829V29.6759C25.1626 29.7312 25.1754 29.7843 25.1938 29.8357C25.1983 29.8482 25.2024 29.86 25.208 29.8721C25.2125 29.8821 25.2146 29.8928 25.2198 29.9024L27.1888 33.5132C27.2682 33.6594 27.4188 33.75 27.5818 33.75C27.7448 33.75 27.895 33.6594 27.9748 33.5132L29.9428 29.9024C29.948 29.8928 29.9501 29.8821 29.9546 29.8721C29.9601 29.86 29.9643 29.8482 29.9688 29.8357C29.9872 29.7843 30 29.7312 30 29.6759V14.0829C30 13.8268 29.7985 13.6196 29.5494 13.6196H29.5501ZM28.0313 29.2126V20.0587H29.0996V29.2126H28.0313ZM26.0637 29.2126V20.0583H27.1302V29.2126H26.0637ZM29.0996 19.1325L26.0637 19.1317V18.386H29.0996V19.1325ZM29.0996 14.5462V17.4601H26.0637V14.5462H29.0996ZM27.5821 32.3394L26.3821 30.1392H28.7812L27.5821 32.3394Z" fill="#DC69AE"/>
</svg>
