<svg width="17" height="16" viewBox="0 0 17 16" fill="none" xmlns="http://www.w3.org/2000/svg">
<path d="M8.86914 0C4.45114 0 0.869141 3.582 0.869141 8C0.869141 12.418 4.45114 16 8.86914 16C13.2871 16 16.8691 12.418 16.8691 8C16.8691 3.582 13.2871 0 8.86914 0ZM12.9871 5.242L8.75414 11.329C8.66514 11.457 8.52514 11.523 8.37914 11.534C8.34514 11.54 8.31214 11.535 8.27814 11.533C8.26314 11.531 8.24914 11.533 8.23514 11.53C8.15114 11.52 8.06914 11.494 7.99714 11.439L4.85714 9.029C4.63814 8.861 4.59614 8.549 4.76514 8.329C4.93314 8.11 5.24714 8.069 5.46614 8.237L8.21714 10.349L12.1651 4.671C12.3221 4.444 12.6361 4.389 12.8611 4.546C13.0881 4.703 13.1441 5.016 12.9871 5.242Z" fill="#00C920"/>
</svg>
