<svg width="16" height="16" viewBox="0 0 16 16" fill="none" xmlns="http://www.w3.org/2000/svg">
<path d="M2.34047 2.34047C-0.780156 5.46109 -0.780156 10.5385 2.34047 13.6595C5.46109 16.7802 10.5387 16.7802 13.6595 13.6595C16.7802 10.5389 16.7802 5.46109 13.6595 2.34047C10.5389 -0.780156 5.46109 -0.780156 2.34047 2.34047ZM11.354 11.354C10.8497 11.8584 10.0286 11.8579 9.52403 11.3536L8.00032 9.82988L6.4764 11.3536C5.97227 11.8579 5.15097 11.8579 4.64641 11.3532C4.14207 10.8488 4.14228 10.0279 4.64663 9.5236L6.17033 7.99989L4.6462 6.47576C4.14185 5.97141 4.14185 5.15012 4.6462 4.6462C5.15054 4.14143 5.97163 4.14143 6.47597 4.64577L8.00011 6.17033L9.52381 4.64663C10.0284 4.14185 10.849 4.14185 11.3534 4.6462C11.8579 5.15054 11.8581 5.97184 11.3538 6.47619L9.83009 8.00032L11.3536 9.5236C11.8581 10.0284 11.8586 10.8497 11.354 11.354Z" fill="#FF0000"/>
</svg>
