<svg width="38" height="29" viewBox="0 0 38 29" fill="none" xmlns="http://www.w3.org/2000/svg">
<path d="M36.0935 16.1314L35.6869 15.9097C35.5006 15.8399 35.331 15.7318 35.189 15.5924C35.047 15.4531 34.9358 15.2855 34.8625 15.1005L33.1793 12.2051C31.0815 8.5847 30.8316 8.44228 26.6493 8.45037H25.1949V8.28205C25.1942 7.62298 24.932 6.99113 24.466 6.5251C24 6.05907 23.3681 5.79691 22.709 5.79614H12.846C12.7248 4.58886 12.265 3.44037 11.5196 2.48303C10.7741 1.52569 9.77335 0.798454 8.63258 0.385125C7.4918 -0.0282031 6.25745 -0.110802 5.07178 0.146847C3.8861 0.404496 2.79735 0.991907 1.93098 1.84139C1.06462 2.69087 0.455898 3.76786 0.174969 4.94823C-0.10596 6.12861 -0.0476651 7.36434 0.343137 8.51303C0.733939 9.66172 1.44134 10.6766 2.38383 11.4408C3.32632 12.2049 4.46553 12.6872 5.6702 12.8321V23.5138C5.67097 23.8772 5.81592 24.2255 6.07322 24.4822C6.33053 24.7389 6.67917 24.883 7.04263 24.8829H9.52821C9.68238 25.9388 10.2114 26.9039 11.0186 27.6018C11.8258 28.2996 12.8572 28.6837 13.9242 28.6837C14.9912 28.6837 16.0226 28.2996 16.8298 27.6018C17.637 26.9039 18.166 25.9388 18.3202 24.8829H26.6438C26.7982 25.9386 27.3273 26.9035 28.1345 27.6012C28.9417 28.2989 29.973 28.6829 31.0399 28.6829C32.1068 28.6829 33.1381 28.2989 33.9453 27.6012C34.7525 26.9035 35.2816 25.9386 35.4361 24.8829H36.6793C37.6669 24.8829 38 24.5495 38 23.5623V19.3463C38.0022 17.3132 37.8773 17.1028 36.0935 16.1314ZM1.29396 6.44287C1.30438 5.08552 1.85081 3.7873 2.81418 2.83105C3.77755 1.8748 5.0798 1.33803 6.43718 1.33769C7.79457 1.33735 9.09709 1.87346 10.0609 2.82923C11.0248 3.78499 11.5719 5.08294 11.583 6.44028V6.44546C11.5719 7.8028 11.0248 9.10075 10.0609 10.0565C9.09709 11.0123 7.79457 11.5484 6.43718 11.548C5.0798 11.5477 3.77755 11.0109 2.81418 10.0547C1.85081 9.09844 1.30438 7.80021 1.29396 6.44287ZM17.0775 24.2433C17.0775 25.0797 16.7453 25.8817 16.154 26.4731C15.5626 27.0645 14.7605 27.3967 13.9242 27.3967C13.0879 27.3967 12.2858 27.0645 11.6944 26.4731C11.1031 25.8817 10.7708 25.0797 10.7708 24.2433C10.7708 24.2404 10.7708 24.2382 10.7708 24.2352C10.7708 24.2323 10.7708 24.2297 10.7708 24.2265C10.7793 23.3957 11.1152 22.6017 11.7057 22.0172C12.2962 21.4327 13.0935 21.1048 13.9244 21.1048C14.7552 21.1048 15.5525 21.4327 16.143 22.0172C16.7335 22.6017 17.0695 23.3957 17.0779 24.2265C17.0779 24.2297 17.0779 24.2323 17.0779 24.2352C17.0779 24.2382 17.0775 24.2404 17.0775 24.2433ZM23.9002 9.09645V23.5879H18.3199C18.1659 22.5318 17.637 21.5664 16.8297 20.8683C16.0225 20.1702 14.9909 19.786 13.9237 19.786C12.8565 19.786 11.8249 20.1702 11.0177 20.8683C10.2104 21.5664 9.68149 22.5318 9.52757 23.5879H7.04263C7.02248 23.5882 7.00301 23.5806 6.98846 23.5666C6.9739 23.5527 6.96545 23.5336 6.96494 23.5134V12.8544C8.4638 12.7305 9.87214 12.0864 10.9462 11.0336C12.0202 9.98083 12.6924 8.58566 12.8463 7.08959H22.709C23.0249 7.08993 23.3276 7.21554 23.5509 7.43885C23.7743 7.66217 23.8999 7.96495 23.9002 8.28076V9.09645ZM34.1934 24.2372C34.1929 25.0737 33.8601 25.8757 33.2683 26.4669C32.6766 27.0581 31.8742 27.39 31.0377 27.3897C30.2012 27.3894 29.3991 27.057 28.8077 26.4654C28.2164 25.8738 27.8841 25.0716 27.8841 24.2351C27.8841 23.3986 28.2164 22.5964 28.8077 22.0048C29.3991 21.4132 30.2012 21.0807 31.0377 21.0804C31.8742 21.0802 32.6766 21.4121 33.2683 22.0033C33.8601 22.5945 34.1929 23.3965 34.1934 24.233V24.2372ZM36.7052 19.345V23.5879H35.4361C35.2824 22.5316 34.7535 21.5659 33.9462 20.8676C33.1389 20.1692 32.1072 19.7849 31.0397 19.7849C29.9723 19.7849 28.9406 20.1692 28.1333 20.8676C27.326 21.5659 26.7971 22.5316 26.6434 23.5879H25.1949V9.74382H26.6515C28.5215 9.7422 29.4611 9.74026 30.057 10.0827C30.6529 10.4252 31.1229 11.237 32.0597 12.8535L33.7406 15.7456C34.1937 16.5331 34.2805 16.6196 35.0677 17.0471L35.4736 17.2689C36.1109 17.6159 36.4958 17.8253 36.601 18.0027C36.7062 18.18 36.7052 18.6186 36.7052 19.345Z" fill="#DC69AE"/>
<path d="M13.9239 22.2876C13.5387 22.2876 13.1622 22.4018 12.842 22.6158C12.5218 22.8297 12.2722 23.1339 12.1248 23.4897C11.9774 23.8455 11.9388 24.2371 12.014 24.6148C12.0891 24.9925 12.2746 25.3395 12.5469 25.6118C12.8192 25.8842 13.1662 26.0696 13.544 26.1448C13.9217 26.2199 14.3132 26.1813 14.6691 26.034C15.0249 25.8866 15.329 25.637 15.543 25.3168C15.7569 24.9965 15.8712 24.62 15.8712 24.2349C15.8706 23.7186 15.6652 23.2237 15.3001 22.8586C14.9351 22.4936 14.4401 22.2882 13.9239 22.2876ZM13.9239 24.8874C13.7948 24.8874 13.6686 24.8492 13.5613 24.7775C13.454 24.7058 13.3704 24.6039 13.321 24.4846C13.2716 24.3654 13.2587 24.2342 13.2838 24.1076C13.309 23.981 13.3712 23.8647 13.4624 23.7735C13.5537 23.6822 13.67 23.6201 13.7966 23.5949C13.9231 23.5697 14.0543 23.5826 14.1736 23.632C14.2928 23.6814 14.3947 23.765 14.4664 23.8724C14.5381 23.9797 14.5764 24.1058 14.5764 24.2349C14.5762 24.4079 14.5074 24.5738 14.3851 24.6961C14.2628 24.8185 14.0969 24.8873 13.9239 24.8874Z" fill="#DC69AE"/>
<path d="M31.0406 22.2876C30.6554 22.2876 30.2789 22.4018 29.9587 22.6158C29.6385 22.8297 29.3889 23.1339 29.2415 23.4897C29.0941 23.8455 29.0555 24.2371 29.1307 24.6148C29.2058 24.9925 29.3913 25.3395 29.6636 25.6118C29.9359 25.8842 30.2829 26.0696 30.6607 26.1448C31.0384 26.2199 31.4299 26.1813 31.7858 26.034C32.1416 25.8866 32.4457 25.637 32.6597 25.3168C32.8736 24.9965 32.9879 24.62 32.9879 24.2349C32.9873 23.7186 32.7819 23.2237 32.4168 22.8586C32.0518 22.4936 31.5568 22.2882 31.0406 22.2876ZM31.0406 24.8874C30.9115 24.8874 30.7853 24.8492 30.678 24.7775C30.5707 24.7058 30.4871 24.6039 30.4377 24.4846C30.3883 24.3654 30.3754 24.2342 30.4005 24.1076C30.4257 23.981 30.4879 23.8647 30.5791 23.7735C30.6704 23.6822 30.7867 23.6201 30.9133 23.5949C31.0398 23.5697 31.171 23.5826 31.2903 23.632C31.4095 23.6814 31.5114 23.765 31.5831 23.8724C31.6548 23.9797 31.6931 24.1058 31.6931 24.2349C31.6929 24.4079 31.624 24.5737 31.5017 24.696C31.3794 24.8184 31.2135 24.8872 31.0406 24.8874Z" fill="#DC69AE"/>
<path d="M30.3365 12.3763C29.7623 11.201 29.5458 11.0635 28.2442 11.0635H26.81C26.6383 11.0635 26.4736 11.1317 26.3522 11.2531C26.2308 11.3745 26.1626 11.5392 26.1626 11.7108V15.2873C26.1626 15.459 26.2308 15.6236 26.3522 15.745C26.4736 15.8664 26.6383 15.9346 26.81 15.9346H31.0409C31.1508 15.9348 31.2591 15.907 31.3553 15.8538C31.4515 15.8006 31.5326 15.7237 31.5909 15.6305C31.6492 15.5372 31.6828 15.4306 31.6885 15.3208C31.6942 15.211 31.6718 15.1015 31.6235 15.0027L30.3365 12.3763ZM27.4573 14.6399V12.3582H28.2326C28.5187 12.3582 28.8116 12.3582 28.8615 12.3689C28.9823 12.5513 29.0867 12.744 29.1735 12.9447L30.0025 14.6399H27.4573Z" fill="#DC69AE"/>
<path d="M18.1864 12.6036L14.6993 16.0913L13.2867 14.6788C13.1653 14.5574 13.0006 14.4892 12.8289 14.4892C12.6572 14.4892 12.4926 14.5575 12.3712 14.6789C12.2498 14.8003 12.1816 14.965 12.1816 15.1367C12.1817 15.3084 12.2499 15.4731 12.3713 15.5945L14.2422 17.4641C14.3636 17.5854 14.5283 17.6536 14.6999 17.6536C14.8716 17.6536 15.0362 17.5854 15.1576 17.4641L19.1017 13.519C19.2197 13.3969 19.2849 13.2334 19.2834 13.0636C19.282 12.8939 19.2139 12.7315 19.0939 12.6115C18.9738 12.4915 18.8115 12.4234 18.6417 12.4219C18.472 12.4204 18.3085 12.4857 18.1864 12.6036Z" fill="#DC69AE"/>
<path d="M9.21482 5.79493H7.0882V3.6586C7.0882 3.48691 7.02 3.32225 6.89859 3.20084C6.77718 3.07944 6.61252 3.01123 6.44083 3.01123C6.26914 3.01123 6.10447 3.07944 5.98307 3.20084C5.86166 3.32225 5.79346 3.48691 5.79346 3.6586V6.44392C5.79346 6.61562 5.86166 6.78028 5.98307 6.90168C6.10447 7.02309 6.26914 7.09129 6.44083 7.09129H9.21482C9.38651 7.09129 9.55117 7.02309 9.67258 6.90168C9.79399 6.78028 9.86219 6.61562 9.86219 6.44392C9.86219 6.27223 9.79399 6.10757 9.67258 5.98616C9.55117 5.86475 9.38651 5.79655 9.21482 5.79655V5.79493Z" fill="#DC69AE"/>
</svg>
